<svg width="472" height="465" viewBox="0 0 472 465" fill="none" xmlns="http://www.w3.org/2000/svg">
<g filter="url(#filter0_d_969_1074)">
<path d="M406.853 234.397C406.853 329.666 329.622 406.897 234.353 406.897C139.083 406.897 61.8525 329.666 61.8525 234.397C61.8525 139.128 139.083 61.897 234.353 61.897C329.622 61.897 406.853 139.128 406.853 234.397Z" stroke="white" stroke-width="55"/>
<path d="M305.367 169.951C306.095 170.664 307.029 171.018 307.963 171.018C308.954 171.018 309.943 170.619 310.682 169.827C312.116 168.289 312.062 165.851 310.561 164.382L302.699 156.688C301.197 155.218 298.818 155.274 297.384 156.812C295.95 158.35 296.004 160.788 297.505 162.257L305.367 169.951Z" fill="white"/>
<path d="M259.968 245.375L243.322 260.963C241.789 262.397 241.682 264.833 243.083 266.403C243.825 267.234 244.84 267.656 245.859 267.656C246.765 267.656 247.673 267.323 248.394 266.647L265.04 251.06C266.573 249.624 266.68 247.189 265.279 245.619C263.877 244.049 261.5 243.941 259.968 245.375Z" fill="white"/>
<path d="M195.35 233.477L208.547 219.91C210.013 218.403 210.008 215.965 208.537 214.463C207.067 212.962 204.686 212.966 203.221 214.473L190.023 228.041C188.557 229.548 188.562 231.986 190.033 233.487C190.766 234.236 191.726 234.61 192.686 234.61C193.65 234.61 194.616 234.232 195.35 233.477Z" fill="white"/>
<path d="M217.381 210.83L220.183 207.949C221.649 206.442 221.645 204.004 220.174 202.503C218.703 201 216.323 201.005 214.857 202.512L212.055 205.393C210.589 206.899 210.593 209.338 212.064 210.839C212.798 211.588 213.758 211.963 214.718 211.963C215.681 211.963 216.646 211.585 217.381 210.83Z" fill="white"/>
<path d="M313.536 254.929C314.395 254.622 315.216 254.184 315.966 253.612L319.712 250.754C322.727 248.454 324.049 244.422 323.001 240.721L321.891 236.811C321.251 234.556 319.824 232.672 317.92 231.482C317.284 231.085 316.596 230.766 315.866 230.535C315.506 230.42 315.144 230.331 314.779 230.264C314.586 230.228 314.393 230.217 314.199 230.194C314.029 230.174 313.86 230.144 313.69 230.135C313.419 230.119 313.148 230.128 312.878 230.138C312.788 230.141 312.698 230.135 312.609 230.141C312.284 230.162 311.963 230.208 311.643 230.264C311.61 230.27 311.578 230.271 311.545 230.277C310.132 230.545 308.788 231.163 307.619 232.098L306.231 226.743L299.259 199.839L302.508 196.71C302.537 196.682 302.567 196.652 302.595 196.623C305.371 193.77 329.7 168.269 328.961 151.686C328.785 147.731 327.212 144.376 324.414 141.983C308.8 128.63 279.362 158.882 275.798 162.658L266.26 172.056L233.46 161.999C233.683 161.753 233.889 161.497 234.078 161.228C234.081 161.225 234.083 161.222 234.085 161.218C234.27 160.957 234.438 160.688 234.589 160.41C234.599 160.392 234.607 160.374 234.617 160.356C234.758 160.091 234.886 159.822 234.997 159.545C235.014 159.502 235.028 159.458 235.045 159.416C235.142 159.159 235.231 158.901 235.302 158.636C235.323 158.557 235.338 158.477 235.357 158.398C235.414 158.162 235.467 157.926 235.502 157.685C235.52 157.562 235.526 157.436 235.539 157.311C235.559 157.108 235.583 156.905 235.589 156.699C235.594 156.514 235.581 156.329 235.573 156.143C235.567 155.99 235.571 155.838 235.556 155.684C235.523 155.34 235.472 154.995 235.396 154.651C234.766 151.791 232.763 149.548 230.036 148.652L224.375 146.792C221.541 145.861 218.46 146.608 216.336 148.74L212.089 153.001C212.089 153.001 212.088 153.001 212.088 153.002C211.492 153.6 211.015 154.277 210.636 154.999L173.811 143.707C172.64 143.349 171.369 143.595 170.408 144.372L154.89 156.889C153.898 157.689 153.364 158.945 153.469 160.234C153.573 161.522 154.302 162.671 155.41 163.292L188.192 181.677L201.509 189.146L208.915 193.299L231.72 206.089L199.605 237.734L138.392 236.343L135.015 236.266C134.986 236.265 134.958 236.265 134.931 236.265C134.866 236.265 134.805 236.278 134.742 236.282C134.483 236.293 134.233 236.331 133.988 236.395C133.979 236.397 133.97 236.399 133.96 236.402C133.73 236.465 133.508 236.548 133.297 236.653C133.279 236.662 133.26 236.669 133.241 236.679C133.032 236.788 132.833 236.913 132.648 237.06C132.636 237.069 132.624 237.075 132.612 237.085C132.416 237.243 132.234 237.42 132.072 237.616C132.047 237.645 132.028 237.681 132.004 237.712C131.895 237.853 131.788 237.995 131.698 238.151C131.642 238.246 131.603 238.352 131.556 238.452C131.555 238.453 131.554 238.455 131.554 238.456C131.553 238.457 131.553 238.458 131.552 238.46C131.506 238.559 131.451 238.653 131.413 238.757C131.413 238.758 131.413 238.758 131.413 238.758C131.334 238.97 131.274 239.193 131.232 239.423L129.039 251.715C128.709 253.564 129.731 255.388 131.457 256.029L160.722 266.888C160.722 266.888 160.723 266.888 160.723 266.889L187.093 276.673L199.103 333.479C199.425 335 200.608 336.173 202.102 336.453L213.243 338.539C213.467 338.58 213.694 338.602 213.919 338.602C214.713 338.602 215.494 338.344 216.144 337.854C216.977 337.226 217.523 336.275 217.65 335.224L225.428 270.952L264.564 233.257L304.307 313.501C304.878 314.654 305.977 315.437 307.231 315.584C307.374 315.601 307.517 315.609 307.66 315.609C308.763 315.609 309.82 315.111 310.539 314.234L323.237 298.737C324.025 297.776 324.306 296.484 323.992 295.272L313.536 254.929ZM196.058 163.931L186.79 172.111L164.01 159.335L173.525 151.661L200.565 159.952L196.058 163.931ZM312.214 238.183C312.283 238.124 312.353 238.075 312.423 238.032C312.702 237.862 312.977 237.814 313.21 237.82C313.268 237.821 313.324 237.826 313.376 237.833C313.481 237.847 313.573 237.869 313.646 237.893C313.868 237.964 314.22 238.129 314.467 238.508C314.549 238.634 314.62 238.783 314.67 238.96L315.78 242.871C315.958 243.5 315.734 244.186 315.221 244.577L311.574 247.358L310.37 242.712L309.737 240.27L312.214 238.183ZM221.598 154.243C221.724 154.116 221.908 154.071 222.078 154.128L227.739 155.988C227.81 156.012 228.001 156.074 228.061 156.347C228.121 156.621 227.976 156.761 227.92 156.813L225.173 159.457L218.454 157.397L221.598 154.243ZM224.272 193.132L210.014 185.136L222.732 174.494L229.506 168.827L260.037 178.188L237.399 200.494L224.272 193.132ZM219.288 266.296C218.649 266.912 218.24 267.737 218.133 268.628L214.73 296.744L208.949 298.027L199.733 300.072L194.001 272.964C193.728 271.67 192.824 270.61 191.607 270.159L166.857 260.974L172.765 244.83L201.001 245.471C201.993 245.502 202.969 245.106 203.69 244.396L254.123 194.703L269.892 179.165C269.892 179.165 269.893 179.164 269.894 179.163L281.061 168.16C281.095 168.127 281.128 168.093 281.16 168.059C290.187 158.474 311.456 140.934 319.597 147.896C320.781 148.908 321.37 150.224 321.451 152.035C321.687 157.314 317.581 165.911 309.889 176.242C303.96 184.205 297.855 190.58 297.31 191.145L292.96 195.335C292.765 195.467 292.577 195.612 292.406 195.783L290.116 198.075L219.288 266.296ZM281.81 251.059L270.579 228.384L293.051 205.904L300.629 235.145L292.652 241.891L281.81 251.059ZM308.437 304.821L294.314 276.305L308.061 263.82L316.224 295.318L308.437 304.821Z" fill="white"/>
</g>
<defs>
<filter id="filter0_d_969_1074" x="-15.6475" y="-15.603" width="500.001" height="500" filterUnits="userSpaceOnUse" color-interpolation-filters="sRGB">
<feFlood flood-opacity="0" result="BackgroundImageFix"/>
<feColorMatrix in="SourceAlpha" type="matrix" values="0 0 0 0 0 0 0 0 0 0 0 0 0 0 0 0 0 0 127 0" result="hardAlpha"/>
<feOffset/>
<feGaussianBlur stdDeviation="25"/>
<feComposite in2="hardAlpha" operator="out"/>
<feColorMatrix type="matrix" values="0 0 0 0 0.501961 0 0 0 0 0.152941 0 0 0 0 0.290196 0 0 0 1 0"/>
<feBlend mode="normal" in2="BackgroundImageFix" result="effect1_dropShadow_969_1074"/>
<feBlend mode="normal" in="SourceGraphic" in2="effect1_dropShadow_969_1074" result="shape"/>
</filter>
</defs>
</svg>
