<svg width="2127" height="465" viewBox="0 0 2127 465" fill="none" xmlns="http://www.w3.org/2000/svg">
<g clip-path="url(#clip0_973_58)">
<mask id="mask0_973_58" style="mask-type:luminance" maskUnits="userSpaceOnUse" x="0" y="0" width="472" height="465">
<path d="M472 0H0V465H472V0Z" fill="white"/>
</mask>
<g mask="url(#mask0_973_58)">
<g filter="url(#filter0_d_973_58)">
<path d="M406.853 234.397C406.853 329.666 329.622 406.897 234.353 406.897C139.083 406.897 61.8525 329.666 61.8525 234.397C61.8525 139.128 139.083 61.897 234.353 61.897C329.622 61.897 406.853 139.128 406.853 234.397Z" stroke="white" stroke-width="55"/>
</g>
<path d="M387.302 342.694C385.677 337.975 378.312 343.786 374.091 340.871C369.863 337.95 373.391 329.448 368.168 329.448C362.946 329.448 366.471 337.95 362.245 340.871C358.025 343.786 350.658 337.975 349.035 342.694C347.409 347.422 356.99 346.863 358.6 351.596C360.208 356.325 352.119 361.221 356.341 364.143C360.564 367.065 362.946 358.209 368.166 358.209C373.386 358.209 375.768 367.065 379.991 364.143C384.212 361.221 376.123 356.325 377.73 351.596C379.342 346.862 388.927 347.423 387.302 342.694Z" fill="url(#paint0_linear_973_58)"/>
<path d="M387.302 342.694C385.677 337.975 378.312 343.786 374.091 340.871C369.863 337.95 373.391 329.448 368.168 329.448C362.946 329.448 366.471 337.95 362.245 340.871C358.025 343.786 350.658 337.975 349.035 342.694C347.409 347.422 356.99 346.863 358.6 351.596C360.208 356.325 352.119 361.221 356.341 364.143C360.564 367.065 362.946 358.209 368.166 358.209C373.386 358.209 375.768 367.065 379.991 364.143C384.212 361.221 376.123 356.325 377.73 351.596C379.342 346.862 388.927 347.423 387.302 342.694Z" fill="url(#paint1_linear_973_58)"/>
<path d="M387.302 342.694C385.677 337.975 378.312 343.786 374.091 340.871C369.863 337.95 373.391 329.448 368.168 329.448C362.946 329.448 366.471 337.95 362.245 340.871C358.025 343.786 350.658 337.975 349.035 342.694C347.409 347.422 356.99 346.863 358.6 351.596C360.208 356.325 352.119 361.221 356.341 364.143C360.564 367.065 362.946 358.209 368.166 358.209C373.386 358.209 375.768 367.065 379.991 364.143C384.212 361.221 376.123 356.325 377.73 351.596C379.342 346.862 388.927 347.423 387.302 342.694Z" fill="url(#paint2_linear_973_58)"/>
<path d="M387.302 342.694C385.677 337.975 378.312 343.786 374.091 340.871C369.863 337.95 373.391 329.448 368.168 329.448C362.946 329.448 366.471 337.95 362.245 340.871C358.025 343.786 350.658 337.975 349.035 342.694C347.409 347.422 356.99 346.863 358.6 351.596C360.208 356.325 352.119 361.221 356.341 364.143C360.564 367.065 362.946 358.209 368.166 358.209C373.386 358.209 375.768 367.065 379.991 364.143C384.212 361.221 376.123 356.325 377.73 351.596C379.342 346.862 388.927 347.423 387.302 342.694Z" fill="url(#paint3_linear_973_58)"/>
<path d="M341.555 379.906C339.93 375.186 332.565 380.998 328.344 378.082C324.116 375.161 327.644 366.659 322.421 366.659C317.199 366.659 320.724 375.161 316.498 378.082C312.278 380.998 304.911 375.186 303.288 379.906C301.662 384.633 311.243 384.075 312.853 388.807C314.461 393.536 306.372 398.432 310.594 401.354C314.817 404.277 317.199 395.42 322.419 395.42C327.639 395.42 330.021 404.277 334.244 401.354C338.465 398.432 330.376 393.536 331.983 388.807C333.595 384.073 343.18 384.634 341.555 379.906Z" fill="url(#paint4_linear_973_58)"/>
<path d="M341.555 379.906C339.93 375.186 332.565 380.998 328.344 378.082C324.116 375.161 327.644 366.659 322.421 366.659C317.199 366.659 320.724 375.161 316.498 378.082C312.278 380.998 304.911 375.186 303.288 379.906C301.662 384.633 311.243 384.075 312.853 388.807C314.461 393.536 306.372 398.432 310.594 401.354C314.817 404.277 317.199 395.42 322.419 395.42C327.639 395.42 330.021 404.277 334.244 401.354C338.465 398.432 330.376 393.536 331.983 388.807C333.595 384.073 343.18 384.634 341.555 379.906Z" fill="url(#paint5_linear_973_58)"/>
<path d="M341.555 379.906C339.93 375.186 332.565 380.998 328.344 378.082C324.116 375.161 327.644 366.659 322.421 366.659C317.199 366.659 320.724 375.161 316.498 378.082C312.278 380.998 304.911 375.186 303.288 379.906C301.662 384.633 311.243 384.075 312.853 388.807C314.461 393.536 306.372 398.432 310.594 401.354C314.817 404.277 317.199 395.42 322.419 395.42C327.639 395.42 330.021 404.277 334.244 401.354C338.465 398.432 330.376 393.536 331.983 388.807C333.595 384.073 343.18 384.634 341.555 379.906Z" fill="url(#paint6_linear_973_58)"/>
<path d="M215.281 399.371C213.656 394.652 206.291 400.463 202.07 397.547C197.841 394.626 201.369 386.125 196.147 386.125C190.924 386.125 194.45 394.626 190.224 397.547C186.003 400.463 178.636 394.651 177.013 399.371C175.387 404.099 184.969 403.54 186.579 408.273C188.187 413.002 180.098 417.897 184.319 420.819C188.542 423.742 190.924 414.886 196.144 414.886C201.364 414.886 203.746 423.742 207.97 420.819C212.19 417.897 204.102 413.002 205.709 408.273C207.321 403.539 216.905 404.1 215.281 399.371Z" fill="url(#paint7_linear_973_58)"/>
<path d="M215.281 399.371C213.656 394.652 206.291 400.463 202.07 397.547C197.841 394.626 201.369 386.125 196.147 386.125C190.924 386.125 194.45 394.626 190.224 397.547C186.003 400.463 178.636 394.651 177.013 399.371C175.387 404.099 184.969 403.54 186.579 408.273C188.187 413.002 180.098 417.897 184.319 420.819C188.542 423.742 190.924 414.886 196.144 414.886C201.364 414.886 203.746 423.742 207.97 420.819C212.19 417.897 204.102 413.002 205.709 408.273C207.321 403.539 216.905 404.1 215.281 399.371Z" fill="url(#paint8_linear_973_58)"/>
<path d="M215.281 399.371C213.656 394.652 206.291 400.463 202.07 397.547C197.841 394.626 201.369 386.125 196.147 386.125C190.924 386.125 194.45 394.626 190.224 397.547C186.003 400.463 178.636 394.651 177.013 399.371C175.387 404.099 184.969 403.54 186.579 408.273C188.187 413.002 180.098 417.897 184.319 420.819C188.542 423.742 190.924 414.886 196.144 414.886C201.364 414.886 203.746 423.742 207.97 420.819C212.19 417.897 204.102 413.002 205.709 408.273C207.321 403.539 216.905 404.1 215.281 399.371Z" fill="url(#paint9_linear_973_58)"/>
<path d="M114.713 334.205C113.088 329.486 105.723 335.297 101.502 332.381C97.2738 329.46 100.802 320.958 95.5788 320.958C90.3568 320.958 93.8818 329.46 89.6568 332.381C85.4358 335.297 78.0688 329.485 76.4458 334.205C74.8198 338.933 84.4008 338.374 86.0108 343.107C87.6198 347.836 79.5298 352.731 83.7518 355.653C87.9748 358.576 90.3568 349.72 95.5768 349.72C100.797 349.72 103.179 358.576 107.402 355.653C111.623 352.731 103.534 347.836 105.141 343.107C106.753 338.373 116.338 338.934 114.713 334.205Z" fill="url(#paint10_linear_973_58)"/>
<path d="M114.713 334.205C113.088 329.486 105.723 335.297 101.502 332.381C97.2738 329.46 100.802 320.958 95.5788 320.958C90.3568 320.958 93.8818 329.46 89.6568 332.381C85.4358 335.297 78.0688 329.485 76.4458 334.205C74.8198 338.933 84.4008 338.374 86.0108 343.107C87.6198 347.836 79.5298 352.731 83.7518 355.653C87.9748 358.576 90.3568 349.72 95.5768 349.72C100.797 349.72 103.179 358.576 107.402 355.653C111.623 352.731 103.534 347.836 105.141 343.107C106.753 338.373 116.338 338.934 114.713 334.205Z" fill="url(#paint11_linear_973_58)"/>
<path d="M114.713 334.205C113.088 329.486 105.723 335.297 101.502 332.381C97.2738 329.46 100.802 320.958 95.5788 320.958C90.3568 320.958 93.8818 329.46 89.6568 332.381C85.4358 335.297 78.0688 329.485 76.4458 334.205C74.8198 338.933 84.4008 338.374 86.0108 343.107C87.6198 347.836 79.5298 352.731 83.7518 355.653C87.9748 358.576 90.3568 349.72 95.5768 349.72C100.797 349.72 103.179 358.576 107.402 355.653C111.623 352.731 103.534 347.836 105.141 343.107C106.753 338.373 116.338 338.934 114.713 334.205Z" fill="url(#paint12_linear_973_58)"/>
<path d="M157.321 375.449C155.696 370.73 148.331 376.541 144.11 373.625C139.881 370.704 143.409 362.203 138.187 362.203C132.964 362.203 136.49 370.704 132.264 373.625C128.043 376.541 120.676 370.73 119.053 375.449C117.427 380.177 127.009 379.618 128.619 384.351C130.227 389.08 122.138 393.976 126.359 396.897C130.582 399.82 132.964 390.964 138.184 390.964C143.404 390.964 145.786 399.82 150.01 396.897C154.23 393.976 146.142 389.08 147.749 384.351C149.361 379.617 158.946 380.178 157.321 375.449Z" fill="url(#paint13_linear_973_58)"/>
<path d="M157.321 375.449C155.696 370.73 148.331 376.541 144.11 373.625C139.881 370.704 143.409 362.203 138.187 362.203C132.964 362.203 136.49 370.704 132.264 373.625C128.043 376.541 120.676 370.73 119.053 375.449C117.427 380.177 127.009 379.618 128.619 384.351C130.227 389.08 122.138 393.976 126.359 396.897C130.582 399.82 132.964 390.964 138.184 390.964C143.404 390.964 145.786 399.82 150.01 396.897C154.23 393.976 146.142 389.08 147.749 384.351C149.361 379.617 158.946 380.178 157.321 375.449Z" fill="url(#paint14_linear_973_58)"/>
<path d="M157.321 375.449C155.696 370.73 148.331 376.541 144.11 373.625C139.881 370.704 143.409 362.203 138.187 362.203C132.964 362.203 136.49 370.704 132.264 373.625C128.043 376.541 120.676 370.73 119.053 375.449C117.427 380.177 127.009 379.618 128.619 384.351C130.227 389.08 122.138 393.976 126.359 396.897C130.582 399.82 132.964 390.964 138.184 390.964C143.404 390.964 145.786 399.82 150.01 396.897C154.23 393.976 146.142 389.08 147.749 384.351C149.361 379.617 158.946 380.178 157.321 375.449Z" fill="url(#paint15_linear_973_58)"/>
<path d="M281.366 401.406C279.741 396.686 272.375 402.498 268.155 399.582C263.926 396.661 267.454 388.159 262.232 388.159C257.009 388.159 260.535 396.661 256.309 399.582C252.088 402.498 244.721 396.686 243.098 401.406C241.472 406.133 251.054 405.575 252.664 410.307C254.272 415.036 246.183 419.932 250.404 422.854C254.627 425.777 257.009 416.92 262.229 416.92C267.449 416.92 269.831 425.777 274.055 422.854C278.275 419.932 270.187 415.036 271.793 410.307C273.406 405.573 282.99 406.134 281.366 401.406Z" fill="url(#paint16_linear_973_58)"/>
<path d="M281.366 401.406C279.741 396.686 272.375 402.498 268.155 399.582C263.926 396.661 267.454 388.159 262.232 388.159C257.009 388.159 260.535 396.661 256.309 399.582C252.088 402.498 244.721 396.686 243.098 401.406C241.472 406.133 251.054 405.575 252.664 410.307C254.272 415.036 246.183 419.932 250.404 422.854C254.627 425.777 257.009 416.92 262.229 416.92C267.449 416.92 269.831 425.777 274.055 422.854C278.275 419.932 270.187 415.036 271.793 410.307C273.406 405.573 282.99 406.134 281.366 401.406Z" fill="url(#paint17_linear_973_58)"/>
<path d="M281.366 401.406C279.741 396.686 272.375 402.498 268.155 399.582C263.926 396.661 267.454 388.159 262.232 388.159C257.009 388.159 260.535 396.661 256.309 399.582C252.088 402.498 244.721 396.686 243.098 401.406C241.472 406.133 251.054 405.575 252.664 410.307C254.272 415.036 246.183 419.932 250.404 422.854C254.627 425.777 257.009 416.92 262.229 416.92C267.449 416.92 269.831 425.777 274.055 422.854C278.275 419.932 270.187 415.036 271.793 410.307C273.406 405.573 282.99 406.134 281.366 401.406Z" fill="url(#paint18_linear_973_58)"/>
<path d="M92.3184 295.454C92.4284 295.755 92.4214 296.062 92.2974 296.377C92.1434 296.703 91.9014 296.924 91.5684 297.04L62.2247 307.354C61.8926 307.471 61.577 307.446 61.278 307.28C60.9488 307.124 60.7293 306.896 60.6197 306.596L55.8178 293.428C54.864 290.812 54.4287 288.405 54.512 286.205C54.5843 283.975 55.2232 282.037 56.4285 280.393C57.6339 278.748 59.4442 277.501 61.8593 276.652C64.2745 275.803 66.4643 275.644 68.4284 276.175C70.3634 276.716 72.0494 277.836 73.4864 279.536C74.9124 281.205 76.1024 283.347 77.0564 285.963L78.6184 290.247L87.9014 286.984C88.2334 286.867 88.5644 286.887 88.8934 287.042C89.1814 287.179 89.3864 287.412 89.5064 287.743L92.3184 295.454ZM71.3934 292.99L69.8474 288.751C69.5294 287.879 69.0044 287.233 68.2724 286.812C67.4983 286.372 66.553 286.348 65.436 286.74C64.5907 287.038 63.9085 287.549 63.3896 288.274C62.8706 288.999 62.8195 289.933 63.2361 291.075L64.7819 295.314L71.3934 292.99Z" fill="url(#paint19_linear_973_58)"/>
<path d="M81.2053 259.116C81.2533 259.465 81.1843 259.78 80.9973 260.063C80.7743 260.318 80.4883 260.469 80.1393 260.515L57.8666 263.436C57.5176 263.482 57.2166 263.409 56.9636 263.216C56.6744 262.996 56.5056 262.711 56.457 262.363L55.4967 255.469C55.4482 255.12 55.5353 254.819 55.7583 254.563C55.945 254.281 56.2129 254.117 56.5619 254.071L58.3229 253.84C57.2703 253.01 56.3904 252.028 55.6833 250.894C54.9717 249.729 54.5144 248.417 54.3113 246.959L54.0133 244.82C53.9647 244.471 54.0497 244.154 54.2682 243.867C54.4549 243.584 54.7228 243.42 55.0718 243.374L61.2112 242.569C61.5603 242.523 61.8793 242.61 62.1685 242.83C62.4576 243.051 62.6265 243.335 62.675 243.684L63.4168 249.008C63.5757 250.149 63.9986 250.981 64.6853 251.504C65.3403 252.032 66.2389 252.22 67.3811 252.071L78.7553 250.578C79.1043 250.533 79.4233 250.62 79.7133 250.84C79.9663 251.033 80.1163 251.304 80.1653 251.652L81.2053 259.116Z" fill="url(#paint20_linear_973_58)"/>
<path d="M78.7365 222.157C78.5435 224.966 77.9645 227.315 77.0005 229.202C76.0385 231.058 74.7245 232.44 73.0585 233.346C71.3605 234.251 69.3735 234.686 67.0986 234.65C66.4261 234.634 65.6909 234.597 64.893 234.54C64.095 234.482 63.362 234.414 62.694 234.334C60.4047 234.041 58.4995 233.294 56.9784 232.094C55.4573 230.894 54.3478 229.306 53.6498 227.331C52.9541 225.324 52.6986 222.979 52.8833 220.298C53.068 217.616 53.6413 215.347 54.6031 213.492C55.5671 211.604 56.8844 210.175 58.555 209.204C60.2257 208.233 62.2144 207.767 64.5213 207.804C65.196 207.789 65.9323 207.81 66.7302 207.867C67.5282 207.924 68.2605 208.009 68.9255 208.121C71.1835 208.412 73.0905 209.126 74.6485 210.265C76.1735 211.401 77.2845 212.973 77.9795 214.98C78.6775 216.955 78.9305 219.348 78.7365 222.157ZM71.9865 221.671C72.0675 220.49 71.7725 219.651 71.1005 219.153C70.4295 218.656 69.3935 218.325 67.9939 218.16C67.5173 218.094 66.8641 218.031 66.0342 217.971C65.2044 217.911 64.549 217.88 64.068 217.878C62.6912 217.843 61.6362 218.024 60.9033 218.42C60.1384 218.814 59.7153 219.602 59.6339 220.783C59.5547 221.932 59.8668 222.757 60.5701 223.257C61.2415 223.754 62.2602 224.1 63.626 224.295C64.1026 224.361 64.7558 224.424 65.5857 224.484C66.4155 224.543 67.0709 224.574 67.5519 224.577C68.9625 224.582 70.0345 224.386 70.7675 223.99C71.5005 223.594 71.9065 222.821 71.9865 221.671Z" fill="url(#paint21_linear_973_58)"/>
<path d="M81.3742 196.263C81.2942 196.572 81.1132 196.823 80.8322 197.015C80.5192 197.199 80.1932 197.247 79.8522 197.159L49.7315 189.4C49.3906 189.312 49.1438 189.117 48.9913 188.813C48.8077 188.501 48.7561 188.191 48.8365 187.881L50.8868 179.983C50.9753 179.642 51.1716 179.395 51.4758 179.242C51.757 179.05 52.0681 178.998 52.4089 179.086L82.5292 186.845C82.8702 186.933 83.1322 187.133 83.3162 187.444C83.4772 187.717 83.5132 188.024 83.4242 188.364L81.3742 196.263Z" fill="url(#paint22_linear_973_58)"/>
<path d="M84.3787 178.175C84.2117 178.485 83.9687 178.701 83.6497 178.822C83.3167 178.899 82.9957 178.856 82.6837 178.692L62.8182 168.204C62.507 168.04 62.3053 167.807 62.2133 167.505C62.1082 167.16 62.139 166.833 62.3057 166.523L65.4206 160.731C65.5873 160.421 65.8369 160.227 66.1694 160.15C66.4888 160.029 66.8041 160.05 67.1154 160.215L68.5157 160.954C68.1247 160.06 67.9051 158.949 67.8565 157.621C67.7796 156.278 68.0847 154.901 68.7707 153.49C70.4587 150.148 72.8447 148.549 75.9287 148.693C75.2577 147.507 74.9017 146.143 74.8597 144.6C74.8317 143.03 75.1817 141.569 75.9097 140.216C76.6977 138.75 77.7417 137.619 79.0427 136.822C80.3297 135.982 81.8567 135.576 83.6227 135.603C85.3597 135.616 87.3317 136.205 89.5387 137.37L101.51 143.689C101.821 143.854 102.029 144.108 102.134 144.453C102.226 144.755 102.189 145.061 102.022 145.371L98.7027 151.543C98.5357 151.853 98.2927 152.068 97.9737 152.189C97.6407 152.267 97.3187 152.224 97.0077 152.059L85.2917 145.875C84.5567 145.486 83.9157 145.293 83.3697 145.294C82.7957 145.28 82.3107 145.405 81.9157 145.666C81.5077 145.885 81.1747 146.234 80.9167 146.713C80.6747 147.164 80.5677 147.632 80.5977 148.118C80.5987 148.589 80.7647 149.057 81.0957 149.521C81.4147 149.943 81.9417 150.348 82.6777 150.736L94.3927 156.921C94.7047 157.085 94.9127 157.34 95.0177 157.685C95.1097 157.987 95.0727 158.293 94.9057 158.603L91.5857 164.775C91.4197 165.085 91.1767 165.3 90.8567 165.421C90.5247 165.499 90.2027 165.455 89.8917 165.291L78.1757 159.106C77.4397 158.718 76.7987 158.524 76.2537 158.526C75.6797 158.512 75.1947 158.636 74.7997 158.898C74.3917 159.117 74.0587 159.466 73.8007 159.945C73.5577 160.396 73.4517 160.864 73.4807 161.35C73.5107 161.836 73.6767 162.303 73.9797 162.753C74.2827 163.203 74.8027 163.622 75.5387 164.01L87.2537 170.195C87.5657 170.359 87.7737 170.614 87.8787 170.959C87.9707 171.261 87.9327 171.567 87.7667 171.877L84.3787 178.175Z" fill="url(#paint23_linear_973_58)"/>
<path d="M109.305 131.052C109.044 131.288 108.742 131.409 108.399 131.416C108.059 131.377 107.77 131.229 107.531 130.97L92.2875 114.469C92.0485 114.21 91.9365 113.924 91.9515 113.61C91.9675 113.25 92.1065 112.953 92.3685 112.717L97.2565 108.318C97.5185 108.083 97.8195 107.984 98.1595 108.022C98.5015 108.016 98.7925 108.142 99.0305 108.4L100.106 109.564C100.037 108.593 100.203 107.475 100.603 106.211C100.981 104.923 101.732 103.731 102.854 102.635C105.571 100.06 108.362 99.3562 111.227 100.524C110.992 99.1852 111.114 97.7842 111.592 96.3212C112.093 94.8362 112.915 93.5802 114.057 92.5532C115.293 91.4392 116.66 90.7262 118.156 90.4122C119.655 90.0542 121.233 90.1832 122.892 90.8002C124.529 91.3932 126.194 92.6062 127.887 94.4402L137.072 104.383C137.311 104.641 137.422 104.95 137.405 105.31C137.391 105.624 137.253 105.899 136.991 106.134L131.782 110.823C131.521 111.058 131.219 111.179 130.876 111.186C130.536 111.148 130.247 110.999 130.008 110.741L121.019 101.009C120.454 100.398 119.914 100.002 119.398 99.8202C118.86 99.6162 118.361 99.5702 117.9 99.6842C117.44 99.7532 117.009 99.9692 116.604 100.333C116.224 100.675 115.966 101.08 115.83 101.546C115.673 101.989 115.673 102.484 115.83 103.031C115.989 103.534 116.351 104.091 116.916 104.702L125.905 114.433C126.144 114.692 126.255 115.001 126.238 115.36C126.224 115.675 126.086 115.95 125.824 116.185L120.615 120.873C120.353 121.109 120.052 121.23 119.709 121.237C119.369 121.198 119.08 121.05 118.841 120.791L109.851 111.06C109.287 110.449 108.747 110.052 108.231 109.871C107.693 109.666 107.194 109.621 106.732 109.734C106.273 109.803 105.842 110.02 105.437 110.384C105.057 110.726 104.799 111.13 104.663 111.597C104.528 112.063 104.528 112.558 104.663 113.082C104.798 113.606 105.148 114.173 105.713 114.785L114.702 124.516C114.941 124.775 115.052 125.084 115.035 125.443C115.021 125.757 114.883 126.032 114.621 126.268L109.305 131.052Z" fill="url(#paint24_linear_973_58)"/>
<path d="M151.967 96.5662C151.659 96.7352 151.337 96.7842 151.002 96.7132C150.68 96.5982 150.431 96.3882 150.258 96.0822L139.17 76.5453C138.996 76.2392 138.952 75.9347 139.038 75.6319C139.135 75.2859 139.339 75.028 139.647 74.8583L145.871 71.4338C146.18 71.2641 146.509 71.2288 146.86 71.3281C147.195 71.3995 147.449 71.5882 147.623 71.8944L158.711 91.4312C158.884 91.7372 158.922 92.0632 158.824 92.4092C158.711 92.7272 158.5 92.9712 158.191 93.1412L151.967 96.5662ZM138.191 72.0986C137.883 72.2683 137.561 72.3174 137.226 72.246C136.904 72.1314 136.655 71.921 136.482 71.6148L133.994 67.2316C133.82 66.9254 133.768 66.6071 133.838 66.2764C133.936 65.9304 134.139 65.6725 134.448 65.5028L140.504 62.1708C140.812 62.0012 141.142 61.9659 141.492 62.0652C141.843 62.1644 142.105 62.3671 142.279 62.6732L144.766 67.0565C144.94 67.3626 144.978 67.6887 144.88 68.0347C144.766 68.3529 144.555 68.5969 144.247 68.7666L138.191 72.0986Z" fill="url(#paint25_linear_973_58)"/>
<path d="M181.866 94.0269C179.411 94.8589 177.253 95.2349 175.394 95.1549C173.575 95.0949 172.022 94.7769 170.733 94.1989C169.456 93.6529 168.451 93.0129 167.719 92.2809C167.027 91.5699 166.582 90.9769 166.382 90.5039C166.235 90.1829 166.24 89.8599 166.397 89.5359C166.566 89.2429 166.816 89.0399 167.15 88.9269L174.469 86.4479C174.772 86.3449 175.041 86.3389 175.276 86.4279C175.542 86.5069 175.788 86.6769 176.015 86.9379C176.262 87.1579 176.525 87.3729 176.802 87.5829C177.11 87.7829 177.472 87.8969 177.889 87.9249C178.305 87.9529 178.802 87.8689 179.378 87.6739C180.075 87.4379 180.593 87.1269 180.932 86.7419C181.302 86.3469 181.503 85.8559 181.535 85.2709C181.597 84.6759 181.479 83.9559 181.182 83.1099L180.115 80.0759C179.632 81.0169 178.934 81.8779 178.022 82.6599C177.129 83.4019 175.971 84.0139 174.546 84.4959C173.061 84.9989 171.659 85.2549 170.339 85.2619C169.038 85.2299 167.83 84.9289 166.715 84.3609C165.63 83.7829 164.616 82.9269 163.675 81.7929C162.764 80.6489 161.96 79.1813 161.262 77.3905C160.956 76.6158 160.68 75.8309 160.434 75.0358C159.901 73.3247 159.633 71.7431 159.631 70.291C159.619 68.8088 159.868 67.4913 160.378 66.3387C160.889 65.1861 161.641 64.1883 162.633 63.3454C163.645 62.4621 164.894 61.7689 166.379 61.2659C167.925 60.7424 169.38 60.5875 170.744 60.8012C172.127 60.9745 173.348 61.4058 174.404 62.0953L173.863 60.5557C173.746 60.2236 173.757 59.916 173.894 59.6328C174.052 59.3092 174.297 59.0909 174.631 58.978L181.223 56.7454C181.556 56.6325 181.872 56.6609 182.169 56.8305C182.485 56.9597 182.702 57.1904 182.819 57.5224L190.474 79.1522C191.334 81.5979 191.51 83.7849 191.001 85.7139C190.522 87.6329 189.491 89.2829 187.908 90.6629C186.335 92.0739 184.321 93.1959 181.866 94.0269ZM175.263 76.5506C175.991 76.3043 176.529 75.9532 176.877 75.4973C177.226 75.0414 177.421 74.5361 177.464 73.9812C177.526 73.3859 177.475 72.761 177.313 72.1065C177.248 71.8245 177.109 71.3816 176.897 70.7779C176.685 70.1741 176.521 69.7566 176.406 69.5254C176.122 68.9119 175.774 68.4048 175.362 68.0039C174.969 67.5625 174.493 67.2679 173.932 67.12C173.371 66.9721 172.727 67.0213 172 67.2676C171.212 67.5345 170.649 67.911 170.311 68.397C169.962 68.8529 169.783 69.4035 169.772 70.049C169.782 70.654 169.883 71.329 170.077 72.074C170.24 72.7285 170.457 73.3474 170.73 73.9306C171.045 74.6346 171.395 75.2426 171.778 75.7546C172.182 76.2262 172.669 76.551 173.24 76.7291C173.801 76.877 174.475 76.8175 175.263 76.5506Z" fill="url(#paint26_linear_973_58)"/>
<path d="M203.262 76.8934C202.913 76.9353 202.597 76.8604 202.314 76.6686C202.059 76.4414 201.909 76.1531 201.865 75.804L199.02 53.5209C198.975 53.1717 199.05 52.8727 199.244 52.6239C199.466 52.3395 199.751 52.1763 200.101 52.1344L207.011 51.3063C207.361 51.2644 207.663 51.3571 207.918 51.5844C208.2 51.7761 208.364 52.0466 208.408 52.3958L208.633 54.1575C209.469 53.1227 210.456 52.2632 211.595 51.5789C212.765 50.8908 214.081 50.4591 215.542 50.284L217.687 50.027C218.036 49.9851 218.354 50.0759 218.641 50.2994C218.924 50.4911 219.087 50.7616 219.132 51.1107L219.916 57.2529C219.961 57.602 219.872 57.9188 219.65 58.2032C219.428 58.4876 219.143 58.6507 218.793 58.6926L213.456 59.3323C212.312 59.4694 211.476 59.8756 210.95 60.5511C210.419 61.1948 210.227 62.088 210.373 63.2307L211.826 74.6103C211.87 74.9595 211.782 75.2763 211.56 75.5607C211.366 75.8095 211.094 75.9549 210.745 75.9968L203.262 76.8934Z" fill="url(#paint27_linear_973_58)"/>
<path d="M235.795 74.8137C234.04 74.6811 232.485 74.2266 231.13 73.4503C229.806 72.6764 228.786 71.7007 228.07 70.5234C227.387 69.3166 227.097 68.011 227.199 66.6067C227.366 64.3087 228.422 62.5754 230.368 61.4067C232.348 60.2085 234.92 59.4722 238.084 59.1978L243.651 58.752L243.676 58.4169C243.747 57.4275 243.641 56.6814 243.357 56.1785C243.107 55.6462 242.503 55.3438 241.546 55.2715C240.876 55.2209 240.324 55.3076 239.891 55.5315C239.457 55.7555 239.048 56.0936 238.662 56.5458C238.317 56.8728 237.89 57.017 237.379 56.9784L230.631 56.4685C230.28 56.4419 230.015 56.3257 229.838 56.1197C229.66 55.9138 229.599 55.6524 229.654 55.3357C229.728 54.7636 230.016 54.1114 230.518 53.3792C231.023 52.6151 231.764 51.9009 232.743 51.2368C233.756 50.5431 235.03 50.0136 236.564 49.6482C238.101 49.2509 239.922 49.1318 242.028 49.2909C244.166 49.4524 245.984 49.8304 247.481 50.4249C248.977 51.0194 250.189 51.7849 251.116 52.7213C252.042 53.6578 252.7 54.7665 253.088 56.0474C253.478 57.2964 253.619 58.6709 253.51 60.1709L252.481 74.3416C252.456 74.6927 252.306 74.9862 252.032 75.2223C251.793 75.4288 251.497 75.5188 251.146 75.4923L244.158 74.9642C243.839 74.9401 243.56 74.8067 243.321 74.564C243.084 74.2894 242.979 73.9766 243.004 73.6255L243.115 72.0935C242.654 72.7005 242.055 73.2168 241.319 73.6425C240.614 74.0706 239.788 74.3933 238.842 74.6107C237.928 74.8304 236.912 74.8981 235.795 74.8137ZM239.027 68.752C239.825 68.8122 240.522 68.7045 241.12 68.4287C241.751 68.1235 242.268 67.633 242.67 66.9574C243.072 66.2818 243.312 65.4174 243.388 64.3641L243.412 64.029L239.918 64.4388C238.721 64.573 237.867 64.8455 237.356 65.2561C236.847 65.6349 236.574 66.0796 236.537 66.5902C236.509 66.9732 236.596 67.3168 236.799 67.6209C237.001 67.925 237.287 68.1873 237.656 68.4077C238.059 68.5986 238.516 68.7134 239.027 68.752Z" fill="url(#paint28_linear_973_58)"/>
<path d="M276.594 80.7871C274.499 80.1991 272.738 79.3716 271.31 78.3059C269.913 77.2488 268.964 75.9021 268.463 74.2656C268.002 72.607 268.098 70.6232 268.752 68.314L270.857 60.8783L267.207 59.853C266.868 59.7579 266.605 59.5679 266.42 59.2831C266.274 58.9763 266.249 58.6535 266.345 58.3148L267.666 53.6502C267.762 53.3115 267.948 53.0647 268.225 52.9097C268.541 52.7327 268.869 52.6917 269.207 52.7869L272.858 53.8122L275.003 46.238C275.099 45.8993 275.285 45.6525 275.562 45.4975C275.878 45.3204 276.206 45.2795 276.545 45.3746L283.245 47.2565C283.584 47.3517 283.827 47.5527 283.972 47.8596C284.158 48.1443 284.203 48.4561 284.107 48.7947L281.962 56.3689L287.785 58.0042C288.124 58.0994 288.366 58.3004 288.512 58.6073C288.697 58.892 288.742 59.2038 288.646 59.5424L287.325 64.207C287.229 64.5457 287.023 64.8036 286.707 64.9807C286.43 65.1357 286.123 65.1655 285.784 65.0704L279.961 63.4351L278.078 70.0856C277.825 70.9785 277.809 71.7385 278.031 72.3658C278.261 72.9623 278.777 73.373 279.578 73.5979L283.459 74.6881C283.798 74.7833 284.041 74.9843 284.187 75.2912C284.372 75.5759 284.417 75.8877 284.321 76.2263L282.895 81.2601C282.799 81.5991 282.593 81.8571 282.277 82.0341C282.001 82.1891 281.693 82.2191 281.354 82.1241L276.594 80.7871Z" fill="url(#paint29_linear_973_58)"/>
<path d="M291.951 85.9499C291.63 85.8059 291.399 85.5799 291.258 85.2719C291.16 84.9469 291.183 84.6249 291.329 84.3039L300.633 63.8577C300.779 63.5373 301.001 63.3209 301.298 63.2085C301.637 63.0801 301.968 63.0878 302.289 63.2316L308.773 66.1336C309.095 66.2774 309.319 66.5181 309.447 66.8557C309.588 67.1642 309.585 67.4786 309.439 67.799L300.135 88.2459C299.99 88.5659 299.747 88.7909 299.407 88.9189C299.081 89.0179 298.757 88.9959 298.436 88.8519L291.951 85.9499ZM303.669 60.431C303.348 60.2872 303.117 60.0611 302.976 59.7526C302.877 59.4281 302.901 59.1056 303.047 58.7852L305.134 54.1978C305.28 53.8774 305.508 53.6465 305.819 53.505C306.158 53.3766 306.489 53.3842 306.81 53.528L313.119 56.3517C313.44 56.4955 313.665 56.7361 313.793 57.0737C313.92 57.4113 313.911 57.7403 313.765 58.0607L311.678 62.6481C311.532 62.9685 311.289 63.1929 310.95 63.3213C310.623 63.4206 310.299 63.3984 309.978 63.2546L303.669 60.431Z" fill="url(#paint30_linear_973_58)"/>
<path d="M316.748 99.1199C314.416 97.5419 312.677 95.8639 311.534 94.0859C310.416 92.3259 309.888 90.5009 309.95 88.6109C310.03 86.6939 310.662 84.7659 311.848 82.8249C312.203 82.2539 312.609 81.6399 313.063 80.9819C313.518 80.3239 313.95 79.7269 314.359 79.192C315.774 77.3683 317.388 76.1032 319.199 75.3965C321.009 74.6899 322.946 74.5322 325.01 74.9236C327.1 75.3328 329.258 76.2905 331.484 77.7967C333.711 79.3028 335.382 80.9359 336.5 82.6959C337.643 84.4749 338.211 86.3269 338.203 88.2519C338.194 90.1779 337.588 92.1249 336.384 94.0919C336.055 94.6809 335.663 95.3039 335.208 95.9619C334.754 96.6199 334.309 97.2079 333.874 97.7249C332.476 99.5219 330.889 100.805 329.113 101.574C327.355 102.317 325.431 102.483 323.342 102.074C321.278 101.683 319.08 100.698 316.748 99.1199ZM320.596 93.5529C321.576 94.2159 322.452 94.3839 323.224 94.0549C323.995 93.7269 324.807 93.0019 325.661 91.8799C325.96 91.5029 326.347 90.9719 326.82 90.2869C327.293 89.6029 327.652 89.0539 327.899 88.6419C328.628 87.4739 329.007 86.4749 329.036 85.6439C329.084 84.7879 328.617 84.0279 327.636 83.3649C326.682 82.7189 325.81 82.5739 325.021 82.9279C324.25 83.2559 323.433 83.9589 322.571 85.0379C322.272 85.4149 321.886 85.9449 321.413 86.6299C320.94 87.3139 320.58 87.8629 320.333 88.2759C319.612 89.4879 319.237 90.5089 319.208 91.3389C319.179 92.1689 319.642 92.9069 320.596 93.5529Z" fill="url(#paint31_linear_973_58)"/>
<path d="M337.607 112.86C337.37 112.599 337.249 112.3 337.244 111.962C337.285 111.627 337.437 111.342 337.701 111.109L354.512 96.2091C354.775 95.9751 355.066 95.8671 355.384 95.8841C355.748 95.9041 356.049 96.0431 356.286 96.3041L360.969 101.452C361.206 101.712 361.304 102.01 361.263 102.346C361.268 102.684 361.139 102.969 360.875 103.203L359.582 104.349C360.86 104.328 362.214 104.603 363.643 105.175C365.072 105.747 366.379 106.684 367.563 107.986C368.726 109.264 369.482 110.689 369.831 112.261C370.179 113.833 370.046 115.47 369.43 117.17C368.814 118.87 367.596 120.527 365.776 122.14L355.79 130.991C355.527 131.225 355.213 131.332 354.849 131.312C354.509 131.271 354.221 131.121 353.984 130.861L348.88 125.251C348.643 124.99 348.523 124.691 348.518 124.353C348.559 124.018 348.711 123.733 348.974 123.5L358.709 114.872C359.595 114.086 360.084 113.268 360.175 112.418C360.266 111.567 359.957 110.751 359.246 109.97C358.535 109.189 357.736 108.786 356.848 108.761C355.96 108.736 355.073 109.116 354.187 109.901L344.452 118.529C344.189 118.763 343.875 118.87 343.511 118.85C343.193 118.833 342.915 118.694 342.678 118.434L337.607 112.86Z" fill="url(#paint32_linear_973_58)"/>
<path d="M364.008 142.167C363.863 141.882 363.835 141.576 363.92 141.249C364.005 140.922 364.219 140.673 364.563 140.504L392.478 126.783C392.794 126.628 393.111 126.615 393.427 126.745C393.774 126.86 394.018 127.06 394.163 127.346L397.705 134.322C397.865 134.636 397.88 134.949 397.752 135.262C397.667 135.589 397.465 135.83 397.149 135.986L387.414 140.771L391.847 149.502L401.582 144.717C401.898 144.562 402.208 144.534 402.509 144.635C402.855 144.751 403.108 144.965 403.267 145.279L406.809 152.256C406.968 152.569 406.985 152.883 406.856 153.195C406.771 153.522 406.57 153.764 406.254 153.919L378.339 167.639C378.024 167.795 377.693 167.815 377.347 167.699C377.045 167.598 376.814 167.391 376.654 167.077L373.114 160.101C372.954 159.787 372.917 159.466 373.002 159.139C373.131 158.827 373.352 158.593 373.668 158.437L383.662 153.525L379.23 144.794L369.235 149.706C368.919 149.861 368.589 149.881 368.244 149.766C367.941 149.665 367.709 149.458 367.55 149.144L364.008 142.167Z" fill="url(#paint33_linear_973_58)"/>
<path d="M383.708 191.927C383.108 189.175 383.007 186.761 383.405 184.685C383.811 182.639 384.687 180.953 386.035 179.626C387.415 178.293 389.203 177.333 391.4 176.744C392.051 176.576 392.768 176.41 393.551 176.247C394.335 176.084 395.059 175.95 395.723 175.844C398.006 175.499 400.047 175.695 401.845 176.432C403.643 177.169 405.155 178.391 406.378 180.097C407.609 181.834 408.511 184.016 409.084 186.642C409.657 189.269 409.741 191.604 409.336 193.65C408.937 195.727 408.071 197.46 406.736 198.849C405.402 200.238 403.62 201.23 401.392 201.825C400.748 202.024 400.034 202.206 399.251 202.369C398.468 202.532 397.74 202.651 397.069 202.725C394.817 203.063 392.783 202.898 390.967 202.231C389.183 201.556 387.675 200.35 386.444 198.613C385.221 196.907 384.309 194.678 383.708 191.927ZM390.334 190.547C390.586 191.704 391.105 192.429 391.89 192.723C392.674 193.018 393.763 193.052 395.155 192.828C395.632 192.761 396.277 192.643 397.092 192.474C397.906 192.304 398.545 192.155 399.008 192.025C400.342 191.682 401.305 191.22 401.899 190.639C402.524 190.051 402.71 189.179 402.458 188.022C402.212 186.897 401.682 186.19 400.866 185.902C400.081 185.608 399.005 185.555 397.637 185.741C397.16 185.808 396.515 185.926 395.7 186.096C394.886 186.265 394.247 186.415 393.784 186.544C392.426 186.925 391.45 187.406 390.856 187.987C390.263 188.568 390.088 189.421 390.334 190.547Z" fill="url(#paint34_linear_973_58)"/>
<path d="M388.545 224.205C388.599 222.478 389.049 220.909 389.893 219.498C390.737 218.119 391.972 217.042 393.597 216.267C395.222 215.492 397.25 215.148 399.68 215.234L413.016 215.706C413.368 215.718 413.652 215.84 413.869 216.072C414.116 216.337 414.235 216.646 414.224 216.997L413.986 224.578C413.975 224.929 413.838 225.213 413.575 225.428C413.343 225.676 413.051 225.793 412.699 225.781L399.699 225.321C397.237 225.233 395.971 226.293 395.902 228.5C395.868 229.556 396.163 230.383 396.784 230.981C397.405 231.611 398.306 231.947 399.49 231.989L412.49 232.45C412.841 232.462 413.126 232.584 413.343 232.816C413.59 233.081 413.709 233.389 413.698 233.741L413.459 241.321C413.449 241.641 413.312 241.925 413.049 242.171C412.817 242.419 412.525 242.537 412.173 242.525L389.723 241.73C389.371 241.717 389.071 241.579 388.824 241.314C388.608 241.05 388.505 240.758 388.515 240.438L388.735 233.434C388.746 233.082 388.868 232.782 389.1 232.534C389.362 232.319 389.67 232.218 390.022 232.231L391.748 232.292C390.59 231.45 389.745 230.332 389.213 228.936C388.712 227.541 388.49 225.964 388.545 224.205Z" fill="url(#paint35_linear_973_58)"/>
<path d="M384.436 263.301C384.998 261.199 385.694 259.463 386.524 258.094C387.385 256.734 388.284 255.664 389.221 254.886C390.149 254.14 391.027 253.644 391.854 253.4C392.712 253.164 393.424 253.105 393.989 253.221C394.337 253.281 394.591 253.447 394.75 253.721C394.931 254.034 394.984 254.33 394.91 254.608L393.112 261.331C393.103 261.362 393.075 261.405 393.028 261.458C393.011 261.52 392.964 261.574 392.886 261.619C392.654 261.988 392.354 262.306 391.985 262.572C391.607 262.869 391.252 263.205 390.92 263.581C390.579 263.987 390.326 264.499 390.161 265.118C390.02 265.643 390.005 266.135 390.114 266.595C390.245 267.093 390.528 267.4 390.961 267.515C391.332 267.613 391.69 267.576 392.034 267.402C392.371 267.26 392.762 266.85 393.208 266.174C393.684 265.506 394.297 264.394 395.044 262.837C395.759 261.405 396.579 260.132 397.506 259.021C398.455 257.949 399.539 257.177 400.759 256.706C401.969 256.265 403.317 256.242 404.802 256.636C406.07 256.972 407.18 257.714 408.132 258.86C409.084 260.007 409.712 261.498 410.016 263.333C410.343 265.207 410.184 267.35 409.539 269.761C409.051 271.585 408.405 273.135 407.6 274.412C406.786 275.719 405.927 276.765 405.021 277.551C404.107 278.368 403.212 278.925 402.338 279.223C401.455 279.552 400.715 279.654 400.12 279.529C399.771 279.469 399.502 279.299 399.312 279.017C399.154 278.743 399.112 278.467 399.186 278.189L400.811 272.114C400.836 272.021 400.865 271.913 400.898 271.789C400.953 271.705 401.02 271.64 401.099 271.595C401.307 271.186 401.585 270.83 401.932 270.524C402.301 270.258 402.648 269.953 402.972 269.608C403.327 269.272 403.587 268.795 403.752 268.177C403.893 267.651 403.885 267.185 403.728 266.78C403.564 266.405 403.28 266.164 402.878 266.058C402.538 265.967 402.2 265.994 401.863 266.136C401.527 266.279 401.132 266.703 400.678 267.411C400.223 268.118 399.634 269.269 398.909 270.865C397.99 272.938 396.955 274.518 395.803 275.603C394.683 276.696 393.522 277.381 392.322 277.659C391.121 277.936 389.995 277.936 388.944 277.657C387.366 277.238 386.118 276.394 385.199 275.124C384.272 273.885 383.731 272.251 383.578 270.224C383.447 268.236 383.733 265.929 384.436 263.301Z" fill="url(#paint36_linear_973_58)"/>
<path d="M372.972 295.334C374.827 291.79 377.215 289.437 380.135 288.276C383.068 287.158 386.442 287.543 390.257 289.432C390.371 289.491 390.513 289.564 390.684 289.652C390.883 289.754 391.026 289.828 391.111 289.871C393.428 291.171 395.153 292.705 396.286 294.475C397.432 296.287 397.986 298.264 397.949 300.403C397.898 302.572 397.263 304.818 396.046 307.143C394.68 309.751 393.026 311.635 391.082 312.794C389.152 313.997 387.096 314.577 384.915 314.535C382.762 314.507 380.618 313.945 378.484 312.848L377.289 312.233C377.004 312.087 376.807 311.842 376.698 311.498C376.589 311.154 376.617 310.826 376.78 310.514L383.638 297.417C383.638 297.417 383.61 297.403 383.553 297.373C383.496 297.344 383.439 297.315 383.382 297.286C382.699 296.934 382.042 296.705 381.413 296.597C380.796 296.532 380.228 296.617 379.707 296.853C379.215 297.104 378.82 297.513 378.523 298.08C378.33 298.448 378.224 298.789 378.204 299.103C378.184 299.417 378.215 299.702 378.297 299.96C378.392 300.261 378.488 300.526 378.585 300.756C378.707 301.143 378.752 301.436 378.72 301.635C378.717 301.849 378.626 302.126 378.448 302.466L374.952 309.143C374.818 309.398 374.621 309.566 374.362 309.649C374.087 309.759 373.829 309.735 373.588 309.575C373.09 309.283 372.59 308.72 372.088 307.886C371.614 307.067 371.273 306.028 371.065 304.77C370.842 303.54 370.867 302.113 371.139 300.49C371.411 298.867 372.022 297.148 372.972 295.334ZM388.419 299.875L385.658 305.148L385.743 305.192C386.512 305.587 387.218 305.824 387.863 305.904C388.508 305.984 389.062 305.891 389.526 305.626C390.018 305.375 390.413 304.966 390.71 304.399C391.007 303.832 391.117 303.277 391.04 302.734C390.992 302.205 390.749 301.703 390.312 301.226C389.875 300.75 389.273 300.314 388.504 299.919L388.419 299.875Z" fill="url(#paint37_linear_973_58)"/>
</g>
</g>
<path d="M504.172 282C503.212 282 502.348 281.664 501.58 280.992C500.812 280.224 500.428 279.312 500.428 278.256V184.944C500.428 183.888 500.812 183.024 501.58 182.352C502.348 181.584 503.212 181.2 504.172 181.2H546.22C554.572 181.2 561.82 182.448 567.964 184.944C574.204 187.44 579.052 191.232 582.508 196.32C585.964 201.408 587.692 207.792 587.692 215.472C587.692 223.152 585.964 229.488 582.508 234.48C579.052 239.376 574.204 242.976 567.964 245.28C561.82 247.584 554.572 248.736 546.22 248.736H532.54V278.256C532.54 279.312 532.156 280.224 531.388 280.992C530.716 281.664 529.852 282 528.796 282H504.172ZM531.964 225.552H545.5C548.284 225.552 550.636 224.736 552.556 223.104C554.572 221.376 555.58 218.736 555.58 215.184C555.58 212.496 554.812 210.048 553.276 207.84C551.74 205.632 549.148 204.528 545.5 204.528H531.964V225.552ZM602.295 282C601.239 282 600.327 281.664 599.559 280.992C598.887 280.224 598.551 279.312 598.551 278.256V210.864C598.551 209.808 598.887 208.944 599.559 208.272C600.327 207.504 601.239 207.12 602.295 207.12H623.175C624.231 207.12 625.095 207.504 625.767 208.272C626.535 208.944 626.919 209.808 626.919 210.864V216.192C629.799 213.408 633.063 211.2 636.711 209.568C640.455 207.936 644.535 207.12 648.951 207.12H655.431C656.487 207.12 657.399 207.504 658.167 208.272C658.935 208.944 659.319 209.808 659.319 210.864V229.44C659.319 230.496 658.935 231.408 658.167 232.176C657.399 232.944 656.487 233.328 655.431 233.328H639.303C635.847 233.328 633.207 234.24 631.383 236.064C629.559 237.792 628.647 240.384 628.647 243.84V278.256C628.647 279.312 628.263 280.224 627.495 280.992C626.823 281.664 625.959 282 624.903 282H602.295ZM705.885 283.44C697.437 283.44 690.285 282.192 684.429 279.696C678.669 277.2 674.253 273.552 671.181 268.752C668.109 263.856 666.381 258 665.997 251.184C665.901 249.168 665.853 246.96 665.853 244.56C665.853 242.16 665.901 239.952 665.997 237.936C666.381 231.024 668.205 225.168 671.469 220.368C674.733 215.568 679.245 211.92 685.005 209.424C690.861 206.928 697.821 205.68 705.885 205.68C713.949 205.68 720.861 206.928 726.621 209.424C732.477 211.92 737.037 215.568 740.301 220.368C743.565 225.168 745.389 231.024 745.773 237.936C745.965 239.952 746.061 242.16 746.061 244.56C746.061 246.96 745.965 249.168 745.773 251.184C745.389 258 743.661 263.856 740.589 268.752C737.517 273.552 733.053 277.2 727.197 279.696C721.437 282.192 714.333 283.44 705.885 283.44ZM705.885 263.136C709.437 263.136 711.885 262.08 713.229 259.968C714.573 257.856 715.341 254.688 715.533 250.464C715.629 249.024 715.677 247.056 715.677 244.56C715.677 242.064 715.629 240.096 715.533 238.656C715.341 234.528 714.573 231.408 713.229 229.296C711.885 227.088 709.437 225.984 705.885 225.984C702.429 225.984 700.029 227.088 698.685 229.296C697.341 231.408 696.525 234.528 696.237 238.656C696.141 240.096 696.093 242.064 696.093 244.56C696.093 247.056 696.141 249.024 696.237 250.464C696.525 254.688 697.341 257.856 698.685 259.968C700.029 262.08 702.429 263.136 705.885 263.136ZM763.625 282C762.665 282 761.801 281.664 761.033 280.992C760.265 280.224 759.881 279.312 759.881 278.256V184.944C759.881 183.888 760.265 183.024 761.033 182.352C761.801 181.584 762.665 181.2 763.625 181.2H788.105C789.161 181.2 790.025 181.584 790.697 182.352C791.465 183.024 791.849 183.888 791.849 184.944V278.256C791.849 279.312 791.465 280.224 790.697 280.992C790.025 281.664 789.161 282 788.105 282H763.625ZM811.966 282C810.91 282 809.998 281.664 809.23 280.992C808.558 280.224 808.222 279.312 808.222 278.256V210.864C808.222 209.808 808.558 208.944 809.23 208.272C809.998 207.504 810.91 207.12 811.966 207.12H831.694C832.75 207.12 833.614 207.504 834.286 208.272C835.054 208.944 835.438 209.808 835.438 210.864V215.616C837.262 213.312 839.902 211.152 843.358 209.136C846.814 207.024 850.894 205.872 855.598 205.68C866.83 205.392 874.414 209.424 878.35 217.776C880.558 214.32 883.678 211.44 887.71 209.136C891.838 206.832 896.206 205.68 900.814 205.68C905.806 205.68 910.27 206.832 914.206 209.136C918.238 211.344 921.454 214.8 923.854 219.504C926.254 224.112 927.454 230.16 927.454 237.648V278.256C927.454 279.312 927.07 280.224 926.302 280.992C925.63 281.664 924.766 282 923.71 282H902.686C901.63 282 900.718 281.664 899.95 280.992C899.278 280.224 898.942 279.312 898.942 278.256V238.512C898.942 236.016 898.558 234.048 897.79 232.608C897.022 231.072 896.014 229.968 894.766 229.296C893.614 228.528 892.222 228.144 890.59 228.144C889.054 228.144 887.662 228.528 886.414 229.296C885.166 229.968 884.158 231.072 883.39 232.608C882.718 234.048 882.382 236.016 882.382 238.512V278.256C882.382 279.312 881.998 280.224 881.23 280.992C880.558 281.664 879.694 282 878.638 282H857.614C856.558 282 855.646 281.664 854.878 280.992C854.206 280.224 853.87 279.312 853.87 278.256V238.512C853.87 236.016 853.486 234.048 852.718 232.608C851.95 231.072 850.942 229.968 849.694 229.296C848.542 228.528 847.15 228.144 845.518 228.144C843.982 228.144 842.59 228.528 841.342 229.296C840.094 230.064 839.086 231.168 838.318 232.608C837.55 234.048 837.166 236.016 837.166 238.512V278.256C837.166 279.312 836.782 280.224 836.014 280.992C835.342 281.664 834.478 282 833.422 282H811.966ZM945.42 282C944.364 282 943.452 281.664 942.684 280.992C942.012 280.224 941.676 279.312 941.676 278.256V210.864C941.676 209.808 942.012 208.944 942.684 208.272C943.452 207.504 944.364 207.12 945.42 207.12H965.148C966.204 207.12 967.068 207.504 967.74 208.272C968.508 208.944 968.892 209.808 968.892 210.864V215.616C970.716 213.312 973.356 211.152 976.812 209.136C980.268 207.024 984.348 205.872 989.052 205.68C1000.28 205.392 1007.87 209.424 1011.8 217.776C1014.01 214.32 1017.13 211.44 1021.16 209.136C1025.29 206.832 1029.66 205.68 1034.27 205.68C1039.26 205.68 1043.72 206.832 1047.66 209.136C1051.69 211.344 1054.91 214.8 1057.31 219.504C1059.71 224.112 1060.91 230.16 1060.91 237.648V278.256C1060.91 279.312 1060.52 280.224 1059.76 280.992C1059.08 281.664 1058.22 282 1057.16 282H1036.14C1035.08 282 1034.17 281.664 1033.4 280.992C1032.73 280.224 1032.4 279.312 1032.4 278.256V238.512C1032.4 236.016 1032.01 234.048 1031.24 232.608C1030.48 231.072 1029.47 229.968 1028.22 229.296C1027.07 228.528 1025.68 228.144 1024.04 228.144C1022.51 228.144 1021.12 228.528 1019.87 229.296C1018.62 229.968 1017.61 231.072 1016.84 232.608C1016.17 234.048 1015.84 236.016 1015.84 238.512V278.256C1015.84 279.312 1015.45 280.224 1014.68 280.992C1014.01 281.664 1013.15 282 1012.09 282H991.068C990.012 282 989.1 281.664 988.332 280.992C987.66 280.224 987.324 279.312 987.324 278.256V238.512C987.324 236.016 986.94 234.048 986.172 232.608C985.404 231.072 984.396 229.968 983.148 229.296C981.996 228.528 980.604 228.144 978.972 228.144C977.436 228.144 976.044 228.528 974.796 229.296C973.548 230.064 972.54 231.168 971.772 232.608C971.004 234.048 970.62 236.016 970.62 238.512V278.256C970.62 279.312 970.236 280.224 969.468 280.992C968.796 281.664 967.932 282 966.876 282H945.42ZM1078.87 282C1077.82 282 1076.9 281.664 1076.14 280.992C1075.46 280.224 1075.13 279.312 1075.13 278.256V210.864C1075.13 209.808 1075.46 208.944 1076.14 208.272C1076.9 207.504 1077.82 207.12 1078.87 207.12H1100.18C1101.24 207.12 1102.15 207.504 1102.92 208.272C1103.69 208.944 1104.07 209.808 1104.07 210.864V278.256C1104.07 279.312 1103.69 280.224 1102.92 280.992C1102.15 281.664 1101.24 282 1100.18 282H1078.87ZM1079.16 197.76C1078.1 197.76 1077.19 197.424 1076.42 196.752C1075.75 195.984 1075.42 195.072 1075.42 194.016V178.896C1075.42 177.84 1075.75 176.928 1076.42 176.16C1077.19 175.392 1078.1 175.008 1079.16 175.008H1099.9C1100.95 175.008 1101.86 175.392 1102.63 176.16C1103.4 176.928 1103.78 177.84 1103.78 178.896V194.016C1103.78 195.072 1103.4 195.984 1102.63 196.752C1101.86 197.424 1100.95 197.76 1099.9 197.76H1079.16ZM1158.32 313.68C1150.54 313.68 1144.06 312.672 1138.88 310.656C1133.79 308.736 1129.71 306.336 1126.64 303.456C1123.57 300.672 1121.36 297.888 1120.02 295.104C1118.77 292.416 1118.1 290.304 1118 288.768C1117.9 287.712 1118.24 286.8 1119.01 286.032C1119.78 285.36 1120.69 285.024 1121.74 285.024H1144.93C1145.89 285.024 1146.66 285.264 1147.23 285.744C1147.9 286.224 1148.43 286.944 1148.82 287.904C1149.3 288.768 1149.82 289.632 1150.4 290.496C1151.07 291.36 1151.98 292.032 1153.14 292.512C1154.29 292.992 1155.78 293.232 1157.6 293.232C1159.81 293.232 1161.58 292.848 1162.93 292.08C1164.37 291.312 1165.42 290.112 1166.1 288.48C1166.86 286.848 1167.25 284.688 1167.25 282V272.352C1164.94 274.56 1162.11 276.336 1158.75 277.68C1155.49 278.928 1151.6 279.552 1147.09 279.552C1142.38 279.552 1138.16 278.928 1134.42 277.68C1130.77 276.336 1127.65 274.32 1125.06 271.632C1122.56 268.944 1120.54 265.536 1119.01 261.408C1117.57 257.28 1116.75 252.336 1116.56 246.576C1116.46 244.08 1116.46 241.584 1116.56 239.088C1116.75 233.712 1117.57 228.96 1119.01 224.832C1120.45 220.608 1122.46 217.104 1125.06 214.32C1127.65 211.536 1130.77 209.424 1134.42 207.984C1138.16 206.448 1142.38 205.68 1147.09 205.68C1151.98 205.68 1156.26 206.64 1159.9 208.56C1163.65 210.384 1166.67 212.784 1168.98 215.76V210.864C1168.98 209.808 1169.31 208.944 1169.98 208.272C1170.75 207.504 1171.66 207.12 1172.72 207.12H1193.6C1194.66 207.12 1195.52 207.504 1196.19 208.272C1196.96 208.944 1197.34 209.808 1197.34 210.864L1197.49 279.696C1197.49 287.472 1195.81 293.856 1192.45 298.848C1189.18 303.84 1184.62 307.536 1178.77 309.936C1172.91 312.432 1166.1 313.68 1158.32 313.68ZM1157.02 257.664C1159.33 257.664 1161.2 257.184 1162.64 256.224C1164.08 255.264 1165.14 254.016 1165.81 252.48C1166.58 250.848 1167.06 249.024 1167.25 247.008C1167.34 246.144 1167.39 244.752 1167.39 242.832C1167.39 240.912 1167.34 239.568 1167.25 238.8C1167.06 236.784 1166.58 235.008 1165.81 233.472C1165.14 231.84 1164.08 230.544 1162.64 229.584C1161.2 228.624 1159.33 228.144 1157.02 228.144C1154.53 228.144 1152.56 228.672 1151.12 229.728C1149.68 230.688 1148.62 232.08 1147.95 233.904C1147.38 235.632 1146.99 237.648 1146.8 239.952C1146.61 241.968 1146.61 243.936 1146.8 245.856C1146.99 248.16 1147.38 250.224 1147.95 252.048C1148.62 253.776 1149.68 255.168 1151.12 256.224C1152.56 257.184 1154.53 257.664 1157.02 257.664ZM1216.26 282C1215.21 282 1214.3 281.664 1213.53 280.992C1212.86 280.224 1212.52 279.312 1212.52 278.256V210.864C1212.52 209.808 1212.86 208.944 1213.53 208.272C1214.3 207.504 1215.21 207.12 1216.26 207.12H1237.14C1238.2 207.12 1239.06 207.504 1239.74 208.272C1240.5 208.944 1240.89 209.808 1240.89 210.864V216.192C1243.77 213.408 1247.03 211.2 1250.68 209.568C1254.42 207.936 1258.5 207.12 1262.92 207.12H1269.4C1270.46 207.12 1271.37 207.504 1272.14 208.272C1272.9 208.944 1273.29 209.808 1273.29 210.864V229.44C1273.29 230.496 1272.9 231.408 1272.14 232.176C1271.37 232.944 1270.46 233.328 1269.4 233.328H1253.27C1249.82 233.328 1247.18 234.24 1245.35 236.064C1243.53 237.792 1242.62 240.384 1242.62 243.84V278.256C1242.62 279.312 1242.23 280.224 1241.46 280.992C1240.79 281.664 1239.93 282 1238.87 282H1216.26ZM1304.47 283.44C1299.19 283.44 1294.44 282.432 1290.21 280.416C1286.08 278.4 1282.82 275.712 1280.42 272.352C1278.12 268.896 1276.96 265.056 1276.96 260.832C1276.96 253.92 1279.75 248.496 1285.32 244.56C1290.98 240.528 1298.52 237.744 1307.92 236.208L1324.48 233.616V232.608C1324.48 229.632 1324 227.424 1323.04 225.984C1322.18 224.448 1320.31 223.68 1317.43 223.68C1315.41 223.68 1313.78 224.064 1312.53 224.832C1311.28 225.6 1310.13 226.704 1309.08 228.144C1308.12 229.2 1306.87 229.728 1305.33 229.728H1285.03C1283.97 229.728 1283.16 229.44 1282.58 228.864C1282 228.288 1281.76 227.52 1281.86 226.56C1281.96 224.832 1282.68 222.816 1284.02 220.512C1285.36 218.112 1287.43 215.808 1290.21 213.6C1293.09 211.296 1296.79 209.424 1301.3 207.984C1305.81 206.448 1311.24 205.68 1317.57 205.68C1324 205.68 1329.52 206.4 1334.13 207.84C1338.74 209.28 1342.53 211.296 1345.51 213.888C1348.48 216.48 1350.69 219.648 1352.13 223.392C1353.57 227.04 1354.29 231.12 1354.29 235.632V278.256C1354.29 279.312 1353.91 280.224 1353.14 280.992C1352.47 281.664 1351.6 282 1350.55 282H1329.52C1328.56 282 1327.7 281.664 1326.93 280.992C1326.16 280.224 1325.78 279.312 1325.78 278.256V273.648C1324.53 275.568 1322.85 277.248 1320.74 278.688C1318.72 280.128 1316.32 281.28 1313.54 282.144C1310.85 283.008 1307.83 283.44 1304.47 283.44ZM1312.82 264.576C1315.22 264.576 1317.28 264.096 1319.01 263.136C1320.84 262.08 1322.28 260.496 1323.33 258.384C1324.39 256.272 1324.92 253.632 1324.92 250.464V249.456L1314.55 251.472C1311 252.144 1308.5 253.152 1307.06 254.496C1305.62 255.744 1304.9 257.136 1304.9 258.672C1304.9 259.824 1305.24 260.832 1305.91 261.696C1306.58 262.56 1307.49 263.28 1308.64 263.856C1309.89 264.336 1311.28 264.576 1312.82 264.576ZM1410.39 282C1403.86 282 1398.1 281.04 1393.11 279.12C1388.21 277.2 1384.37 274.08 1381.59 269.76C1378.9 265.344 1377.55 259.536 1377.55 252.336V229.152H1366.18C1365.12 229.152 1364.21 228.816 1363.44 228.144C1362.77 227.376 1362.43 226.464 1362.43 225.408V210.864C1362.43 209.808 1362.77 208.944 1363.44 208.272C1364.21 207.504 1365.12 207.12 1366.18 207.12H1377.55V183.504C1377.55 182.448 1377.89 181.584 1378.56 180.912C1379.33 180.144 1380.24 179.76 1381.3 179.76H1402.18C1403.23 179.76 1404.1 180.144 1404.77 180.912C1405.54 181.584 1405.92 182.448 1405.92 183.504V207.12H1424.07C1425.12 207.12 1425.99 207.504 1426.66 208.272C1427.43 208.944 1427.81 209.808 1427.81 210.864V225.408C1427.81 226.464 1427.43 227.376 1426.66 228.144C1425.99 228.816 1425.12 229.152 1424.07 229.152H1405.92V249.888C1405.92 252.672 1406.5 254.88 1407.65 256.512C1408.8 258.048 1410.63 258.816 1413.12 258.816H1425.22C1426.27 258.816 1427.14 259.2 1427.81 259.968C1428.58 260.64 1428.96 261.504 1428.96 262.56V278.256C1428.96 279.312 1428.58 280.224 1427.81 280.992C1427.14 281.664 1426.27 282 1425.22 282H1410.39ZM1443.79 282C1442.74 282 1441.83 281.664 1441.06 280.992C1440.39 280.224 1440.05 279.312 1440.05 278.256V210.864C1440.05 209.808 1440.39 208.944 1441.06 208.272C1441.83 207.504 1442.74 207.12 1443.79 207.12H1465.11C1466.16 207.12 1467.07 207.504 1467.84 208.272C1468.61 208.944 1468.99 209.808 1468.99 210.864V278.256C1468.99 279.312 1468.61 280.224 1467.84 280.992C1467.07 281.664 1466.16 282 1465.11 282H1443.79ZM1444.08 197.76C1443.03 197.76 1442.11 197.424 1441.35 196.752C1440.67 195.984 1440.34 195.072 1440.34 194.016V178.896C1440.34 177.84 1440.67 176.928 1441.35 176.16C1442.11 175.392 1443.03 175.008 1444.08 175.008H1464.82C1465.87 175.008 1466.79 175.392 1467.55 176.16C1468.32 176.928 1468.71 177.84 1468.71 178.896V194.016C1468.71 195.072 1468.32 195.984 1467.55 196.752C1466.79 197.424 1465.87 197.76 1464.82 197.76H1444.08ZM1522.35 283.44C1513.91 283.44 1506.75 282.192 1500.9 279.696C1495.14 277.2 1490.72 273.552 1487.65 268.752C1484.58 263.856 1482.85 258 1482.47 251.184C1482.37 249.168 1482.32 246.96 1482.32 244.56C1482.32 242.16 1482.37 239.952 1482.47 237.936C1482.85 231.024 1484.67 225.168 1487.94 220.368C1491.2 215.568 1495.71 211.92 1501.47 209.424C1507.33 206.928 1514.29 205.68 1522.35 205.68C1530.42 205.68 1537.33 206.928 1543.09 209.424C1548.95 211.92 1553.51 215.568 1556.77 220.368C1560.03 225.168 1561.86 231.024 1562.24 237.936C1562.43 239.952 1562.53 242.16 1562.53 244.56C1562.53 246.96 1562.43 249.168 1562.24 251.184C1561.86 258 1560.13 263.856 1557.06 268.752C1553.99 273.552 1549.52 277.2 1543.67 279.696C1537.91 282.192 1530.8 283.44 1522.35 283.44ZM1522.35 263.136C1525.91 263.136 1528.35 262.08 1529.7 259.968C1531.04 257.856 1531.81 254.688 1532 250.464C1532.1 249.024 1532.15 247.056 1532.15 244.56C1532.15 242.064 1532.1 240.096 1532 238.656C1531.81 234.528 1531.04 231.408 1529.7 229.296C1528.35 227.088 1525.91 225.984 1522.35 225.984C1518.9 225.984 1516.5 227.088 1515.15 229.296C1513.81 231.408 1512.99 234.528 1512.71 238.656C1512.61 240.096 1512.56 242.064 1512.56 244.56C1512.56 247.056 1512.61 249.024 1512.71 250.464C1512.99 254.688 1513.81 257.856 1515.15 259.968C1516.5 262.08 1518.9 263.136 1522.35 263.136ZM1578.65 282C1577.6 282 1576.69 281.664 1575.92 280.992C1575.25 280.224 1574.91 279.312 1574.91 278.256V210.864C1574.91 209.808 1575.25 208.944 1575.92 208.272C1576.69 207.504 1577.6 207.12 1578.65 207.12H1599.53C1600.59 207.12 1601.45 207.504 1602.13 208.272C1602.89 208.944 1603.28 209.808 1603.28 210.864V216.048C1605.77 213.168 1609.09 210.72 1613.21 208.704C1617.34 206.688 1622.05 205.68 1627.33 205.68C1632.51 205.68 1637.21 206.88 1641.44 209.28C1645.66 211.68 1649.07 215.28 1651.66 220.08C1654.25 224.88 1655.55 230.928 1655.55 238.224V278.256C1655.55 279.312 1655.17 280.224 1654.4 280.992C1653.63 281.664 1652.72 282 1651.66 282H1628.91C1627.85 282 1626.94 281.664 1626.17 280.992C1625.5 280.224 1625.17 279.312 1625.17 278.256V239.232C1625.17 235.68 1624.3 232.944 1622.57 231.024C1620.85 229.104 1618.4 228.144 1615.23 228.144C1612.06 228.144 1609.57 229.104 1607.74 231.024C1605.92 232.944 1605.01 235.68 1605.01 239.232V278.256C1605.01 279.312 1604.62 280.224 1603.85 280.992C1603.18 281.664 1602.32 282 1601.26 282H1578.65ZM1674.88 282C1673.92 282 1673.05 281.664 1672.28 280.992C1671.52 280.32 1671.13 279.408 1671.13 278.256V184.944C1671.13 183.888 1671.52 183.024 1672.28 182.352C1673.05 181.584 1673.92 181.2 1674.88 181.2H1698.35C1699.4 181.2 1700.27 181.584 1700.94 182.352C1701.71 183.024 1702.09 183.888 1702.09 184.944V217.488H1731.47V184.944C1731.47 183.888 1731.8 183.024 1732.48 182.352C1733.24 181.584 1734.16 181.2 1735.21 181.2H1758.68C1759.74 181.2 1760.6 181.584 1761.28 182.352C1762.04 183.024 1762.43 183.888 1762.43 184.944V278.256C1762.43 279.312 1762.04 280.224 1761.28 280.992C1760.6 281.664 1759.74 282 1758.68 282H1735.21C1734.16 282 1733.24 281.664 1732.48 280.992C1731.8 280.224 1731.47 279.312 1731.47 278.256V244.848H1702.09V278.256C1702.09 279.312 1701.71 280.224 1700.94 280.992C1700.27 281.664 1699.4 282 1698.35 282H1674.88ZM1816.54 283.44C1808.09 283.44 1800.94 282.192 1795.08 279.696C1789.32 277.2 1784.91 273.552 1781.84 268.752C1778.76 263.856 1777.04 258 1776.65 251.184C1776.56 249.168 1776.51 246.96 1776.51 244.56C1776.51 242.16 1776.56 239.952 1776.65 237.936C1777.04 231.024 1778.86 225.168 1782.12 220.368C1785.39 215.568 1789.9 211.92 1795.66 209.424C1801.52 206.928 1808.48 205.68 1816.54 205.68C1824.6 205.68 1831.52 206.928 1837.28 209.424C1843.13 211.92 1847.69 215.568 1850.96 220.368C1854.22 225.168 1856.04 231.024 1856.43 237.936C1856.62 239.952 1856.72 242.16 1856.72 244.56C1856.72 246.96 1856.62 249.168 1856.43 251.184C1856.04 258 1854.32 263.856 1851.24 268.752C1848.17 273.552 1843.71 277.2 1837.85 279.696C1832.09 282.192 1824.99 283.44 1816.54 283.44ZM1816.54 263.136C1820.09 263.136 1822.54 262.08 1823.88 259.968C1825.23 257.856 1826 254.688 1826.19 250.464C1826.28 249.024 1826.33 247.056 1826.33 244.56C1826.33 242.064 1826.28 240.096 1826.19 238.656C1826 234.528 1825.23 231.408 1823.88 229.296C1822.54 227.088 1820.09 225.984 1816.54 225.984C1813.08 225.984 1810.68 227.088 1809.34 229.296C1808 231.408 1807.18 234.528 1806.89 238.656C1806.8 240.096 1806.75 242.064 1806.75 244.56C1806.75 247.056 1806.8 249.024 1806.89 250.464C1807.18 254.688 1808 257.856 1809.34 259.968C1810.68 262.08 1813.08 263.136 1816.54 263.136ZM1896.46 283.44C1891.27 283.44 1886.52 282.24 1882.2 279.84C1877.98 277.44 1874.62 273.84 1872.12 269.04C1869.63 264.24 1868.38 258.192 1868.38 250.896V210.864C1868.38 209.808 1868.71 208.944 1869.39 208.272C1870.15 207.504 1871.07 207.12 1872.12 207.12H1894.87C1895.93 207.12 1896.79 207.504 1897.47 208.272C1898.23 208.944 1898.62 209.808 1898.62 210.864V249.888C1898.62 257.28 1901.93 260.976 1908.55 260.976C1911.72 260.976 1914.17 260.016 1915.9 258.096C1917.72 256.176 1918.63 253.44 1918.63 249.888V210.864C1918.63 209.808 1918.97 208.944 1919.64 208.272C1920.41 207.504 1921.32 207.12 1922.38 207.12H1945.13C1946.09 207.12 1946.95 207.504 1947.72 208.272C1948.49 208.944 1948.87 209.808 1948.87 210.864V278.256C1948.87 279.312 1948.49 280.224 1947.72 280.992C1946.95 281.664 1946.09 282 1945.13 282H1924.11C1923.05 282 1922.14 281.664 1921.37 280.992C1920.7 280.224 1920.36 279.312 1920.36 278.256V273.072C1917.96 276.624 1914.7 279.264 1910.57 280.992C1906.44 282.624 1901.74 283.44 1896.46 283.44ZM1996.71 283.44C1990.19 283.44 1984.62 282.768 1980.01 281.424C1975.4 279.984 1971.61 278.208 1968.63 276.096C1965.75 273.984 1963.64 271.824 1962.3 269.616C1960.95 267.312 1960.23 265.296 1960.14 263.568C1960.04 262.512 1960.33 261.648 1961 260.976C1961.77 260.208 1962.59 259.824 1963.45 259.824H1984.33C1984.43 259.824 1984.57 259.872 1984.76 259.968C1984.95 259.968 1985.15 260.064 1985.34 260.256C1986.59 260.64 1987.74 261.264 1988.79 262.128C1989.95 262.992 1991.19 263.76 1992.54 264.432C1993.98 265.104 1995.66 265.44 1997.58 265.44C1999.21 265.44 2000.65 265.104 2001.9 264.432C2003.24 263.664 2003.91 262.608 2003.91 261.264C2003.91 260.112 2003.53 259.104 2002.76 258.24C2002.09 257.376 2000.6 256.56 1998.3 255.792C1995.99 254.928 1992.3 254.016 1987.21 253.056C1982.51 252.096 1978.19 250.704 1974.25 248.88C1970.41 246.96 1967.34 244.416 1965.03 241.248C1962.83 238.08 1961.72 234.192 1961.72 229.584C1961.72 225.648 1963.02 221.856 1965.61 218.208C1968.2 214.56 1972.04 211.584 1977.13 209.28C1982.31 206.88 1988.65 205.68 1996.14 205.68C2001.8 205.68 2006.79 206.352 2011.11 207.696C2015.53 209.04 2019.23 210.72 2022.2 212.736C2025.27 214.752 2027.58 216.912 2029.11 219.216C2030.75 221.52 2031.61 223.584 2031.71 225.408C2031.8 226.464 2031.51 227.376 2030.84 228.144C2030.17 228.816 2029.4 229.152 2028.54 229.152H2009.67C2009.39 229.152 2009.05 229.152 2008.67 229.152C2008.38 229.056 2008.14 228.912 2007.95 228.72C2006.6 228.432 2005.35 227.904 2004.2 227.136C2003.15 226.272 2001.99 225.504 2000.75 224.832C1999.5 224.064 1997.91 223.68 1995.99 223.68C1994.36 223.68 1993.02 224.064 1991.96 224.832C1991 225.6 1990.52 226.608 1990.52 227.856C1990.52 228.912 1990.86 229.872 1991.53 230.736C1992.2 231.6 1993.74 232.416 1996.14 233.184C1998.54 233.952 2002.33 234.768 2007.51 235.632C2014.23 236.688 2019.61 238.464 2023.64 240.96C2027.67 243.36 2030.55 246.192 2032.28 249.456C2034.01 252.72 2034.87 255.984 2034.87 259.248C2034.87 264.144 2033.39 268.416 2030.41 272.064C2027.53 275.712 2023.21 278.544 2017.45 280.56C2011.79 282.48 2004.87 283.44 1996.71 283.44ZM2082.86 283.44C2070.86 283.44 2061.31 280.368 2054.21 274.224C2047.2 267.984 2043.6 258.48 2043.41 245.712C2043.41 245.328 2043.41 244.848 2043.41 244.272C2043.41 243.6 2043.41 243.12 2043.41 242.832C2043.7 234.864 2045.42 228.144 2048.59 222.672C2051.86 217.104 2056.37 212.88 2062.13 210C2067.98 207.12 2074.85 205.68 2082.72 205.68C2091.55 205.68 2098.85 207.456 2104.61 211.008C2110.46 214.464 2114.83 219.12 2117.71 224.976C2120.59 230.736 2122.03 237.216 2122.03 244.416V248.448C2122.03 249.408 2121.65 250.272 2120.88 251.04C2120.11 251.808 2119.2 252.192 2118.14 252.192H2073.79C2073.79 252.192 2073.79 252.288 2073.79 252.48C2073.79 252.672 2073.79 252.864 2073.79 253.056C2073.79 255.36 2074.08 257.424 2074.66 259.248C2075.33 260.976 2076.34 262.368 2077.68 263.424C2079.02 264.384 2080.66 264.864 2082.58 264.864C2083.82 264.864 2084.88 264.672 2085.74 264.288C2086.61 263.904 2087.33 263.424 2087.9 262.848C2088.58 262.176 2089.15 261.552 2089.63 260.976C2090.5 260.112 2091.22 259.584 2091.79 259.392C2092.37 259.104 2093.23 258.96 2094.38 258.96H2116.99C2117.86 258.96 2118.58 259.248 2119.15 259.824C2119.82 260.4 2120.11 261.12 2120.02 261.984C2119.92 263.712 2119.1 265.824 2117.57 268.32C2116.03 270.72 2113.73 273.072 2110.66 275.376C2107.68 277.68 2103.84 279.6 2099.14 281.136C2094.43 282.672 2089.01 283.44 2082.86 283.44ZM2073.79 236.064H2091.65V235.776C2091.65 233.184 2091.31 230.976 2090.64 229.152C2089.97 227.328 2088.96 225.984 2087.62 225.12C2086.27 224.16 2084.64 223.68 2082.72 223.68C2080.8 223.68 2079.17 224.16 2077.82 225.12C2076.48 225.984 2075.47 227.328 2074.8 229.152C2074.13 230.976 2073.79 233.184 2073.79 235.776V236.064Z" fill="url(#paint38_linear_973_58)"/>
<path d="M300.09 178.35C300.819 179.062 301.753 179.416 302.686 179.416C303.678 179.416 304.667 179.017 305.405 178.225C306.84 176.688 306.786 174.25 305.285 172.78L297.423 165.086C295.921 163.617 293.541 163.672 292.107 165.211C290.674 166.748 290.728 169.186 292.229 170.656L300.09 178.35Z" fill="url(#paint39_linear_973_58)"/>
<path d="M228.159 278.618L224.857 281.71C223.325 283.145 223.219 285.58 224.619 287.151C225.361 287.981 226.376 288.403 227.395 288.403C228.301 288.403 229.209 288.07 229.931 287.394L233.232 284.302C234.765 282.867 234.871 280.432 233.471 278.861C232.069 277.292 229.693 277.183 228.159 278.618Z" fill="url(#paint40_linear_973_58)"/>
<path d="M254.692 253.773L238.046 269.361C236.513 270.796 236.406 273.231 237.807 274.801C238.549 275.632 239.564 276.054 240.583 276.054C241.488 276.054 242.397 275.721 243.118 275.045L259.764 259.458C261.297 258.022 261.403 255.587 260.002 254.018C258.601 252.447 256.224 252.339 254.692 253.773Z" fill="url(#paint41_linear_973_58)"/>
<path d="M190.073 241.876L203.271 228.308C204.736 226.801 204.732 224.363 203.261 222.862C201.791 221.36 199.41 221.364 197.944 222.872L184.747 236.439C183.281 237.946 183.286 240.385 184.757 241.886C185.49 242.635 186.45 243.009 187.41 243.009C188.374 243.008 189.339 242.631 190.073 241.876Z" fill="url(#paint42_linear_973_58)"/>
<path d="M212.104 219.228L214.907 216.347C216.373 214.841 216.368 212.402 214.897 210.901C213.427 209.399 211.047 209.403 209.58 210.911L206.778 213.792C205.312 215.298 205.317 217.737 206.788 219.238C207.521 219.987 208.482 220.361 209.442 220.361C210.405 220.361 211.369 219.983 212.104 219.228Z" fill="url(#paint43_linear_973_58)"/>
<path d="M308.259 263.327C309.119 263.02 309.94 262.582 310.689 262.011L314.435 259.153C317.451 256.852 318.773 252.82 317.724 249.12L316.615 245.209C315.975 242.954 314.548 241.071 312.643 239.881C312.008 239.484 311.32 239.164 310.59 238.933C310.23 238.819 309.867 238.729 309.503 238.663C309.31 238.627 309.117 238.615 308.922 238.592C308.752 238.573 308.584 238.543 308.414 238.533C308.142 238.518 307.872 238.527 307.602 238.536C307.512 238.54 307.422 238.533 307.333 238.539C307.008 238.56 306.687 238.606 306.367 238.663C306.334 238.668 306.302 238.67 306.269 238.676C304.856 238.943 303.511 239.562 302.343 240.497L300.955 235.142L293.983 208.238L297.232 205.108C297.261 205.08 297.29 205.05 297.319 205.021C300.095 202.168 324.424 176.667 323.685 160.084C323.509 156.129 321.935 152.775 319.138 150.381C303.524 137.028 274.086 167.281 270.522 171.056L260.984 180.454L228.184 170.398C228.407 170.151 228.613 169.895 228.802 169.627C228.804 169.623 228.807 169.62 228.809 169.617C228.993 169.355 229.161 169.086 229.312 168.808C229.322 168.79 229.331 168.772 229.34 168.754C229.482 168.49 229.609 168.22 229.721 167.943C229.738 167.9 229.752 167.857 229.769 167.814C229.866 167.558 229.955 167.299 230.026 167.034C230.047 166.955 230.062 166.876 230.081 166.796C230.137 166.561 230.19 166.324 230.225 166.084C230.244 165.96 230.25 165.834 230.263 165.71C230.283 165.506 230.307 165.304 230.312 165.097C230.317 164.913 230.304 164.727 230.297 164.541C230.29 164.388 230.294 164.236 230.279 164.083C230.247 163.739 230.195 163.394 230.119 163.05C229.49 160.189 227.486 157.946 224.76 157.05L219.099 155.19C216.264 154.26 213.184 155.006 211.06 157.139L206.812 161.4C206.812 161.4 206.812 161.4 206.812 161.4C206.216 161.998 205.738 162.676 205.359 163.397L168.534 152.106C167.364 151.748 166.093 151.993 165.131 152.77L149.614 165.287C148.622 166.087 148.087 167.343 148.193 168.632C148.297 169.921 149.026 171.07 150.133 171.691L182.915 190.075L196.232 197.544C196.233 197.544 196.233 197.544 196.234 197.545L203.639 201.697L226.444 214.487L194.328 246.132L133.116 244.741L129.738 244.664C129.709 244.663 129.681 244.663 129.654 244.663C129.59 244.663 129.529 244.677 129.465 244.68C129.207 244.691 128.956 244.729 128.712 244.793C128.702 244.796 128.693 244.798 128.683 244.801C128.453 244.863 128.232 244.946 128.021 245.052C128.002 245.061 127.983 245.068 127.964 245.077C127.755 245.186 127.557 245.312 127.371 245.459C127.36 245.468 127.347 245.474 127.336 245.483C127.14 245.641 126.958 245.818 126.795 246.014C126.77 246.044 126.751 246.08 126.727 246.111C126.618 246.251 126.511 246.394 126.422 246.549C126.366 246.645 126.327 246.75 126.28 246.851C126.279 246.852 126.278 246.853 126.278 246.854C126.277 246.855 126.276 246.856 126.276 246.858C126.229 246.957 126.175 247.052 126.136 247.155C126.136 247.156 126.136 247.156 126.136 247.156C126.058 247.369 125.997 247.591 125.956 247.822L123.763 260.113C123.433 261.962 124.455 263.786 126.18 264.427L155.445 275.287C155.446 275.287 155.446 275.287 155.447 275.287L181.816 285.072L193.827 341.877C194.149 343.398 195.332 344.572 196.826 344.851L207.966 346.938C208.191 346.979 208.417 347 208.642 347C209.437 347 210.217 346.742 210.867 346.253C211.701 345.625 212.246 344.674 212.373 343.622L220.151 279.351L259.287 241.655L299.031 321.9C299.602 323.053 300.7 323.835 301.954 323.983C302.098 323.999 302.241 324.008 302.384 324.008C303.486 324.008 304.544 323.51 305.263 322.633L317.961 307.135C318.748 306.174 319.03 304.882 318.716 303.671L308.259 263.327ZM190.782 172.33L181.514 180.509L158.734 167.734L168.248 160.059L195.289 168.35L190.782 172.33ZM306.937 246.581C307.007 246.523 307.077 246.473 307.147 246.43C307.426 246.26 307.701 246.212 307.934 246.218C307.992 246.22 308.047 246.225 308.1 246.231C308.204 246.245 308.296 246.268 308.37 246.292C308.592 246.362 308.943 246.528 309.191 246.906C309.273 247.032 309.344 247.181 309.394 247.359L310.503 251.269C310.682 251.898 310.457 252.584 309.944 252.975L306.297 255.757L305.093 251.111L304.46 248.669L306.937 246.581ZM216.322 162.642C216.448 162.515 216.632 162.47 216.802 162.527L222.463 164.387C222.534 164.41 222.724 164.472 222.784 164.746C222.845 165.019 222.699 165.159 222.644 165.212L219.897 167.856L213.178 165.795L216.322 162.642ZM218.995 201.53L204.738 193.534L217.456 182.892L224.229 177.225L254.761 186.586L232.123 208.892L218.995 201.53ZM214.012 274.694C213.373 275.31 212.964 276.135 212.856 277.027L209.454 305.143L203.672 306.425L194.456 308.47L188.725 281.363C188.451 280.068 187.547 279.008 186.331 278.557L161.581 269.372L167.489 253.229L195.724 253.87C196.716 253.901 197.692 253.505 198.414 252.795L248.846 203.101L264.615 187.564C264.616 187.563 264.617 187.562 264.618 187.561L275.784 176.559C275.818 176.526 275.852 176.491 275.884 176.457C284.91 166.872 306.18 149.332 314.321 156.294C315.504 157.307 316.094 158.622 316.174 160.434C316.411 165.713 312.305 174.309 304.613 184.641C298.684 192.604 292.579 198.978 292.033 199.544L287.683 203.734H287.683C287.488 203.866 287.3 204.011 287.13 204.181L284.839 206.473L214.012 274.694ZM276.533 259.457L265.303 236.782L287.774 214.302L295.353 243.544L287.375 250.289L276.533 259.457ZM303.161 313.22L289.038 284.704L302.785 272.219L310.947 303.716L303.161 313.22Z" fill="url(#paint44_linear_973_58)"/>
<defs>
<filter id="filter0_d_973_58" x="-15.6475" y="-15.603" width="500.001" height="500" filterUnits="userSpaceOnUse" color-interpolation-filters="sRGB">
<feFlood flood-opacity="0" result="BackgroundImageFix"/>
<feColorMatrix in="SourceAlpha" type="matrix" values="0 0 0 0 0 0 0 0 0 0 0 0 0 0 0 0 0 0 127 0" result="hardAlpha"/>
<feOffset/>
<feGaussianBlur stdDeviation="25"/>
<feComposite in2="hardAlpha" operator="out"/>
<feColorMatrix type="matrix" values="0 0 0 0 0.501961 0 0 0 0 0.152941 0 0 0 0 0.290196 0 0 0 1 0"/>
<feBlend mode="normal" in2="BackgroundImageFix" result="effect1_dropShadow_973_58"/>
<feBlend mode="normal" in="SourceGraphic" in2="effect1_dropShadow_973_58" result="shape"/>
</filter>
<linearGradient id="paint0_linear_973_58" x1="430.888" y1="241.709" x2="430.888" y2="413.971" gradientUnits="userSpaceOnUse">
<stop stop-color="#A30010"/>
<stop offset="1" stop-color="#416AB0"/>
</linearGradient>
<linearGradient id="paint1_linear_973_58" x1="430.888" y1="241.709" x2="430.888" y2="413.971" gradientUnits="userSpaceOnUse">
<stop stop-color="#A30010"/>
<stop offset="1" stop-color="#416AB0"/>
</linearGradient>
<linearGradient id="paint2_linear_973_58" x1="430.888" y1="241.709" x2="430.888" y2="413.971" gradientUnits="userSpaceOnUse">
<stop stop-color="#A30010"/>
<stop offset="1" stop-color="#416AB0"/>
</linearGradient>
<linearGradient id="paint3_linear_973_58" x1="430.888" y1="241.709" x2="430.888" y2="413.971" gradientUnits="userSpaceOnUse">
<stop stop-color="#A30010"/>
<stop offset="1" stop-color="#416AB0"/>
</linearGradient>
<linearGradient id="paint4_linear_973_58" x1="385.141" y1="278.92" x2="385.141" y2="451.183" gradientUnits="userSpaceOnUse">
<stop stop-color="#A30010"/>
<stop offset="1" stop-color="#416AB0"/>
</linearGradient>
<linearGradient id="paint5_linear_973_58" x1="385.141" y1="278.92" x2="385.141" y2="451.183" gradientUnits="userSpaceOnUse">
<stop stop-color="#A30010"/>
<stop offset="1" stop-color="#416AB0"/>
</linearGradient>
<linearGradient id="paint6_linear_973_58" x1="385.141" y1="278.92" x2="385.141" y2="451.183" gradientUnits="userSpaceOnUse">
<stop stop-color="#A30010"/>
<stop offset="1" stop-color="#416AB0"/>
</linearGradient>
<linearGradient id="paint7_linear_973_58" x1="258.867" y1="298.386" x2="258.867" y2="470.648" gradientUnits="userSpaceOnUse">
<stop stop-color="#A30010"/>
<stop offset="1" stop-color="#416AB0"/>
</linearGradient>
<linearGradient id="paint8_linear_973_58" x1="258.867" y1="298.386" x2="258.867" y2="470.648" gradientUnits="userSpaceOnUse">
<stop stop-color="#A30010"/>
<stop offset="1" stop-color="#416AB0"/>
</linearGradient>
<linearGradient id="paint9_linear_973_58" x1="258.867" y1="298.386" x2="258.867" y2="470.648" gradientUnits="userSpaceOnUse">
<stop stop-color="#A30010"/>
<stop offset="1" stop-color="#416AB0"/>
</linearGradient>
<linearGradient id="paint10_linear_973_58" x1="158.299" y1="233.22" x2="158.299" y2="405.482" gradientUnits="userSpaceOnUse">
<stop stop-color="#A30010"/>
<stop offset="1" stop-color="#416AB0"/>
</linearGradient>
<linearGradient id="paint11_linear_973_58" x1="158.299" y1="233.22" x2="158.299" y2="405.482" gradientUnits="userSpaceOnUse">
<stop stop-color="#A30010"/>
<stop offset="1" stop-color="#416AB0"/>
</linearGradient>
<linearGradient id="paint12_linear_973_58" x1="158.299" y1="233.22" x2="158.299" y2="405.482" gradientUnits="userSpaceOnUse">
<stop stop-color="#A30010"/>
<stop offset="1" stop-color="#416AB0"/>
</linearGradient>
<linearGradient id="paint13_linear_973_58" x1="200.907" y1="274.464" x2="200.907" y2="446.726" gradientUnits="userSpaceOnUse">
<stop stop-color="#A30010"/>
<stop offset="1" stop-color="#416AB0"/>
</linearGradient>
<linearGradient id="paint14_linear_973_58" x1="200.907" y1="274.464" x2="200.907" y2="446.726" gradientUnits="userSpaceOnUse">
<stop stop-color="#A30010"/>
<stop offset="1" stop-color="#416AB0"/>
</linearGradient>
<linearGradient id="paint15_linear_973_58" x1="200.907" y1="274.464" x2="200.907" y2="446.726" gradientUnits="userSpaceOnUse">
<stop stop-color="#A30010"/>
<stop offset="1" stop-color="#416AB0"/>
</linearGradient>
<linearGradient id="paint16_linear_973_58" x1="324.952" y1="300.42" x2="324.952" y2="472.683" gradientUnits="userSpaceOnUse">
<stop stop-color="#A30010"/>
<stop offset="1" stop-color="#416AB0"/>
</linearGradient>
<linearGradient id="paint17_linear_973_58" x1="324.952" y1="300.42" x2="324.952" y2="472.683" gradientUnits="userSpaceOnUse">
<stop stop-color="#A30010"/>
<stop offset="1" stop-color="#416AB0"/>
</linearGradient>
<linearGradient id="paint18_linear_973_58" x1="324.952" y1="300.42" x2="324.952" y2="472.683" gradientUnits="userSpaceOnUse">
<stop stop-color="#A30010"/>
<stop offset="1" stop-color="#416AB0"/>
</linearGradient>
<linearGradient id="paint19_linear_973_58" x1="46.5649" y1="298.409" x2="99.2294" y2="279.204" gradientUnits="userSpaceOnUse">
<stop stop-color="#9D061A"/>
<stop offset="0.484375" stop-color="#6F3865"/>
<stop offset="1" stop-color="#4467AB"/>
</linearGradient>
<linearGradient id="paint20_linear_973_58" x1="35.4896" y1="257.09" x2="91.1273" y2="249.339" gradientUnits="userSpaceOnUse">
<stop stop-color="#9D061A"/>
<stop offset="0.484375" stop-color="#6F3865"/>
<stop offset="1" stop-color="#4467AB"/>
</linearGradient>
<linearGradient id="paint21_linear_973_58" x1="33.3785" y1="218.825" x2="89.4855" y2="222.689" gradientUnits="userSpaceOnUse">
<stop stop-color="#9D061A"/>
<stop offset="0.484375" stop-color="#6F3865"/>
<stop offset="1" stop-color="#4467AB"/>
</linearGradient>
<linearGradient id="paint22_linear_973_58" x1="38.8152" y1="181.114" x2="93.2562" y2="195.247" gradientUnits="userSpaceOnUse">
<stop stop-color="#9D061A"/>
<stop offset="0.484375" stop-color="#6F3865"/>
<stop offset="1" stop-color="#4467AB"/>
</linearGradient>
<linearGradient id="paint23_linear_973_58" x1="53.2" y1="141.147" x2="102.678" y2="167.757" gradientUnits="userSpaceOnUse">
<stop stop-color="#9D061A"/>
<stop offset="0.484375" stop-color="#6F3865"/>
<stop offset="1" stop-color="#4467AB"/>
</linearGradient>
<linearGradient id="paint24_linear_973_58" x1="93.0305" y1="86.5082" x2="130.475" y2="128.111" gradientUnits="userSpaceOnUse">
<stop stop-color="#9D061A"/>
<stop offset="0.484375" stop-color="#6F3865"/>
<stop offset="1" stop-color="#4467AB"/>
</linearGradient>
<linearGradient id="paint25_linear_973_58" x1="133.418" y1="56.5557" x2="160.318" y2="105.445" gradientUnits="userSpaceOnUse">
<stop stop-color="#9D061A"/>
<stop offset="0.484375" stop-color="#6F3865"/>
<stop offset="1" stop-color="#4467AB"/>
</linearGradient>
<linearGradient id="paint26_linear_973_58" x1="163.855" y1="42.5266" x2="181.715" y2="95.2629" gradientUnits="userSpaceOnUse">
<stop stop-color="#9D061A"/>
<stop offset="0.484375" stop-color="#6F3865"/>
<stop offset="1" stop-color="#4467AB"/>
</linearGradient>
<linearGradient id="paint27_linear_973_58" x1="205.715" y1="32.2859" x2="212.327" y2="87.4569" gradientUnits="userSpaceOnUse">
<stop stop-color="#9D061A"/>
<stop offset="0.484375" stop-color="#6F3865"/>
<stop offset="1" stop-color="#4467AB"/>
</linearGradient>
<linearGradient id="paint28_linear_973_58" x1="243.58" y1="30.7953" x2="239.398" y2="86.145" gradientUnits="userSpaceOnUse">
<stop stop-color="#9D061A"/>
<stop offset="0.484375" stop-color="#6F3865"/>
<stop offset="1" stop-color="#4467AB"/>
</linearGradient>
<linearGradient id="paint29_linear_973_58" x1="283.992" y1="37.1626" x2="268.985" y2="90.6001" gradientUnits="userSpaceOnUse">
<stop stop-color="#9D061A"/>
<stop offset="0.484375" stop-color="#6F3865"/>
<stop offset="1" stop-color="#4467AB"/>
</linearGradient>
<linearGradient id="paint30_linear_973_58" x1="313.508" y1="47.3932" x2="290.819" y2="98.0879" gradientUnits="userSpaceOnUse">
<stop stop-color="#9D061A"/>
<stop offset="0.484375" stop-color="#6F3865"/>
<stop offset="1" stop-color="#4467AB"/>
</linearGradient>
<linearGradient id="paint31_linear_973_58" x1="342.234" y1="62.6617" x2="311.069" y2="108.73" gradientUnits="userSpaceOnUse">
<stop stop-color="#9D061A"/>
<stop offset="0.484375" stop-color="#6F3865"/>
<stop offset="1" stop-color="#4467AB"/>
</linearGradient>
<linearGradient id="paint32_linear_973_58" x1="378.588" y1="92.5271" x2="337.333" y2="130.061" gradientUnits="userSpaceOnUse">
<stop stop-color="#9D061A"/>
<stop offset="0.484375" stop-color="#6F3865"/>
<stop offset="1" stop-color="#4467AB"/>
</linearGradient>
<linearGradient id="paint33_linear_973_58" x1="409.778" y1="135.132" x2="359.868" y2="160.471" gradientUnits="userSpaceOnUse">
<stop stop-color="#9D061A"/>
<stop offset="0.484375" stop-color="#6F3865"/>
<stop offset="1" stop-color="#4467AB"/>
</linearGradient>
<linearGradient id="paint34_linear_973_58" x1="428.254" y1="182.75" x2="373.407" y2="194.718" gradientUnits="userSpaceOnUse">
<stop stop-color="#9D061A"/>
<stop offset="0.484375" stop-color="#6F3865"/>
<stop offset="1" stop-color="#4467AB"/>
</linearGradient>
<linearGradient id="paint35_linear_973_58" x1="433.872" y1="229.78" x2="377.667" y2="228.013" gradientUnits="userSpaceOnUse">
<stop stop-color="#9D061A"/>
<stop offset="0.484375" stop-color="#6F3865"/>
<stop offset="1" stop-color="#4467AB"/>
</linearGradient>
<linearGradient id="paint36_linear_973_58" x1="428.358" y1="275.102" x2="374.023" y2="260.568" gradientUnits="userSpaceOnUse">
<stop stop-color="#9D061A"/>
<stop offset="0.484375" stop-color="#6F3865"/>
<stop offset="1" stop-color="#4467AB"/>
</linearGradient>
<linearGradient id="paint37_linear_973_58" x1="413.472" y1="316.028" x2="363.698" y2="289.965" gradientUnits="userSpaceOnUse">
<stop stop-color="#9D061A"/>
<stop offset="0.484375" stop-color="#6F3865"/>
<stop offset="1" stop-color="#4467AB"/>
</linearGradient>
<linearGradient id="paint38_linear_973_58" x1="1309" y1="147" x2="1309" y2="318" gradientUnits="userSpaceOnUse">
<stop stop-color="#792E56"/>
<stop offset="0.523958" stop-color="#822346"/>
<stop offset="1" stop-color="#6C699B"/>
</linearGradient>
<linearGradient id="paint39_linear_973_58" x1="298.757" y1="164.02" x2="298.757" y2="179.416" gradientUnits="userSpaceOnUse">
<stop stop-color="#871E3E"/>
<stop offset="0.489583" stop-color="#782E56"/>
<stop offset="1" stop-color="#5B4E86"/>
</linearGradient>
<linearGradient id="paint40_linear_973_58" x1="229.045" y1="277.609" x2="229.045" y2="288.403" gradientUnits="userSpaceOnUse">
<stop stop-color="#871E3E"/>
<stop offset="0.489583" stop-color="#782E56"/>
<stop offset="1" stop-color="#5B4E86"/>
</linearGradient>
<linearGradient id="paint41_linear_973_58" x1="248.905" y1="252.765" x2="248.905" y2="276.054" gradientUnits="userSpaceOnUse">
<stop stop-color="#871E3E"/>
<stop offset="0.489583" stop-color="#782E56"/>
<stop offset="1" stop-color="#5B4E86"/>
</linearGradient>
<linearGradient id="paint42_linear_973_58" x1="194.009" y1="221.739" x2="194.009" y2="243.009" gradientUnits="userSpaceOnUse">
<stop stop-color="#871E3E"/>
<stop offset="0.489583" stop-color="#782E56"/>
<stop offset="1" stop-color="#5B4E86"/>
</linearGradient>
<linearGradient id="paint43_linear_973_58" x1="210.843" y1="209.777" x2="210.843" y2="220.361" gradientUnits="userSpaceOnUse">
<stop stop-color="#871E3E"/>
<stop offset="0.489583" stop-color="#782E56"/>
<stop offset="1" stop-color="#5B4E86"/>
</linearGradient>
<linearGradient id="paint44_linear_973_58" x1="223.701" y1="147" x2="223.701" y2="347" gradientUnits="userSpaceOnUse">
<stop stop-color="#871E3E"/>
<stop offset="0.489583" stop-color="#782E56"/>
<stop offset="1" stop-color="#5B4E86"/>
</linearGradient>
<clipPath id="clip0_973_58">
<rect width="472" height="465" fill="white"/>
</clipPath>
</defs>
</svg>
