<svg width="17" height="17" viewBox="0 0 17 17" fill="none" xmlns="http://www.w3.org/2000/svg">
<path d="M16.9235 13.5498L16.8389 13.2949C16.6385 12.6992 15.9816 12.078 15.3782 11.9143L13.1447 11.3042C12.5391 11.1394 11.6751 11.361 11.2319 11.8041L10.4236 12.6124C7.48601 11.8186 5.18246 9.51499 4.38974 6.57794L5.1981 5.76959C5.64124 5.32645 5.86277 4.46361 5.698 3.85794L5.08897 1.62341C4.9242 1.01884 4.30182 0.36197 3.70729 0.163772L3.45234 0.0780521C2.85668 -0.120145 2.00717 0.0802966 1.56407 0.523399L0.354936 1.73364C0.138925 1.94851 0.000867608 2.56309 0.000867608 2.56533C-0.0414225 6.40422 1.46385 10.1028 4.17933 12.8183C6.88814 15.5271 10.5729 17.0302 14.4006 16.9979C14.4206 16.9979 15.053 16.8621 15.269 16.6472L16.4782 15.438C16.9213 14.995 17.1217 14.1455 16.9235 13.5498Z" fill="#D57043"/>
</svg>
