<svg width="635" height="320" viewBox="0 0 635 320" fill="none" xmlns="http://www.w3.org/2000/svg">
<g clip-path="url(#clip0_161_254)">
<rect width="320" height="635" transform="matrix(0 -1 1 0 0 320)" fill="#8B8D8E" fill-opacity="0.5"/>
<path d="M542 165C542 176.72 535.827 188.054 524.299 198.533C512.769 209.012 496.003 218.518 475.157 226.532C433.475 242.557 375.791 252.5 312 252.5C248.209 252.5 190.525 242.557 148.843 226.532C127.997 218.518 111.231 209.012 99.7013 198.533C88.1725 188.054 82 176.72 82 165C82 153.28 88.1725 141.946 99.7013 131.467C111.231 120.988 127.997 111.482 148.843 103.468C190.525 87.4431 248.209 77.5 312 77.5C375.791 77.5 433.475 87.4431 475.157 103.468C496.003 111.482 512.769 120.988 524.299 131.467C535.827 141.946 542 153.28 542 165Z" stroke="white" stroke-width="3"/>
</g>
<defs>
<clipPath id="clip0_161_254">
<rect width="320" height="635" fill="white" transform="matrix(0 -1 1 0 0 320)"/>
</clipPath>
</defs>
</svg>
