<svg width="497" height="184" viewBox="0 0 497 184" fill="none" xmlns="http://www.w3.org/2000/svg">
<path d="M8 0V184" stroke="#AEA8FF" stroke-width="2"/>
<path d="M88 0V184" stroke="#AEA8FF" stroke-width="2"/>
<path d="M168 0V184" stroke="#AEA8FF" stroke-width="2"/>
<path d="M248 0V184" stroke="#AEA8FF" stroke-width="2"/>
<path d="M328 0V184" stroke="#AEA8FF" stroke-width="2"/>
<path d="M408 0V184" stroke="#AEA8FF" stroke-width="2"/>
<path d="M488 0V184" stroke="#AEA8FF" stroke-width="2"/>
<path d="M8.5 175.5C16.5 139.833 44.8 82.2 88 119C131.2 155.8 158 134.333 166 119C177.333 89.6667 217.37 37.9851 249 92C281.5 147.5 313.5 160.5 329 134C342.79 110.424 365 45 407 82C449 119 492 61 488 22" stroke="white" stroke-width="5" stroke-linecap="round"/>
<circle cx="88" cy="118" r="8" fill="white"/>
<circle cx="8" cy="176" r="8" fill="white"/>
<circle cx="170" cy="112" r="8" fill="white"/>
<circle cx="248.5" cy="90.5" r="6.5" fill="white"/>
<circle cx="329" cy="133" r="8" fill="white"/>
<circle cx="409" cy="83" r="8" fill="white"/>
<circle cx="489" cy="26" r="8" fill="white"/>
</svg>
