<svg width="23" height="26" viewBox="0 0 23 26" fill="none" xmlns="http://www.w3.org/2000/svg">
<path d="M0.711914 23.1765C0.711914 24.4472 1.76684 25.4781 3.0671 25.4781H20.3384C21.6387 25.4781 22.6936 24.4472 22.6936 23.1765V10.1335H0.711914V23.1765ZM16.4131 13.7779C16.4131 13.4614 16.6781 13.2025 17.0019 13.2025H18.9646C19.2884 13.2025 19.5534 13.4614 19.5534 13.7779V15.696C19.5534 16.0124 19.2884 16.2714 18.9646 16.2714H17.0019C16.6781 16.2714 16.4131 16.0124 16.4131 15.696V13.7779ZM16.4131 19.9157C16.4131 19.5992 16.6781 19.3403 17.0019 19.3403H18.9646C19.2884 19.3403 19.5534 19.5992 19.5534 19.9157V21.8338C19.5534 22.1503 19.2884 22.4092 18.9646 22.4092H17.0019C16.6781 22.4092 16.4131 22.1503 16.4131 21.8338V19.9157ZM10.1326 13.7779C10.1326 13.4614 10.3976 13.2025 10.7214 13.2025H12.6841C13.0079 13.2025 13.2729 13.4614 13.2729 13.7779V15.696C13.2729 16.0124 13.0079 16.2714 12.6841 16.2714H10.7214C10.3976 16.2714 10.1326 16.0124 10.1326 15.696V13.7779ZM10.1326 19.9157C10.1326 19.5992 10.3976 19.3403 10.7214 19.3403H12.6841C13.0079 19.3403 13.2729 19.5992 13.2729 19.9157V21.8338C13.2729 22.1503 13.0079 22.4092 12.6841 22.4092H10.7214C10.3976 22.4092 10.1326 22.1503 10.1326 21.8338V19.9157ZM3.85216 13.7779C3.85216 13.4614 4.11712 13.2025 4.44095 13.2025H6.40361C6.72744 13.2025 6.9924 13.4614 6.9924 13.7779V15.696C6.9924 16.0124 6.72744 16.2714 6.40361 16.2714H4.44095C4.11712 16.2714 3.85216 16.0124 3.85216 15.696V13.7779ZM3.85216 19.9157C3.85216 19.5992 4.11712 19.3403 4.44095 19.3403H6.40361C6.72744 19.3403 6.9924 19.5992 6.9924 19.9157V21.8338C6.9924 22.1503 6.72744 22.4092 6.40361 22.4092H4.44095C4.11712 22.4092 3.85216 22.1503 3.85216 21.8338V19.9157ZM20.3384 3.99568H17.9833V1.69399C17.9833 1.27201 17.63 0.926758 17.1982 0.926758H15.6281C15.1963 0.926758 14.843 1.27201 14.843 1.69399V3.99568H8.56252V1.69399C8.56252 1.27201 8.20925 0.926758 7.77746 0.926758H6.20734C5.77556 0.926758 5.42228 1.27201 5.42228 1.69399V3.99568H3.0671C1.76684 3.99568 0.711914 5.02665 0.711914 6.29737V8.59907H22.6936V6.29737C22.6936 5.02665 21.6387 3.99568 20.3384 3.99568Z" fill="#7166F9"/>
</svg>
