<svg width="25" height="25" viewBox="0 0 25 25" fill="none" xmlns="http://www.w3.org/2000/svg">
<path d="M22.6098 3.85315C23.4422 3.85315 24.1171 3.35851 24.1171 2.74834V2.01179C24.1171 1.40162 23.4422 0.906982 22.6098 0.906982H1.50732C0.674838 0.906982 0 1.40162 0 2.01179V2.74834C0 3.35851 0.674838 3.85315 1.50732 3.85315C1.50732 8.04062 4.71137 11.5746 9.09678 12.6916C4.71137 13.8087 1.50732 17.3427 1.50732 21.5301C0.674838 21.5301 0 22.0248 0 22.635V23.3715C0 23.9817 0.674838 24.4763 1.50732 24.4763H22.6098C23.4422 24.4763 24.1171 23.9817 24.1171 23.3715V22.635C24.1171 22.0248 23.4422 21.5301 22.6098 21.5301C22.6098 17.3427 19.4057 13.8087 15.0203 12.6916C19.4057 11.5746 22.6098 8.04062 22.6098 3.85315Z" fill="#7166F9"/>
</svg>
