<svg width="18" height="18" viewBox="0 0 18 18" fill="none" xmlns="http://www.w3.org/2000/svg">
<g clip-path="url(#clip0_188_1783)">
<path d="M6.76617 16.0549C7.15682 16.0549 7.47351 15.7311 7.47351 15.3317C7.47351 14.9322 7.15682 14.6084 6.76617 14.6084C6.37552 14.6084 6.05884 14.9322 6.05884 15.3317C6.05884 15.7311 6.37552 16.0549 6.76617 16.0549Z" stroke="white" stroke-width="2" stroke-linecap="round" stroke-linejoin="round"/>
<path d="M14.5469 16.0549C14.9376 16.0549 15.2543 15.7311 15.2543 15.3317C15.2543 14.9322 14.9376 14.6084 14.5469 14.6084C14.1563 14.6084 13.8396 14.9322 13.8396 15.3317C13.8396 15.7311 14.1563 16.0549 14.5469 16.0549Z" stroke="white" stroke-width="2" stroke-linecap="round" stroke-linejoin="round"/>
<path d="M1.10742 0.867188H3.93676L5.83242 10.5517C5.8971 10.8847 6.07426 11.1838 6.33289 11.3967C6.59152 11.6096 6.91514 11.7227 7.24709 11.7162H14.1224C14.4543 11.7227 14.778 11.6096 15.0366 11.3967C15.2952 11.1838 15.4724 10.8847 15.5371 10.5517L16.6688 4.48351H4.6441" stroke="white" stroke-width="2" stroke-linecap="round" stroke-linejoin="round"/>
</g>
<defs>
<clipPath id="clip0_188_1783">
<rect width="16.9761" height="17.3584" fill="white" transform="translate(0.400146 0.143555)"/>
</clipPath>
</defs>
</svg>
