<svg width="38" height="38" viewBox="0 0 38 38" fill="none" xmlns="http://www.w3.org/2000/svg">
<path d="M13.9257 34.8071C14.7803 34.8071 15.473 34.0988 15.473 33.225C15.473 32.3512 14.7803 31.6428 13.9257 31.6428C13.0712 31.6428 12.3784 32.3512 12.3784 33.225C12.3784 34.0988 13.0712 34.8071 13.9257 34.8071Z" stroke="white" stroke-width="2" stroke-linecap="round" stroke-linejoin="round"/>
<path d="M30.9457 34.8071C31.8003 34.8071 32.493 34.0988 32.493 33.225C32.493 32.3512 31.8003 31.6428 30.9457 31.6428C30.0912 31.6428 29.3984 32.3512 29.3984 33.225C29.3984 34.0988 30.0912 34.8071 30.9457 34.8071Z" stroke="white" stroke-width="2" stroke-linecap="round" stroke-linejoin="round"/>
<path d="M1.54736 1.58228H7.73655L11.8833 22.7672C12.0248 23.4956 12.4123 24.1499 12.9781 24.6156C13.5438 25.0813 14.2517 25.3286 14.9779 25.3144H30.0176C30.7438 25.3286 31.4517 25.0813 32.0174 24.6156C32.5832 24.1499 32.9707 23.4956 33.1122 22.7672L35.5879 9.49299H9.28384" stroke="white" stroke-width="2" stroke-linecap="round" stroke-linejoin="round"/>
</svg>
