<svg width="11" height="11" viewBox="0 0 11 11" fill="none" xmlns="http://www.w3.org/2000/svg">
<path d="M10.9516 5.35144C10.9516 8.30761 8.49979 10.7029 5.4758 10.7029C2.45181 10.7029 0 8.30761 0 5.35144C0 2.39699 2.45181 0 5.4758 0C8.49979 0 10.9516 2.39699 10.9516 5.35144ZM5.62274 1.76943C4.41946 1.76943 3.65201 2.2648 3.04936 3.14522C2.97128 3.25928 2.9974 3.41312 3.10931 3.49604L3.87545 4.06377C3.99038 4.14894 4.15412 4.12868 4.24341 4.01798C4.63785 3.52906 4.9083 3.24554 5.50866 3.24554C5.95972 3.24554 6.51766 3.52925 6.51766 3.95672C6.51766 4.27988 6.24469 4.44583 5.79931 4.68986C5.27991 4.97442 4.59261 5.32858 4.59261 6.21457V6.30088C4.59261 6.44388 4.71124 6.55982 4.85756 6.55982H6.09404C6.24036 6.55982 6.35899 6.44388 6.35899 6.30088V6.27212C6.35899 5.65796 8.19573 5.63239 8.19573 3.97042C8.19573 2.71883 6.86729 1.76943 5.62274 1.76943ZM5.4758 7.12086C4.91575 7.12086 4.46013 7.56613 4.46013 8.11347C4.46013 8.66078 4.91575 9.10607 5.4758 9.10607C6.03586 9.10607 6.49147 8.66078 6.49147 8.11347C6.49147 7.56613 6.03586 7.12086 5.4758 7.12086Z" fill="#7166F9"/>
</svg>
