<svg width="320" height="211" viewBox="0 0 320 211" fill="none" xmlns="http://www.w3.org/2000/svg">
<path d="M-6.08791 59.8338C7.94801 27.524 31.6186 17.9018 47.096 16.4388C57.0481 15.4981 66.2534 17.8453 75.1396 20.9805C88.4237 25.6674 101.527 31.5463 113.226 40.8643C132.665 56.3467 148.222 81.8758 163.455 106.531C182.201 136.871 192.241 182.594 219.891 193.941C231.492 198.702 244.083 201.849 258.672 190.786C283.145 172.228 307.11 145.494 330.614 117.179" stroke="#318BFE" stroke-opacity="0.72" stroke-linecap="round"/>
<path d="M-11.2963 79.1617C-1.80132 63.7042 20.0572 60.8071 34.9789 61.4066C44.5736 61.7921 53.8675 63.8102 62.9526 66.2073C76.534 69.7908 90.0942 73.9741 102.731 79.8106C123.729 89.5082 142.246 104.055 160.331 118.121C182.588 135.432 198.349 159.924 226.825 168.205C238.773 171.679 251.477 174.407 264.28 169.971C285.758 162.529 305.674 150.82 324.934 138.255" stroke="#A1CBFF" stroke-linecap="round"/>
<path d="M-7.35381 67.6617C7.69447 24.8621 32.369 8.3444 48.4272 3.53449C58.7528 0.4417 68.253 1.57239 77.4104 3.7424C91.0997 6.98634 104.583 11.7443 116.558 21.0403C136.454 36.4863 152.172 65.1473 167.568 92.7865C186.513 126.8 196.199 181.581 224.667 190.307C236.612 193.969 249.608 195.437 264.896 178.889C290.542 151.13 315.79 113.327 340.584 73.6505" stroke="#364CD2" stroke-linecap="round"/>
</svg>
