<svg width="14" height="16" viewBox="0 0 14 16" fill="none" xmlns="http://www.w3.org/2000/svg">
<path d="M7.00335 15.1217C7.92455 15.1217 8.67826 14.4263 8.67826 13.5764H5.32844C5.32844 14.4263 6.08215 15.1217 7.00335 15.1217ZM12.0281 10.486V6.62289C12.0281 4.25096 10.663 2.26534 8.25954 1.73996V1.21459C8.25954 0.573316 7.69844 0.0556641 7.00335 0.0556641C6.30827 0.0556641 5.74717 0.573316 5.74717 1.21459V1.73996C3.35205 2.26534 1.97862 4.24324 1.97862 6.62289V10.486L0.303711 12.0312V12.8038H13.703V12.0312L12.0281 10.486ZM10.3532 11.2586H3.65353V6.62289C3.65353 4.70681 4.91809 3.14612 7.00335 3.14612C9.08862 3.14612 10.3532 4.70681 10.3532 6.62289V11.2586Z" fill="white"/>
</svg>
