<svg width="17" height="16" viewBox="0 0 17 16" fill="none" xmlns="http://www.w3.org/2000/svg">
<path d="M12.2768 9.80587H11.5557L11.3001 9.57255C12.1947 8.58743 12.7333 7.3085 12.7333 5.91723C12.7333 2.81495 10.0769 0.300293 6.79973 0.300293C3.5226 0.300293 0.866211 2.81495 0.866211 5.91723C0.866211 9.0195 3.5226 11.5342 6.79973 11.5342C8.26942 11.5342 9.62044 11.0243 10.6611 10.1775L10.9076 10.4194V11.1021L15.4718 15.4142L16.832 14.1266L12.2768 9.80587V9.80587ZM6.79973 9.80587C4.52674 9.80587 2.69191 8.06894 2.69191 5.91723C2.69191 3.76551 4.52674 2.02858 6.79973 2.02858C9.07273 2.02858 10.9076 3.76551 10.9076 5.91723C10.9076 8.06894 9.07273 9.80587 6.79973 9.80587Z" fill="#BEBEBE"/>
</svg>
