<svg width="1280" height="459" viewBox="0 0 1280 459" fill="none" xmlns="http://www.w3.org/2000/svg">
<path d="M-5 215.689C14.5395 150.493 91.8112 124.475 147.107 116.496C182.662 111.366 218.727 112.639 254.401 115.495C307.73 119.763 361.575 126.323 413.668 139.792C500.225 162.171 582.477 204.659 662.675 245.621C761.368 296.031 843.343 378.164 955.916 390.026C1003.15 395.003 1052.42 396.626 1094.97 370.989C1166.36 327.983 1227.81 269.856 1286 208.925" stroke="#318BFE" stroke-opacity="0.72" stroke-width="3" stroke-linecap="round"/>
<path d="M-5 253.611C14.5395 221.479 91.8112 208.656 147.107 204.723C182.662 202.195 218.727 202.822 254.401 204.229C307.73 206.333 361.575 209.566 413.668 216.204C500.225 227.234 582.477 248.175 662.675 268.363C761.368 293.208 843.343 333.688 955.916 339.534C1003.15 341.987 1052.42 342.787 1094.97 330.152C1166.36 308.956 1227.81 280.307 1286 250.278" stroke="#A1CBFF" stroke-width="3" stroke-linecap="round"/>
<path d="M-2.73483 230.444C10.1691 145.282 84.3973 106.025 138.579 91.5884C173.419 82.3055 209.406 81.2031 245.163 82.161C298.616 83.5929 352.81 87.9269 405.955 101.261C494.258 123.417 580.294 171.71 664.135 218.2C767.311 275.412 857.038 374.611 970.157 381.294C1017.62 384.097 1066.77 382.442 1106.52 346.308C1173.19 285.692 1228.47 206.423 1280.24 123.803" stroke="#364CD2" stroke-width="3" stroke-linecap="round"/>
</svg>
