<svg width="25" height="23" viewBox="0 0 25 23" fill="none" xmlns="http://www.w3.org/2000/svg">
<path d="M24.7371 4.40462L19.0476 0L17.4521 1.74587L23.1416 6.1505L24.7371 4.40462ZM7.27272 1.74587L5.68954 0L0 4.39321L1.59555 6.13908L7.27272 1.74587ZM12.987 7.00632H11.1317V13.8529L17.0068 17.105L17.9344 15.7015L12.987 12.9971V7.00632ZM12.3686 2.44194C6.22139 2.44194 1.23686 7.04055 1.23686 12.7118C1.23686 18.383 6.20902 22.9816 12.3686 22.9816C18.5158 22.9816 23.5003 18.383 23.5003 12.7118C23.5003 7.04055 18.5158 2.44194 12.3686 2.44194ZM12.3686 20.6994C7.58193 20.6994 3.71057 17.1278 3.71057 12.7118C3.71057 8.29575 7.58193 4.72413 12.3686 4.72413C17.1552 4.72413 21.0266 8.29575 21.0266 12.7118C21.0266 17.1278 17.1552 20.6994 12.3686 20.6994Z" fill="white"/>
</svg>
