<svg width="21" height="22" viewBox="0 0 21 22" fill="none" xmlns="http://www.w3.org/2000/svg">
<path d="M1.62131 2.40957C0.456133 3.4497 0.104847 4.8774 1.01872 6.20469C1.71963 7.22264 2.75933 7.65542 3.54855 8.0474C3.6762 8.11089 3.62688 8.05095 3.32525 13.1233L3.01229 18.3847C2.60051 22.4434 13.9572 23.1158 17.1734 20.2445C18.1246 19.3953 18.0028 18.6231 17.9758 18.1471C17.4027 8.04977 17.2976 8.11394 17.4555 8.04655C20.2948 6.83744 20.3758 5.35573 20.5 4.83033C20.5 -0.703198 5.9374 -1.44363 1.62131 2.40957ZM16.2612 18.7814C14.9494 20.6307 7.00926 20.9091 4.84955 18.9108C4.71623 18.7875 4.65724 18.6498 4.67274 18.4556C4.69857 18.1307 5.01586 12.248 5.03669 12.0957C8.68204 12.8953 12.3211 12.8891 15.9691 12.0669C16.3423 18.7756 16.3803 18.6133 16.2612 18.7814ZM5.13634 10.3126C5.1715 9.74973 5.20567 9.20131 5.23983 8.65407C8.74686 9.52369 12.2502 9.52386 15.7614 8.65424C15.7956 9.2074 15.8299 9.76616 15.8656 10.3434C12.2881 11.1917 8.71603 11.2267 5.13634 10.3126ZM18.5472 5.31881C17.0891 7.0733 12.87 7.60479 10.4983 7.60818C6.87011 7.6031 3.24309 6.60141 2.32305 5.13764C1.87544 4.42549 2.48903 3.79579 3.19443 3.33151C4.32728 2.586 6.01573 2.1285 7.32022 1.9348C14.162 0.919051 20.1563 3.38265 18.5472 5.31881ZM11.9704 5.8586C9.36578 6.05231 5.76276 5.62985 4.79622 4.86165C4.1808 4.37266 5.77292 3.74228 9.05765 3.43429C10.7616 3.27462 14.7756 3.47747 16.089 4.3222C17.371 5.14696 13.4926 5.7455 11.9704 5.8586Z" fill="white"/>
</svg>
