<svg width="72" height="65" viewBox="0 0 72 65" fill="none" xmlns="http://www.w3.org/2000/svg">
<g clip-path="url(#clip0_259_2902)">
<mask id="mask0_259_2902" style="mask-type:luminance" maskUnits="userSpaceOnUse" x="0" y="0" width="72" height="65">
<path d="M71.8939 0H0V65H71.8939V0Z" fill="white"/>
</mask>
<g mask="url(#mask0_259_2902)">
<path d="M67.2962 28.5605H3.60938V41.6919H67.2962V28.5605Z" fill="#FFFEB3"/>
<path d="M36.6081 2.79421L70.261 25.5307C71.4681 26.3464 70.8907 28.2321 69.4337 28.2321H2.12845C0.671535 28.2321 0.0942192 26.3464 1.30143 25.5307L34.9542 2.79421C35.4538 2.45662 36.1084 2.45662 36.6081 2.79421Z" fill="#32D390" stroke="#FFFEB3"/>
<path d="M42.3462 46.2876H29.2148V61.0603H42.3462V46.2876Z" fill="white"/>
<mask id="mask1_259_2902" style="mask-type:luminance" maskUnits="userSpaceOnUse" x="29" y="46" width="14" height="15">
<path d="M42.3462 46.1938H29.2148V60.4507H42.3462V46.1938Z" fill="white"/>
</mask>
<g mask="url(#mask1_259_2902)">
<path d="M42.3462 46.1938H29.2148V60.4507H42.3462V46.1938Z" fill="white"/>
<path d="M42.3462 45.9595H29.2148V60.7322H42.3462V45.9595Z" fill="#32D390"/>
</g>
<path d="M56.4658 13.6235H14.7738C14.3206 13.6235 13.9531 13.991 13.9531 14.4442V42.6766C13.9531 43.1298 14.3206 43.4973 14.7738 43.4973H56.4658C56.919 43.4973 57.2865 43.1298 57.2865 42.6766V14.4442C57.2865 13.991 56.919 13.6235 56.4658 13.6235Z" fill="white" stroke="#8088AB"/>
<path d="M70.9069 62.26L33.1875 44.9743L70.9069 27.6885V62.26Z" fill="#32D390" stroke="#FFFEB3"/>
<path d="M0.65625 27.853L38.3756 45.1388L0.65625 62.4246V27.853Z" fill="#32D390" stroke="#FFFEB3"/>
<mask id="mask2_259_2902" style="mask-type:luminance" maskUnits="userSpaceOnUse" x="0" y="36" width="3" height="19">
<path d="M2.95407 36.439H0.984375V54.8228H2.95407V36.439Z" fill="white"/>
</mask>
<g mask="url(#mask2_259_2902)">
<path d="M2.95237 38.1691L-3.61328 34.517V33.8125L2.95237 37.465V38.1691Z" fill="#FFFEB3"/>
<path d="M2.95237 39.8308L-3.61328 36.1783V35.4741L2.95237 39.1263V39.8308Z" fill="#FFFEB3"/>
<path d="M2.95237 41.4919L-3.61328 37.8397V37.1353L2.95237 40.7877V41.4919Z" fill="#FFFEB3"/>
<path d="M2.95237 43.153L-3.61328 39.5009V38.7964L2.95237 42.4485V43.153Z" fill="#FFFEB3"/>
<path d="M2.95237 44.8147L-3.61328 41.1622V40.458L2.95237 44.1102V44.8147Z" fill="#FFFEB3"/>
<path d="M2.95237 46.4758L-3.61328 42.8236V42.1191L2.95237 45.7716V46.4758Z" fill="#FFFEB3"/>
<path d="M2.95237 48.1369L-3.61328 44.4844V43.7803L2.95237 47.4324V48.1369Z" fill="#FFFEB3"/>
<path d="M2.95237 49.7985L-3.61328 46.1461V45.4419L2.95237 49.094V49.7985Z" fill="#FFFEB3"/>
<path d="M2.95237 51.4597L-3.61328 47.8075V47.103L2.95237 50.7555V51.4597Z" fill="#FFFEB3"/>
<path d="M2.95237 53.1213L-3.61328 49.4691V48.7646L2.95237 52.4168V53.1213Z" fill="#FFFEB3"/>
<path d="M2.95237 54.7824L-3.61328 51.1299V50.4258L2.95237 54.0779V54.7824Z" fill="#FFFEB3"/>
</g>
<g filter="url(#filter0_d_259_2902)">
<path d="M34.6796 38.8253C35.3457 38.3753 36.2189 38.3753 36.885 38.8253L70.5376 61.5619C72.1472 62.6495 71.3777 65.1638 69.4349 65.1638H2.1296C0.187046 65.1638 -0.582707 62.6495 1.02691 61.5619L34.6796 38.8253Z" fill="#32D390"/>
<path d="M36.6081 39.2336L70.261 61.9701C71.4681 62.7859 70.8907 64.6716 69.4337 64.6716H2.12845C0.671535 64.6716 0.0942192 62.7859 1.30143 61.9701L34.9542 39.2336C35.4538 38.8961 36.1084 38.8961 36.6081 39.2336Z" stroke="#FFFEB3"/>
</g>
<path d="M42.3462 60.4038H29.2148V64.3432H42.3462V60.4038Z" fill="#FFFEB3" fill-opacity="0.3"/>
<path d="M29.2148 46.2876V60.4038H42.3412V46.2876H29.2148ZM42.3412 60.4038V56.7181C42.3127 56.6928 42.3609 56.7506 42.3412 56.7181C42.3097 56.6653 42.2986 56.6242 42.2894 56.5632C42.2828 56.5258 42.2792 56.4893 42.2766 56.4535C42.1699 56.1554 42.0648 55.8574 41.9611 55.5593C41.9522 55.5334 41.946 55.5064 41.9427 55.4792C41.924 55.3183 41.9092 55.1532 41.8875 54.9914C41.8557 54.754 41.8212 54.5167 41.7841 54.28C41.7625 54.1421 41.7385 54.0036 41.704 53.8683C41.6699 53.7331 41.6275 53.5919 41.5842 53.4547C41.5744 53.4202 41.5576 53.3884 41.5356 53.3605C41.4516 53.2623 41.4079 53.1412 41.3669 53.0197C41.2779 52.7581 41.207 52.4905 41.143 52.221C41.1033 52.0503 41.0583 51.8802 41.0205 51.7089C40.9674 51.4679 40.9181 51.2243 40.8669 50.9817C40.8377 50.8432 40.8082 50.7046 40.7796 50.5661C40.777 50.5513 40.777 50.5366 40.7796 50.5218C40.7914 50.4115 40.7878 50.3002 40.7681 50.1912C40.7258 49.8843 40.6768 49.5786 40.6296 49.2727C40.6145 49.1742 40.5967 49.076 40.5787 48.9713C40.7346 48.6463 40.7619 48.2885 40.7786 47.9244C40.7806 47.8893 40.7786 47.8535 40.7763 47.8204C40.4566 47.7045 40.126 47.7662 39.8972 48.0725C39.7793 48.2383 39.6917 48.4241 39.6382 48.6207C39.5764 48.8364 39.5315 49.0563 39.5032 49.2789C39.4619 49.595 39.4379 49.9132 39.432 50.2319C39.4251 50.5018 39.4202 50.7716 39.4107 51.0411C39.407 51.1386 39.3969 51.2358 39.3805 51.332C39.367 51.4196 39.3322 51.5024 39.2797 51.573C39.2268 51.6439 39.1572 51.7003 39.0774 51.7378C38.975 51.788 38.8641 51.8172 38.7505 51.8238C38.7229 51.8244 38.696 51.8303 38.6707 51.8408C38.5578 51.8937 38.4353 51.9213 38.3109 51.9213C38.196 51.9232 38.0811 51.9186 37.9669 51.9081C38.195 51.8822 38.4261 51.8819 38.6533 51.8133C38.6658 51.7555 38.6786 51.698 38.6901 51.6402C38.7383 51.3947 38.7889 51.1501 38.8339 50.9042C38.8591 50.769 38.8775 50.6318 38.8962 50.4952C38.9166 50.3439 38.93 50.1912 38.954 50.0405C38.9668 49.9601 38.9937 49.88 39.0157 49.7996C39.0587 49.6335 39.0883 49.4641 39.104 49.293C39.1155 49.1745 39.1142 49.0554 39.1004 48.9372C39.0765 48.7428 39.0157 48.5656 38.8664 48.4379C38.8345 48.4106 38.7964 48.3919 38.7554 48.384C38.7196 48.404 38.692 48.4362 38.6776 48.4749C38.6254 48.5912 38.5702 48.707 38.5266 48.8272C38.3913 49.1995 38.2869 49.5826 38.1871 49.968C38.1674 50.0409 38.1409 50.1114 38.107 50.1787C38.0394 50.3153 37.978 50.4565 37.9232 50.5996C37.8011 50.921 37.6836 51.2424 37.5657 51.5638C37.5496 51.6068 37.5348 51.6498 37.5171 51.7003L37.2995 51.5605C37.2226 51.2923 37.1521 51.0359 37.0752 50.7821C36.9925 50.5093 36.9088 50.2372 36.8162 49.9683C36.7443 49.7589 36.6596 49.555 36.5766 49.3501C36.4758 49.1007 36.3691 48.8541 36.2696 48.6043C36.2437 48.5281 36.2224 48.451 36.2056 48.3725C36.1354 48.1053 36.0487 47.8456 35.9059 47.6122C35.8258 47.4789 35.727 47.3631 35.5901 47.2912C35.5107 47.2511 35.4217 47.2347 35.3334 47.2432C35.2447 47.2518 35.1607 47.2852 35.0901 47.3397C35.0803 47.3949 35.0819 47.4514 35.0954 47.5059C35.1266 47.668 35.1706 47.8272 35.227 47.9822C35.3025 48.1923 35.3833 48.4001 35.4604 48.6095C35.4693 48.6355 35.4752 48.6624 35.4782 48.6896C35.4956 48.8262 35.507 48.9641 35.5297 49.1C35.5569 49.2628 35.5931 49.424 35.6262 49.5859C35.637 49.6394 35.6508 49.6919 35.6633 49.7467L35.6485 49.7589C35.6449 49.7477 35.64 49.7369 35.6341 49.7264C35.4466 49.4454 35.2612 49.1614 35.0701 48.883C34.9037 48.642 34.7274 48.404 34.5619 48.1598C34.4936 48.059 34.4421 47.9444 34.3823 47.8384C34.2271 47.561 34.057 47.2948 33.8394 47.0683C33.7409 46.9593 33.6237 46.869 33.4934 46.802C33.3469 46.7324 33.1976 46.7101 33.0439 46.7774C32.9757 46.8102 32.9139 46.8562 32.8627 46.9127C32.8644 46.9353 32.8673 46.958 32.8719 46.9803C32.9143 47.1388 32.9737 47.2925 33.0492 47.4386C33.2281 47.7974 33.4284 48.1453 33.6486 48.4799C33.7113 48.5797 33.7593 48.688 33.7914 48.8013C33.8443 48.9749 33.904 49.146 33.9605 49.3163L34.5511 49.8547C34.5491 49.8583 34.5475 49.8619 34.5458 49.8659C34.535 49.8629 34.5245 49.8587 34.5146 49.8527C34.406 49.7602 34.2967 49.6696 34.191 49.5714C34.1112 49.4982 34.0409 49.4138 33.9602 49.3426C33.887 49.2779 33.8065 49.2221 33.7284 49.1653C33.691 49.1374 33.6483 49.1148 33.6132 49.0849C33.5685 49.0531 33.5262 49.0179 33.4868 48.9798C33.2196 48.7057 32.9369 48.4539 32.6113 48.2619C32.4623 48.1713 32.3006 48.1037 32.1317 48.061C31.9347 48.0144 31.7389 48.0101 31.5474 48.0909C31.4669 48.1243 31.3936 48.1729 31.3316 48.2346C31.3226 48.2445 31.3141 48.255 31.3065 48.2658C31.3464 48.3157 31.384 48.364 31.4236 48.4113C31.589 48.6122 31.7529 48.8131 31.9219 49.0097C32.0754 49.1877 32.2332 49.3613 32.3915 49.532C32.5709 49.7277 32.7512 49.922 32.9336 50.1137C33.2347 50.4377 33.5541 50.7437 33.8902 51.0306C34.0163 51.136 34.1516 51.2315 34.2825 51.329C34.5737 51.549 34.8511 51.7863 35.1138 52.0401C35.2142 52.1363 35.3193 52.2269 35.4243 52.3168C35.4588 52.3415 35.4949 52.3638 35.5326 52.3828C35.7106 52.4938 35.8741 52.6267 36.0188 52.7787C36.0618 52.8227 36.1032 52.8684 36.1449 52.9133C36.1531 52.9225 36.1587 52.934 36.161 52.9462C35.9433 52.7787 35.7355 52.5985 35.5087 52.4491C35.4762 52.4767 35.4926 52.5023 35.4992 52.5243C35.529 52.6254 35.5586 52.7252 35.5914 52.8267C35.6823 53.1031 35.7746 53.3792 35.8678 53.6546C35.8833 53.694 35.8967 53.7344 35.9079 53.7751C35.7867 53.7006 35.6709 53.6172 35.5619 53.5256C35.4512 53.4369 35.3413 53.3473 35.2306 53.258L35.2214 53.2672C35.2418 53.2932 35.2612 53.3204 35.2828 53.3444C35.442 53.5256 35.6229 53.6868 35.8212 53.8237C35.8255 53.8279 35.8304 53.8315 35.8357 53.8348C35.9555 53.8903 36.049 53.9855 36.1501 54.0709C36.4085 54.2885 36.6721 54.4996 36.9321 54.7156C37.0759 54.8361 37.2174 54.9566 37.3582 55.0826C37.3979 55.1187 37.4308 55.1667 37.4708 55.2051C37.6455 55.3741 37.8198 55.5445 37.998 55.7096C38.2098 55.9053 38.4274 56.0924 38.6372 56.2887C38.9172 56.5507 39.1989 56.8133 39.4615 57.097C39.6729 57.3245 39.8781 57.5582 40.04 57.8307C40.0666 57.875 40.0895 57.9223 40.1165 57.9722C40.104 57.9892 40.0909 58.0053 40.0764 58.0204C39.9589 58.1288 39.8089 58.1951 39.65 58.2089C39.4376 58.2315 39.2373 58.1793 39.0426 58.0949C38.7679 57.9695 38.5151 57.8011 38.2932 57.5956C38.1622 57.4794 38.0391 57.3524 37.9107 57.2339C37.8746 57.2017 37.8359 57.1721 37.7955 57.1452C37.7358 57.1032 37.6753 57.0609 37.6143 57.0228C37.5273 56.9693 37.461 56.8895 37.3861 56.8219C37.245 56.6919 37.1064 56.5599 36.9626 56.4322C36.9196 56.3961 36.872 56.3662 36.8212 56.3432C37.0257 56.5494 37.244 56.7378 37.4603 56.9427C37.5099 57.0924 37.5627 57.2503 37.6146 57.4078C37.6373 57.4761 37.6517 57.5477 37.6799 57.6127C37.7075 57.6711 37.7397 57.7269 37.7765 57.7798C37.9843 58.1005 38.175 58.4318 38.348 58.7722C38.4232 58.9157 38.4852 59.0657 38.5332 59.2203C38.543 59.2544 38.5499 59.2899 38.5581 59.3263C38.5062 59.3953 38.4353 59.4475 38.3546 59.477C38.1921 59.5358 38.0378 59.5049 37.8904 59.4215C37.7321 59.3234 37.5926 59.197 37.4787 59.0489C37.2729 58.7948 37.0953 58.5184 36.9492 58.2253C36.8993 58.1317 36.8425 58.0421 36.7795 57.9571C36.4742 57.531 36.1712 57.1019 35.8839 56.6613C35.8458 56.599 35.8041 56.5389 35.7592 56.4814C35.7585 56.4965 35.7592 56.5123 35.7611 56.5274C35.8074 56.7493 35.8586 56.9693 35.9 57.1928C35.9226 57.3153 35.9282 57.4413 35.943 57.5654C35.946 57.5904 35.9519 57.615 35.9607 57.6386C36.051 57.8855 36.1465 58.1307 36.2316 58.3796C36.2706 58.5069 36.3031 58.6363 36.3287 58.7669C36.3343 58.8086 36.3366 58.8507 36.335 58.8927C36.3235 58.9029 36.3113 58.9124 36.2982 58.9212C36.0986 59.0378 35.8915 59.0148 35.7122 58.8572C35.5931 58.7446 35.4978 58.6087 35.4322 58.458C35.3252 58.2217 35.2428 57.9748 35.187 57.7214C35.1781 57.6846 35.1666 57.6485 35.1525 57.6134C34.9982 57.2355 34.839 56.8609 34.6903 56.4804C34.6072 56.2677 34.5386 56.0471 34.4697 55.8278C34.3856 55.5622 34.3068 55.295 34.2297 55.0275C34.1965 54.9142 34.169 54.799 34.1374 54.6782L33.9132 54.5337C33.9037 54.5508 33.8948 54.5682 33.8873 54.5863C33.7675 54.9073 33.6532 55.2317 33.5318 55.5527C33.4746 55.7129 33.408 55.8695 33.3318 56.0218C33.2757 56.1413 33.2317 56.2667 33.2012 56.3954C33.1293 56.6423 33.063 56.8918 32.9862 57.1373C32.9333 57.3061 32.8686 57.4706 32.8059 57.6354C32.7832 57.6892 32.7566 57.7414 32.726 57.7913C32.7101 57.8136 32.6924 57.8349 32.6732 57.8546C32.6005 57.8317 32.537 57.786 32.4922 57.724C32.4163 57.6285 32.3656 57.5149 32.3447 57.3944C32.3045 57.1682 32.3088 56.9361 32.3575 56.7116C32.3887 56.5537 32.4314 56.399 32.4674 56.2421C32.4782 56.1948 32.4842 56.1463 32.4906 56.0977C32.5174 55.8915 32.5402 55.6847 32.5705 55.4792C32.5913 55.3429 32.6237 55.209 32.6505 55.0738C32.6792 54.9264 32.7064 54.778 32.7348 54.6319C32.7476 54.5656 32.762 54.4993 32.7747 54.431C33.0026 54.3752 33.2366 54.3489 33.471 54.3528C33.4605 54.3427 33.4484 54.3348 33.4349 54.3295C33.4218 54.3243 33.4073 54.3217 33.3929 54.3223C33.1989 54.3066 33.0026 54.2954 32.8175 54.3719C32.726 54.4096 32.6321 54.4123 32.5378 54.4313C32.4434 54.4504 32.3536 54.4871 32.2732 54.54C32.2021 54.5879 32.1428 54.6513 32.0998 54.7255C32.0569 54.8 32.0312 54.883 32.025 54.969C32.0122 55.0935 32.0086 55.2192 32.0042 55.3439C31.9974 55.5448 31.9943 55.7438 31.9875 55.9437C31.9818 56.1115 31.9775 56.2795 31.9655 56.4466C31.9535 56.6137 31.9379 56.773 31.9159 56.9348C31.8951 57.0881 31.8692 57.2408 31.836 57.3918C31.7769 57.6672 31.6901 57.9315 31.5255 58.157C31.3336 58.4213 31.0791 58.5099 30.7766 58.4547C30.7342 58.4469 30.6926 58.4337 30.6451 58.4222C30.6575 58.025 30.6791 57.6376 30.8489 57.2739C30.8297 57.1643 30.8089 57.0497 30.7897 56.9345C30.7666 56.7966 30.7434 56.6584 30.723 56.5202C30.7002 56.3649 30.6786 56.2093 30.6599 56.0534C30.6426 55.944 30.6384 55.8331 30.6475 55.7228C30.6503 55.706 30.6503 55.689 30.6475 55.6722C30.6115 55.4963 30.5763 55.3196 30.538 55.144C30.4793 54.8732 30.4205 54.602 30.3569 54.3322C30.2973 54.0791 30.2342 53.8269 30.1679 53.5758C30.1205 53.3792 30.0548 53.1871 29.9717 53.0026C29.9623 52.9793 29.9499 52.9573 29.9345 52.9376C29.8546 52.8444 29.8146 52.7288 29.7811 52.6107C29.7243 52.4065 29.6803 52.1993 29.6492 51.9895C29.6192 51.7968 29.5885 51.6038 29.5613 51.4108C29.5445 51.2929 29.5329 51.1751 29.5213 51.0566C29.5121 50.9722 29.5041 50.8878 29.4965 50.8031C29.4841 50.7217 29.4597 50.6426 29.4242 50.5684C29.3208 50.3084 29.3182 50.3002 29.2148 50.0405V46.2876H42.3412V60.4038ZM36.1347 50.5254L35.7976 49.9985C35.8734 50.0569 36.1117 50.4249 36.1347 50.5254Z" fill="#FFFEB3" fill-opacity="0.3"/>
<path d="M23.3093 24.457C24.1252 24.457 24.7866 23.7956 24.7866 22.9797C24.7866 22.1638 24.1252 21.5024 23.3093 21.5024C22.4934 21.5024 21.832 22.1638 21.832 22.9797C21.832 23.7956 22.4934 24.457 23.3093 24.457Z" fill="#FF0000"/>
<path d="M23.3093 28.3964C24.1252 28.3964 24.7866 27.735 24.7866 26.9192C24.7866 26.1033 24.1252 25.4419 23.3093 25.4419C22.4934 25.4419 21.832 26.1033 21.832 26.9192C21.832 27.735 22.4934 28.3964 23.3093 28.3964Z" fill="#FF0000"/>
<path d="M23.3094 32.4996C24.2159 32.4996 24.9508 31.7647 24.9508 30.8582C24.9508 29.9517 24.2159 29.2168 23.3094 29.2168C22.4029 29.2168 21.668 29.9517 21.668 30.8582C21.668 31.7647 22.4029 32.4996 23.3094 32.4996Z" fill="#05A05F"/>
<path d="M23.3093 36.2749C24.1252 36.2749 24.7866 35.6135 24.7866 34.7976C24.7866 33.9817 24.1252 33.3203 23.3093 33.3203C22.4934 33.3203 21.832 33.9817 21.832 34.7976C21.832 35.6135 22.4934 36.2749 23.3093 36.2749Z" fill="#FF0000"/>
<path d="M30.8569 21.9946H27.9023V23.9643H30.8569V21.9946Z" fill="#8088AB"/>
<path d="M37.7528 21.9946H31.8438V23.9643H37.7528V21.9946Z" fill="#8088AB"/>
<path d="M49.8999 21.9946H38.7383V23.9643H49.8999V21.9946Z" fill="#8088AB"/>
<path d="M34.7963 25.9341H27.9023V27.9038H34.7963V25.9341Z" fill="#8088AB"/>
<path d="M37.0944 25.9341H35.7812V27.9038H37.0944V25.9341Z" fill="#8088AB"/>
<path d="M40.7083 25.9341H38.082V27.9038H40.7083V25.9341Z" fill="#8088AB"/>
<path d="M49.8985 25.9341H41.6914V27.9038H49.8985V25.9341Z" fill="#8088AB"/>
<path d="M38.7357 29.8735H27.9023V31.8432H38.7357V29.8735Z" fill="#8088AB"/>
<path d="M43.9903 29.8735H39.7227V31.8432H43.9903V29.8735Z" fill="#8088AB"/>
<path d="M49.8969 29.8735H44.9727V31.8432H49.8969V29.8735Z" fill="#8088AB"/>
<path d="M35.7811 33.813H27.9023V35.7827H35.7811V33.813Z" fill="#8088AB"/>
<path d="M44.6444 33.813H36.7656V35.7827H44.6444V33.813Z" fill="#8088AB"/>
<path d="M49.8966 33.813H45.6289V35.7827H49.8966V33.813Z" fill="#8088AB"/>
<path d="M29.8094 19.3685H30.655V15.6963H28.4766V19.3685H29.3222V16.4041H29.8094V19.3685ZM31.251 18.5917C31.251 18.9364 31.4302 19.4282 32.2207 19.4282C33.0114 19.4282 33.1906 18.9364 33.1906 18.5917V17.2084C33.1906 16.8637 33.0114 16.3719 32.2207 16.3719C31.4302 16.3719 31.251 16.8637 31.251 17.2084V18.5917ZM32.4 18.6469C32.4 18.748 32.4 18.8859 32.2207 18.8859C32.0415 18.8859 32.0415 18.748 32.0415 18.6469V17.1532C32.0415 17.0521 32.0415 16.9142 32.2207 16.9142C32.4 16.9142 32.4 17.0521 32.4 17.1532V18.6469ZM35.1715 18.7434H34.5694C34.7165 18.4079 34.8222 17.9161 34.8222 17.4841V17.0429H35.1715V18.7434ZM35.2542 19.874H36.0723V18.7434H35.9344V16.4316H34.0868V17.1532C34.0868 17.7415 34.0409 18.3987 33.8203 18.7434H33.6824V19.874H34.4729V19.3685H35.2542V19.874ZM36.5624 19.3685H37.3529V17.0567H37.739V19.3685H38.5295V16.4316H36.5624V19.3685ZM39.1171 19.3685H40.0179L40.6246 17.4657H40.6338V19.3685H41.4243V16.4316H40.5235L39.9168 18.2746H39.9076V16.4316H39.1171V19.3685ZM42.0129 18.5917C42.0129 18.9364 42.1922 19.4282 42.9827 19.4282C43.787 19.4282 43.9524 18.9364 43.9524 18.5917V18.1184H43.1619V18.6469C43.1619 18.748 43.1619 18.8859 42.9827 18.8859C42.8034 18.8859 42.8034 18.748 42.8034 18.6469V17.1532C42.8034 17.0521 42.8034 16.9142 42.9827 16.9142C43.1619 16.9142 43.1619 17.0521 43.1619 17.1532V17.5209H43.9524V17.2084C43.9524 16.8453 43.787 16.3719 42.9827 16.3719C42.1922 16.3719 42.0129 16.8637 42.0129 17.2084V18.5917ZM44.5407 19.3685H45.3588V17.9115H45.368L45.8276 19.3685H46.6456L46.1309 17.7185L46.6456 16.4316H45.8276L45.368 17.6542H45.3588V16.4316H44.5407V19.3685ZM48.3356 19.3685H49.0618V17.2911C49.0618 16.6568 48.8182 16.3719 48.1058 16.3719C47.5635 16.3719 47.1775 16.6568 47.1775 17.0889V17.3554H47.9128V17.1164C47.9128 16.9923 47.9726 16.9142 48.115 16.9142C48.2621 16.9142 48.2989 17.0015 48.2989 17.1578C48.2989 17.4749 48.0139 17.5439 47.7198 17.668C47.4302 17.7966 47.1223 17.9805 47.1223 18.532C47.1223 19.0054 47.1866 19.4282 47.7657 19.4282C47.9863 19.4282 48.207 19.3225 48.3264 19.1433H48.3356V19.3685ZM48.2989 18.6791C48.2989 18.8215 48.2391 18.9364 48.115 18.9364C48.0047 18.9364 47.9404 18.8675 47.9404 18.702V18.3114C47.9404 18.1965 47.9863 18.1184 48.0783 18.0494L48.2989 17.8978V18.6791Z" fill="black"/>
</g>
</g>
<defs>
<filter id="filter0_d_259_2902" x="-3.85156" y="38.4805" width="79.2656" height="34.6909" filterUnits="userSpaceOnUse" color-interpolation-filters="sRGB">
<feFlood flood-opacity="0" result="BackgroundImageFix"/>
<feColorMatrix in="SourceAlpha" type="matrix" values="0 0 0 0 0 0 0 0 0 0 0 0 0 0 0 0 0 0 127 0" result="hardAlpha"/>
<feOffset dy="4"/>
<feGaussianBlur stdDeviation="2"/>
<feComposite in2="hardAlpha" operator="out"/>
<feColorMatrix type="matrix" values="0 0 0 0 0 0 0 0 0 0 0 0 0 0 0 0 0 0 0.25 0"/>
<feBlend mode="normal" in2="BackgroundImageFix" result="effect1_dropShadow_259_2902"/>
<feBlend mode="normal" in="SourceGraphic" in2="effect1_dropShadow_259_2902" result="shape"/>
</filter>
<clipPath id="clip0_259_2902">
<rect width="71.8939" height="65" fill="white"/>
</clipPath>
</defs>
</svg>
