<svg width="18" height="12" viewBox="0 0 18 12" fill="none" xmlns="http://www.w3.org/2000/svg">
<path d="M9.73688 11.25C4.09947 11.25 0.883979 7.30859 0.75 0.75H3.57386C3.66661 5.56383 5.74844 7.60288 7.39741 8.0233V0.75H10.0564V4.90167C11.6847 4.72299 13.3955 2.83109 13.9727 0.75H16.6316C16.4142 1.82931 15.9806 2.85125 15.3582 3.75189C14.7358 4.65253 13.9378 5.4125 13.0142 5.98426C14.0452 6.50669 14.9557 7.24615 15.6859 8.15384C16.416 9.06153 16.9491 10.1168 17.25 11.25H14.3231C14.053 10.2657 13.504 9.38464 12.745 8.71715C11.986 8.04966 11.0507 7.62549 10.0564 7.49778V11.25H9.73688V11.25Z" fill="#6F6F6E"/>
</svg>
