<svg width="28" height="28" viewBox="0 0 28 28" fill="none" xmlns="http://www.w3.org/2000/svg">
<path fill-rule="evenodd" clip-rule="evenodd" d="M1.42307 1.42307C0.858977 1.98716 0.858977 2.90173 1.42307 3.46582L11.9572 14L1.42307 24.5342C0.858978 25.0983 0.858978 26.0128 1.42307 26.5769C1.98716 27.141 2.90173 27.141 3.46582 26.5769L15.0214 15.0214C15.5855 14.4573 15.5855 13.5427 15.0214 12.9786L3.46582 1.42307C2.90173 0.858977 1.98716 0.858977 1.42307 1.42307ZM12.9786 1.42307C12.4145 1.98716 12.4145 2.90173 12.9786 3.46582L23.5128 14L12.9786 24.5342C12.4145 25.0983 12.4145 26.0128 12.9786 26.5769C13.5427 27.141 14.4573 27.141 15.0214 26.5769L26.5769 15.0214C27.141 14.4573 27.141 13.5427 26.5769 12.9786L15.0214 1.42307C14.4573 0.858977 13.5427 0.858977 12.9786 1.42307Z" fill="white" stroke="white" stroke-linecap="round" stroke-linejoin="round"/>
</svg>
