<svg width="28" height="28" viewBox="0 0 28 28" fill="none" xmlns="http://www.w3.org/2000/svg">
<path fill-rule="evenodd" clip-rule="evenodd" d="M26.5769 26.5769C27.141 26.0128 27.141 25.0983 26.5769 24.5342L16.0428 14L26.5769 3.46582C27.141 2.90173 27.141 1.98716 26.5769 1.42307C26.0128 0.858974 25.0983 0.858974 24.5342 1.42307L12.9786 12.9786C12.4145 13.5427 12.4145 14.4573 12.9786 15.0214L24.5342 26.5769C25.0983 27.141 26.0128 27.141 26.5769 26.5769ZM15.0214 26.5769C15.5855 26.0128 15.5855 25.0983 15.0214 24.5342L4.4872 14L15.0214 3.46582C15.5855 2.90173 15.5855 1.98716 15.0214 1.42307C14.4573 0.858974 13.5427 0.858974 12.9786 1.42307L1.42307 12.9786C0.85898 13.5427 0.85898 14.4573 1.42307 15.0214L12.9786 26.5769C13.5427 27.141 14.4573 27.141 15.0214 26.5769Z" fill="white" stroke="white" stroke-linecap="round" stroke-linejoin="round"/>
</svg>
