<svg width="301" height="124" viewBox="0 0 301 124" fill="none" xmlns="http://www.w3.org/2000/svg">
<rect y="-1" width="300" height="125" fill="#9E1200"/>
<g clip-path="url(#clip0_204_8165)">
<path d="M60.3421 84.2026C59.9982 83.6573 59.6544 83.112 59.3046 82.5696C58.9547 82.0273 58.6139 81.5 58.261 80.9696C57.9536 80.4204 57.5842 79.9078 57.1602 79.4415C57.9685 81.2123 59.1085 82.7374 60.2456 84.2715L60.3421 84.2026Z" fill="white"/>
<path d="M9.04688 6.98828V114.624H291.381V6.98828H9.04688ZM289.671 112.925H111.212V87.9357C110.997 87.7476 110.812 87.5284 110.663 87.2855V87.4353C110.663 87.3754 110.663 87.3214 110.663 87.2615C110.425 86.867 110.266 86.4305 110.196 85.9761C110.147 85.6975 110.12 85.4248 110.099 85.1581C109.295 82.9349 108.502 80.7117 107.719 78.4884C107.652 78.2942 107.605 78.0933 107.581 77.8892C107.439 76.6907 107.327 75.4592 107.164 74.2517C106.923 72.4799 106.663 70.7111 106.383 68.9453C106.22 67.9176 106.039 66.8838 105.78 65.8741C105.521 64.8643 105.201 63.8127 104.875 62.7879C104.799 62.5328 104.674 62.2947 104.507 62.0868C103.874 61.3527 103.545 60.4508 103.235 59.543C102.562 57.5924 102.028 55.5969 101.546 53.5864C101.244 52.313 100.906 51.0455 100.62 49.7661C100.219 47.9683 99.8476 46.1526 99.4615 44.3429C99.2413 43.3091 99.0182 42.2754 98.801 41.2417C98.783 41.1326 98.783 41.0213 98.801 40.9121C98.8923 40.0904 98.8639 39.2599 98.7165 38.4462C98.3969 36.157 98.0259 33.8769 97.67 31.5937C97.5554 30.8596 97.4227 30.1285 97.2869 29.3465C98.4632 26.9225 98.6683 24.2528 98.795 21.5382C98.8101 21.2745 98.795 21.0079 98.7769 20.7622C96.364 19.8962 93.8698 20.3577 92.1416 22.6408C91.253 23.8793 90.5913 25.2638 90.1872 26.7307C89.7229 28.3396 89.3831 29.9813 89.1708 31.6416C88.8568 33.9988 88.6765 36.3716 88.6309 38.7488C88.5797 40.7623 88.5435 42.7758 88.4711 44.7863C88.4445 45.5137 88.3679 46.2385 88.2419 46.9556C88.1413 47.6081 87.8799 48.2258 87.4811 48.7538C87.0822 49.2817 86.5583 49.7036 85.9557 49.9818C85.1842 50.3559 84.3456 50.5738 83.4886 50.6231C83.2811 50.6277 83.0765 50.6714 82.8854 50.7519C82.0352 51.1452 81.1089 51.3497 80.171 51.3511C79.3042 51.3645 78.4373 51.3315 77.5742 51.2523C79.2963 51.0605 81.0396 51.0575 82.7557 50.5451C82.8492 50.1137 82.9457 49.6852 83.0332 49.2537C83.3981 47.423 83.7781 45.5983 84.1189 43.7646C84.309 42.7548 84.4477 41.7331 84.5894 40.7144C84.7433 39.5848 84.8428 38.4462 85.0238 37.3226C85.1203 36.7233 85.3254 36.1241 85.4912 35.5248C85.8152 34.2852 86.0381 33.0217 86.1578 31.7465C86.2438 30.8632 86.2347 29.9732 86.1306 29.0918C85.9497 27.6416 85.4912 26.3203 84.3633 25.3674C84.1238 25.1633 83.8347 25.0249 83.5248 24.9659C83.2553 25.1158 83.048 25.3557 82.9397 25.6431C82.5446 26.512 82.1284 27.3749 81.7996 28.2708C80.7772 31.0484 79.99 33.9068 79.236 36.7803C79.0889 37.3235 78.8868 37.8505 78.6328 38.3533C78.1231 39.372 77.6586 40.4237 77.2454 41.4934C76.3225 43.8904 75.4358 46.2874 74.5461 48.6845C74.4254 49.0051 74.3138 49.3257 74.1811 49.7032L72.5374 48.6605C71.9583 46.659 71.4245 44.7474 70.8454 42.8537C70.2211 40.8192 69.5907 38.7878 68.891 36.7833C68.3481 35.2222 67.7087 33.7001 67.0814 32.172C66.3213 30.3113 65.5161 28.4716 64.7651 26.6079C64.5697 26.0417 64.4085 25.4644 64.2825 24.879C63.7517 22.8865 63.0972 20.9509 62.0205 19.2101C61.4173 18.2153 60.6693 17.3494 59.6378 16.8131C59.0381 16.5156 58.3661 16.3918 57.6989 16.4559C57.0316 16.52 56.396 16.7695 55.8648 17.1756C55.7891 17.5872 55.8024 18.01 55.904 18.4161C56.1379 19.6252 56.4697 20.8136 56.8962 21.9697C57.4663 23.5367 58.0755 25.0858 58.6576 26.6468C58.7245 26.8411 58.77 27.0421 58.7933 27.2461C58.923 28.2648 59.0105 29.2926 59.1824 30.3053C59.3875 31.5218 59.6589 32.7233 59.9093 33.9308C59.9907 34.3293 60.0962 34.7218 60.1897 35.1293L60.0782 35.2222C60.05 35.138 60.0136 35.0567 59.9696 34.9795C58.5551 32.8821 57.1556 30.7637 55.714 28.6873C54.4563 26.8895 53.1262 25.1158 51.8776 23.294C51.3618 22.5419 50.9727 21.688 50.5234 20.897C49.3501 18.8266 48.0683 16.84 46.4246 15.1501C45.6818 14.3376 44.7968 13.6655 43.8127 13.1666C42.7088 12.6452 41.5808 12.4805 40.4227 12.9808C39.905 13.2267 39.4401 13.5695 39.0534 13.9906C39.0652 14.1597 39.0883 14.3279 39.1228 14.494C39.4434 15.6783 39.8924 16.8246 40.4619 17.9127C41.8111 20.5906 43.3219 23.1851 44.9859 25.682C45.458 26.426 45.8206 27.2331 46.0626 28.0791C46.4608 29.3735 46.9132 30.6499 47.3384 31.9203L51.7961 35.9353C51.7812 35.9624 51.7682 35.9904 51.7569 36.0192C51.674 35.998 51.5947 35.9647 51.5217 35.9203C50.7013 35.2312 49.8749 34.554 49.0787 33.8229C48.4755 33.2776 47.9446 32.6484 47.3354 32.1151C46.7835 31.6327 46.1773 31.2162 45.5861 30.7937C45.3056 30.587 44.9829 30.4162 44.7175 30.1944C44.3804 29.9569 44.0618 29.6945 43.7644 29.4094C41.7467 27.366 39.6144 25.4873 37.1563 24.0551C36.0318 23.3792 34.8119 22.8742 33.5371 22.5569C32.0502 22.2094 30.5723 22.1764 29.1276 22.7787C28.5198 23.0278 27.9667 23.3922 27.499 23.8513C27.4305 23.9249 27.367 24.003 27.309 24.085C27.6106 24.4566 27.8941 24.8161 28.1927 25.1697C29.4413 26.6678 30.6779 28.166 31.9536 29.6341C33.1118 30.9615 34.3031 32.2559 35.4975 33.5293C36.8517 34.9885 38.2119 36.4387 39.5902 37.8679C41.8613 40.2844 44.2711 42.5684 46.8076 44.7084C47.7607 45.4934 48.7801 46.2065 49.7694 46.9346C51.9666 48.5747 54.0616 50.3457 56.0427 52.238C56.7997 52.9542 57.5929 53.6313 58.3862 54.3025C58.6459 54.4863 58.9191 54.6505 59.2035 54.7939C60.5471 55.6215 61.7803 56.6141 62.874 57.7482C63.1967 58.0748 63.5104 58.4164 63.8241 58.7519C63.886 58.8203 63.9277 58.9043 63.9447 58.9946C62.304 57.7482 60.7356 56.4029 59.0225 55.2882C58.7782 55.495 58.9019 55.6838 58.9502 55.8486C59.1764 56.6036 59.3995 57.3467 59.6469 58.1048C60.3345 60.1662 61.0302 62.2246 61.734 64.2801C61.85 64.5743 61.9507 64.8744 62.0356 65.179C61.1202 64.6231 60.2473 64.0012 59.4237 63.3183C58.5882 62.6561 57.7588 61.9879 56.9234 61.3228L56.854 61.3917C57.0078 61.5834 57.1556 61.7872 57.3185 61.967C58.5204 63.319 59.8848 64.5195 61.3811 65.5415C61.4144 65.5729 61.4508 65.601 61.4897 65.6254C62.3945 66.0389 63.1002 66.749 63.8633 67.3842C65.8146 69.0082 67.8022 70.5842 69.7657 72.1932C70.8514 73.0921 71.9191 73.991 72.9807 74.9318C73.2823 75.2015 73.5297 75.5581 73.8313 75.8457C75.1493 77.1071 76.4643 78.3776 77.8094 79.609C79.4079 81.0682 81.0516 82.4645 82.6351 83.9297C84.7463 85.8832 86.8726 87.8428 88.8541 89.9582C90.4496 91.6541 91.9998 93.3979 93.2213 95.4294C93.4204 95.7619 93.5953 96.1125 93.7974 96.4871C93.7042 96.6128 93.6035 96.7329 93.4958 96.8466C92.6085 97.6549 91.4771 98.149 90.2777 98.2519C88.6732 98.4196 87.1621 98.0301 85.6933 97.4009C83.6208 96.4663 81.7118 95.209 80.0383 93.6765C79.049 92.8106 78.1201 91.8638 77.1519 90.9799C76.8775 90.739 76.5862 90.5177 76.2803 90.3177C75.8309 90.0031 75.3755 89.6885 74.914 89.4038C74.2565 89.0053 73.7559 88.4091 73.1919 87.9057C72.1272 86.9349 71.0806 85.9521 69.9949 84.9993C69.671 84.7305 69.3118 84.5067 68.9272 84.3342C70.4714 85.8742 72.1182 87.2795 73.7528 88.8076C74.1268 89.9222 74.5249 91.0997 74.917 92.2773C75.0859 92.7866 75.1975 93.32 75.4086 93.8054C75.6171 94.2401 75.8612 94.657 76.1385 95.0518C77.7049 97.4425 79.1445 99.9128 80.4515 102.453C81.0185 103.523 81.4859 104.642 81.8479 105.796C81.9233 106.051 81.9746 106.315 82.0379 106.587C81.6446 107.101 81.1105 107.491 80.4997 107.711C79.2752 108.149 78.111 107.918 76.9981 107.298C75.8023 106.564 74.7498 105.622 73.8916 104.517C72.3371 102.621 70.997 100.561 69.8953 98.3747C69.5183 97.677 69.0899 97.0081 68.6135 96.3732C66.3093 93.1941 64.0231 89.9941 61.8546 86.7072C61.5663 86.2427 61.2522 85.7945 60.9136 85.3649C60.9079 85.4799 60.913 85.5953 60.9287 85.7094C61.2785 87.3634 61.6646 89.0053 61.9752 90.6713C62.1472 91.5851 62.1894 92.526 62.301 93.4518C62.3223 93.6384 62.3669 93.8215 62.4337 93.9971C63.1153 95.8399 63.8361 97.6676 64.4785 99.5253C64.7741 100.475 65.0188 101.439 65.2114 102.414C65.2549 102.724 65.2711 103.038 65.2597 103.352C65.1722 103.429 65.0795 103.5 64.9822 103.564C63.4742 104.433 61.9119 104.262 60.5577 103.088C59.6586 102.247 58.9404 101.234 58.4465 100.11C57.6378 98.3471 57.0171 96.5053 56.5946 94.6144C56.5278 94.3399 56.4411 94.0705 56.3353 93.8084C55.1711 90.9919 53.9677 88.1964 52.8457 85.3589C52.2184 83.7709 51.7026 82.1259 51.1809 80.4899C50.5475 78.5094 49.9533 76.5169 49.3712 74.5213C49.1209 73.6764 48.9128 72.8165 48.6745 71.9146L46.9825 70.8389C46.91 70.9651 46.8445 71.0951 46.7865 71.2284C45.8817 73.6255 45.0191 76.0434 44.1022 78.4375C43.6724 79.6337 43.1687 80.8025 42.5942 81.9371C42.1701 82.8299 41.8396 83.7637 41.608 84.7237C41.0651 86.5664 40.5644 88.4271 39.9853 90.2578C39.5872 91.5162 39.0986 92.7447 38.6251 93.9732C38.4542 94.3754 38.2526 94.7641 38.0219 95.1357C37.902 95.3037 37.7689 95.462 37.6238 95.6091C37.0749 95.4387 36.5959 95.0972 36.2575 94.6353C35.6847 93.9211 35.302 93.0751 35.1446 92.1754C34.8409 90.4876 34.8737 88.757 35.2411 87.0817C35.4764 85.9042 35.7991 84.7506 36.0705 83.5821C36.152 83.2285 36.1972 82.866 36.2455 82.5034C36.4475 80.9663 36.6194 79.4233 36.8487 77.8892C37.0055 76.8734 37.2498 75.8757 37.4519 74.8659C37.669 73.7663 37.8741 72.6607 38.0883 71.57C38.1848 71.0756 38.2933 70.5812 38.3899 70.0719C40.1089 69.6554 41.8746 69.4591 43.6438 69.4876C43.566 69.4125 43.4739 69.3537 43.3729 69.3146C43.2719 69.2755 43.164 69.2569 43.0557 69.2599C41.5899 69.143 40.109 69.0591 38.7126 69.6314C38.0219 69.9131 37.3131 69.9311 36.6014 70.0749C35.8897 70.2148 35.2119 70.4895 34.6047 70.8839C34.0684 71.2409 33.6209 71.7146 33.2964 72.2691C32.9719 72.8235 32.7788 73.4442 32.7318 74.0839C32.6353 75.0127 32.6081 75.9506 32.5749 76.8824C32.5237 78.3805 32.4995 79.8637 32.4483 81.3559C32.406 82.6053 32.3729 83.8607 32.2824 85.1072C32.1919 86.3536 32.0743 87.5402 31.9084 88.7477C31.7516 89.8922 31.5555 91.0308 31.3052 92.1574C30.8588 94.2099 30.2043 96.1814 28.9617 97.8653C27.514 99.8369 25.5928 100.496 23.3097 100.086C22.99 100.026 22.6763 99.9298 22.3174 99.8429C22.4109 96.8796 22.5738 93.9911 23.8556 91.2765C23.7108 90.4585 23.554 89.6046 23.4092 88.7447C23.2343 87.7169 23.0594 86.6862 22.9055 85.6555C22.7336 84.4959 22.5708 83.3364 22.429 82.1738C22.2984 81.3586 22.267 80.5306 22.3355 79.7079C22.3566 79.5829 22.3566 79.4553 22.3355 79.3304C22.0641 78.018 21.7987 76.6996 21.5091 75.3903C21.0658 73.3708 20.6224 71.3483 20.1429 69.3348C19.6925 67.4471 19.2169 65.5665 18.7163 63.6928C18.3586 62.2246 17.8628 60.7931 17.2354 59.4171C17.1649 59.2432 17.0705 59.0799 16.9549 58.9317C16.3517 58.2366 16.0501 57.3737 15.7968 56.4928C15.3684 54.9707 15.036 53.4236 14.8015 51.8605C14.5753 50.4223 14.343 48.9841 14.1379 47.5429C14.0113 46.665 13.9238 45.7841 13.8363 44.9002C13.767 44.2709 13.7066 43.6417 13.6493 43.0095C13.5558 42.4026 13.3718 41.8128 13.1034 41.2597C12.3233 39.3201 11.5431 37.3825 10.763 35.4469V8.68717H289.671V112.925ZM63.7487 40.9391L61.2031 37.008C61.7762 37.4454 63.5737 40.19 63.7487 40.9391Z" fill="white"/>
<path d="M115.723 38.1953L114.224 37.9436V30.0664H114.456L118.003 40.9399H122.033L125.142 30.0664H125.371V40.9399H130.761V38.1953L129.262 37.9436V28.8349L130.761 28.5802V25.8386H123.091L120.145 36.1818L116.758 25.8386H109.16V28.5802L110.656 28.8349V37.9436L109.16 38.1953V40.9399H115.723V38.1953Z" fill="white"/>
<path d="M132.808 36.7357C133.136 37.6443 133.664 38.4691 134.352 39.1507C135.026 39.838 135.843 40.3708 136.747 40.7118C137.718 41.073 138.749 41.2518 139.787 41.2391C140.925 41.262 142.055 41.0477 143.104 40.6099C144.062 40.1916 144.911 39.5637 145.59 38.7732C146.742 37.4308 147.318 35.644 147.318 33.4128C147.342 32.269 147.146 31.1312 146.742 30.06C146.392 29.1381 145.843 28.3042 145.131 27.618C144.433 26.9665 143.614 26.4575 142.718 26.1199C141.784 25.7667 140.792 25.5879 139.793 25.5925C138.726 25.5759 137.667 25.7704 136.677 26.1648C135.767 26.5267 134.949 27.0855 134.283 27.8008C133.604 28.5099 133.079 29.349 132.738 30.2667C132.359 31.2898 132.172 32.3735 132.186 33.4638L132.256 33.4128C132.234 34.5446 132.421 35.6707 132.808 36.7357ZM136.563 31.3993C136.691 30.8466 136.952 30.3328 137.323 29.9012C137.612 29.5671 137.964 29.2932 138.36 29.0952C138.821 28.8848 139.325 28.7823 139.832 28.7956C140.343 28.7796 140.851 28.892 141.307 29.1222C141.693 29.3261 142.043 29.5901 142.344 29.9042C142.703 30.3658 142.962 30.8963 143.104 31.4622C143.403 32.6943 143.41 33.9783 143.126 35.2136C143.011 35.7308 142.792 36.2192 142.48 36.6488C142.202 37.0408 141.841 37.3671 141.421 37.6046C140.927 37.868 140.372 37.9982 139.811 37.9821C139.245 37.9971 138.684 37.8758 138.176 37.6286C137.758 37.4235 137.4 37.1137 137.139 36.7297C136.832 36.2773 136.62 35.7676 136.517 35.2316C136.392 34.6273 136.331 34.0117 136.333 33.3948C136.324 32.7227 136.401 32.052 136.563 31.3993Z" fill="white"/>
<path d="M151.234 39.0758C151.977 39.7784 152.853 40.3264 153.812 40.6878C154.837 41.0657 155.923 41.2526 157.015 41.2392C157.477 41.2413 157.938 41.2162 158.397 41.1642C158.826 41.1222 159.251 41.0378 159.664 40.9126C160.088 40.7923 160.504 40.6411 160.906 40.4601C161.288 40.2923 161.734 40.0656 162.242 39.78L161.036 36.8616C160.758 37.0114 160.433 37.1612 160.092 37.314C159.829 37.4307 159.559 37.5308 159.284 37.6137C159.012 37.6821 158.736 37.7322 158.457 37.7635C158.056 37.7994 157.712 37.8144 157.42 37.8144C156.758 37.8204 156.102 37.7004 155.486 37.4609C154.919 37.2402 154.419 36.8767 154.036 36.4062C153.71 36.0149 153.454 35.5724 153.276 35.0968C153.086 34.5638 152.992 34.002 152.998 33.4369C152.959 32.3588 153.277 31.2978 153.903 30.4166C154.249 29.9344 154.717 29.5519 155.26 29.308C155.863 29.0466 156.515 28.9178 157.172 28.9305C157.737 28.924 158.301 28.9834 158.852 29.1072L159.29 32.2024H162.263V26.896C161.772 26.6263 161.31 26.4016 160.879 26.2158C160.471 26.0445 160.048 25.9101 159.615 25.8143C159.208 25.7043 158.791 25.636 158.37 25.6106C157.818 25.5776 157.365 25.5596 157.012 25.5596C155.985 25.5555 154.965 25.7268 153.996 26.066C153.091 26.3832 152.254 26.8693 151.532 27.4982C150.754 28.1856 150.141 29.0374 149.738 29.9911C149.284 31.0658 149.064 32.2238 149.092 33.3889C149.075 34.495 149.262 35.5949 149.644 36.6339C149.997 37.5492 150.538 38.381 151.234 39.0758Z" fill="white"/>
<path d="M170.786 38.2461L169.278 37.9944V34.3989H171.422L174.74 40.9907L179.599 40.9428V38.1982L177.527 37.8985L174.58 32.5382L176.121 29.6708C176.273 29.4215 176.487 29.2151 176.742 29.0715C176.873 29.0024 177.013 28.952 177.159 28.9217C177.318 28.9004 177.48 28.8914 177.641 28.8947H178.609L178.911 25.9524C178.551 25.8432 178.181 25.767 177.807 25.7247C177.417 25.6759 177.024 25.6509 176.631 25.6498C175.832 25.6375 175.045 25.8371 174.351 26.228C174.043 26.4139 173.763 26.643 173.521 26.9082C173.262 27.1991 173.052 27.53 172.9 27.888L171.392 31.1359H169.281V25.8895H163.945V28.6311L165.453 28.8827V37.9944L163.945 38.2461V40.9877H170.786V38.2461Z" fill="white"/>
<path d="M180.732 36.7357C181.06 37.6443 181.588 38.4691 182.276 39.1507C182.95 39.838 183.767 40.3708 184.67 40.7118C185.642 41.0732 186.673 41.252 187.711 41.2391C188.849 41.262 189.979 41.0477 191.028 40.6099C191.985 40.1916 192.835 39.5637 193.514 38.7732C194.666 37.4308 195.242 35.644 195.242 33.4128C195.265 32.269 195.07 31.1312 194.666 30.06C194.316 29.1381 193.766 28.3042 193.055 27.618C192.357 26.9665 191.538 26.4575 190.642 26.1199C189.708 25.7667 188.716 25.5879 187.717 25.5925C186.65 25.5759 185.591 25.7704 184.601 26.1648C183.69 26.5267 182.872 27.0855 182.206 27.8008C181.528 28.5093 181.004 29.3486 180.665 30.2667C180.283 31.2892 180.095 32.3732 180.11 33.4638L180.18 33.4128C180.158 34.5446 180.345 35.6707 180.732 36.7357ZM184.487 31.3993C184.615 30.8466 184.876 30.3328 185.247 29.9012C185.535 29.5671 185.888 29.2932 186.284 29.0952C186.745 28.8848 187.249 28.7823 187.756 28.7956C188.267 28.7796 188.775 28.892 189.231 29.1222C189.616 29.3261 189.967 29.5901 190.268 29.9042C190.626 30.3666 190.885 30.8968 191.028 31.4622C191.327 32.6943 191.334 33.9783 191.049 35.2136C190.935 35.7308 190.716 36.2192 190.404 36.6488C190.126 37.0408 189.765 37.3671 189.345 37.6046C188.851 37.868 188.296 37.9982 187.735 37.9821C187.166 38.0028 186.601 37.8856 186.088 37.6406C185.669 37.4355 185.312 37.1257 185.051 36.7417C184.743 36.2893 184.532 35.7796 184.429 35.2435C184.304 34.6392 184.243 34.0237 184.245 33.4068C184.238 32.7301 184.319 32.0554 184.487 31.3993Z" fill="white"/>
<path d="M208.164 40.61C208.804 40.4131 209.393 40.0786 209.889 39.6303C210.332 39.2295 210.686 38.7405 210.926 38.195C211.186 37.5821 211.312 36.9213 211.294 36.2564C211.288 35.8505 211.226 35.4474 211.11 35.0579C211 34.6846 210.838 34.3285 210.628 34.0003C210.237 33.4547 209.69 33.0374 209.059 32.8017V32.6519C209.241 32.5336 209.411 32.3981 209.566 32.2474C209.702 32.0984 209.826 31.9391 209.937 31.771C210.098 31.5059 210.214 31.2164 210.281 30.9141C210.349 30.5828 210.38 30.2453 210.374 29.9073C210.386 29.3454 210.276 28.7875 210.052 28.2714C209.853 27.8431 209.571 27.4581 209.222 27.1388C208.73 26.7143 208.148 26.4069 207.518 26.2399C206.842 26.0646 206.145 25.98 205.446 25.9882V25.8624H196.787V28.607L198.295 28.8556V37.9673L196.787 38.219V40.9636H205.974C206.718 40.9664 207.458 40.8469 208.164 40.61ZM202.104 29.1852H205.283C205.458 29.1763 205.632 29.2113 205.79 29.2871C205.929 29.371 206.043 29.4459 206.137 29.5118C206.351 29.746 206.466 30.0527 206.46 30.3688C206.461 30.539 206.438 30.7086 206.39 30.8721C206.347 31.0309 206.268 31.1776 206.158 31.3006C206.054 31.4216 205.923 31.5165 205.775 31.5774C205.627 31.6383 205.467 31.6636 205.307 31.6512H202.104V29.1852ZM202.129 37.8175V34.7224H205.835C206.257 34.6908 206.676 34.8157 207.011 35.0729C207.139 35.2099 207.247 35.3631 207.334 35.5284C207.432 35.7406 207.479 35.9722 207.473 36.2055C207.471 36.4108 207.432 36.614 207.355 36.8048C207.283 36.9665 207.191 37.1185 207.081 37.2572C206.925 37.4368 206.73 37.5781 206.51 37.6701C206.29 37.7621 206.052 37.8023 205.814 37.7875L202.129 37.8175Z" fill="white"/>
<path d="M215.394 39.0757C216.139 39.7777 217.016 40.3257 217.976 40.6877C218.999 41.0659 220.084 41.2528 221.176 41.239C221.637 41.2411 222.099 41.2161 222.557 41.1641C222.987 41.1226 223.411 41.0383 223.824 40.9124C224.249 40.7922 224.664 40.641 225.067 40.46C225.453 40.2922 225.896 40.0645 226.403 39.7799L225.196 36.8615C224.919 37.0113 224.593 37.1611 224.252 37.3139C223.99 37.4301 223.721 37.5301 223.447 37.6135C223.174 37.682 222.897 37.7321 222.618 37.7634C222.216 37.7993 221.873 37.8143 221.58 37.8143C220.919 37.8203 220.263 37.7003 219.647 37.4607C219.079 37.2401 218.579 36.8766 218.196 36.406C217.871 36.0148 217.614 35.5722 217.436 35.0967C217.247 34.5637 217.153 34.0019 217.159 33.4367C217.119 32.3587 217.437 31.2977 218.063 30.4165C218.41 29.9336 218.879 29.5509 219.424 29.3079C220.025 29.0459 220.676 28.9171 221.333 28.9303C221.899 28.9239 222.464 28.9832 223.016 29.1071L223.453 32.2023H226.424V26.8959C225.932 26.6262 225.471 26.4015 225.043 26.2157C224.633 26.0448 224.209 25.9104 223.776 25.8142C223.369 25.7039 222.951 25.6356 222.53 25.6105C221.981 25.5655 221.529 25.5655 221.176 25.5655C220.149 25.561 219.129 25.7323 218.16 26.0719C217.254 26.3886 216.418 26.8747 215.696 27.5041C214.911 28.1891 214.293 29.0413 213.886 29.997C213.432 31.0716 213.212 32.2296 213.241 33.3948C213.223 34.5009 213.41 35.6008 213.793 36.6398C214.151 37.5534 214.696 38.383 215.394 39.0757Z" fill="white"/>
<path d="M234.949 38.2462L233.441 37.9945V34.3989H235.582L238.9 40.9907L243.762 40.9428V38.1982L241.687 37.8986L238.74 32.5382L240.284 29.6708C240.435 29.4208 240.65 29.2143 240.906 29.0716C241.035 29.0018 241.174 28.9513 241.319 28.9217C241.479 28.9005 241.64 28.8915 241.801 28.8948H242.791L243.092 25.9524C242.732 25.8429 242.363 25.7667 241.988 25.7247C241.599 25.6759 241.207 25.6509 240.815 25.6498C240.017 25.6371 239.229 25.8367 238.535 26.2281C238.226 26.4132 237.947 26.6424 237.706 26.9082C237.437 27.1922 237.218 27.5194 237.06 27.876L235.552 31.124H233.441V25.8895H228.105V28.6311L229.613 28.8828V37.9945L228.105 38.2462V40.9877H234.949V38.2462Z" fill="white"/>
<path d="M246.875 40.9399H250.47L256.78 31.8042V40.9399H262.121V38.1953L260.625 37.9436V25.8386H256.985L250.72 34.9743V25.8386H245.379V28.5802L246.875 28.8349V40.9399Z" fill="white"/>
<path d="M269.719 23.9749C270.061 24.3041 270.464 24.5626 270.907 24.7355C271.35 24.9083 271.823 24.992 272.298 24.9817C272.776 24.9971 273.251 24.9184 273.698 24.7503C274.145 24.5821 274.554 24.3278 274.901 24.0019C275.23 23.6691 275.489 23.275 275.664 22.8423C275.884 22.3385 276.023 21.8037 276.077 21.2573L273.613 21.0056C273.593 21.2036 273.546 21.3981 273.474 21.5839C273.407 21.7404 273.314 21.885 273.2 22.0123C272.968 22.2039 272.672 22.3031 272.371 22.291C272.058 22.3001 271.754 22.1933 271.517 21.9914C271.404 21.8636 271.311 21.719 271.243 21.5629C271.171 21.377 271.124 21.1826 271.104 20.9846H271.034L268.57 21.2363C268.602 21.7815 268.727 22.3173 268.938 22.8213C269.114 23.2564 269.38 23.6495 269.719 23.9749Z" fill="white"/>
<path d="M265.459 40.9399H269.054L275.363 31.8042V40.9399H280.705V38.1953L279.209 37.9436V25.8386H275.569L269.304 34.9743V25.8386H263.963V28.5802L265.459 28.8349V40.9399Z" fill="white"/>
<path d="M215.471 60.6102L215.815 63.7323H218.785V57.3652H204.414V63.7323H207.388L207.708 60.6102H209.665V69.4702L208.169 69.7219V72.4635H215.009V69.7219L213.513 69.4702V60.6102H215.471Z" fill="white"/>
<path d="M220.469 69.7219V72.4635H233.893V66.9024H230.922L230.693 69.1916H225.81V66.3242H230.554V63.1781H225.81V60.5354H230.44L230.693 62.6238L233.619 62.423L233.456 57.3653H220.469V60.1069L221.965 60.3586V69.4703L220.469 69.7219Z" fill="white"/>
<path d="M251.996 72.4636V69.722L250.451 69.4943L245.662 57.3624H241.518L236.52 69.4703L234.955 69.722V72.4636H241.678V70.1475L240.296 69.8958L240.55 69.1917H246.054L247.206 72.4636H251.996ZM241.563 66.1475L243.243 61.1377H243.496L245.086 66.1475H241.563Z" fill="white"/>
<path d="M262.497 60.6103L262.841 63.7324H265.812V57.3653H251.443V63.7324H254.414L254.737 60.6103H256.694V69.4703L255.195 69.7219V72.4635H262.036V69.7219L260.54 69.4703V60.6103H262.497Z" fill="white"/>
<path d="M279.378 58.5968C278.273 57.8423 276.964 57.439 275.623 57.4403L275.647 57.3624H267.504V60.107L269.012 60.3586V69.4703L267.504 69.722V72.4636H274.344V69.722L272.836 69.4703V68.3857H275.418C276.246 68.3904 277.07 68.2629 277.858 68.0081C278.586 67.7611 279.265 67.3866 279.861 66.9025C280.398 66.4499 280.824 65.881 281.106 65.2396C281.417 64.4991 281.566 63.7015 281.544 62.8995C281.576 62.0593 281.394 61.2247 281.015 60.4727C280.637 59.7207 280.074 59.0755 279.378 58.5968ZM277.396 64.0321C277.291 64.2932 277.126 64.5261 276.914 64.7122C276.678 64.8977 276.403 65.0268 276.109 65.0898C275.776 65.1624 275.436 65.1965 275.095 65.1916L272.815 65.2156V60.6852H275.3C275.604 60.6638 275.908 60.7061 276.194 60.8093C276.48 60.9126 276.741 61.0745 276.959 61.2845C277.165 61.5031 277.324 61.7606 277.428 62.0416C277.532 62.3226 277.577 62.6215 277.562 62.9205C277.58 63.2982 277.524 63.6757 277.396 64.0321Z" fill="white"/>
<path d="M170.549 87.6035H166.994L160.874 96.7392V87.6035H155.656V90.3451L157.116 90.5968V102.702H160.627L166.791 93.5661V102.702H172.012V99.9602L170.549 99.7085V87.6035Z" fill="white"/>
<path d="M188.802 87.6035H176.603V90.3451L178.086 90.5728L176.805 98.1984C176.752 98.5863 176.605 98.9556 176.376 99.274C176.257 99.4181 176.106 99.5321 175.934 99.6066C175.762 99.6811 175.574 99.7139 175.387 99.7025C175.162 99.7066 174.936 99.6976 174.712 99.6755C174.484 99.6382 174.258 99.5881 174.036 99.5257L173.496 102.495C173.9 102.626 174.313 102.726 174.733 102.795C175.188 102.851 175.646 102.876 176.105 102.87C176.66 102.879 177.21 102.777 177.725 102.57C178.182 102.383 178.594 102.1 178.931 101.74C179.289 101.335 179.578 100.876 179.788 100.38C180.018 99.8 180.184 99.1972 180.282 98.5819L181.428 90.8305H185.005V99.6875L183.546 99.9392V102.684L190.25 102.708V99.9662L188.787 99.7145L188.802 87.6035Z" fill="white"/>
<path d="M207.044 87.6035H194.836V90.3451L196.344 90.5848L195.059 98.2103C195.004 98.595 194.855 98.9603 194.624 99.274C194.505 99.4181 194.354 99.5321 194.182 99.6066C194.01 99.6811 193.822 99.7139 193.635 99.7025C193.41 99.7067 193.184 99.6977 192.96 99.6755C192.732 99.6385 192.506 99.5884 192.284 99.5257L191.744 102.495C192.148 102.626 192.561 102.726 192.981 102.795C193.436 102.851 193.894 102.876 194.353 102.87C194.908 102.879 195.458 102.777 195.973 102.57C196.43 102.382 196.841 102.099 197.179 101.74C197.536 101.335 197.825 100.875 198.036 100.38C198.266 99.8 198.432 99.1972 198.53 98.5819L199.676 90.8305H203.253V99.6875L201.791 99.9392V102.684L208.495 102.708V99.9662L207.035 99.7145L207.044 87.6035Z" fill="white"/>
<path d="M229.07 89.6656C228.484 88.8781 227.699 88.258 226.795 87.8678C225.845 87.4557 224.816 87.2514 223.779 87.2686C222.975 87.2601 222.176 87.3878 221.415 87.6461C220.707 87.892 220.051 88.267 219.482 88.7517C218.864 89.258 218.344 89.8723 217.949 90.5645C217.528 91.3448 217.231 92.186 217.072 93.0574H215.476V87.5442L210.301 87.6221V90.3637L211.764 90.6154V99.7271L210.301 99.9788V102.72H216.936V99.9788L215.473 99.7271V96.5121H216.981C217.164 97.463 217.45 98.3914 217.835 99.2807C218.144 100.042 218.604 100.735 219.186 101.318C220.342 102.427 221.872 102.981 223.776 102.981C224.699 102.995 225.615 102.832 226.476 102.502C227.247 102.197 227.945 101.733 228.524 101.141C229.222 100.404 229.758 99.5309 230.098 98.5765C230.49 97.46 230.68 96.2832 230.659 95.1009C230.667 94.0525 230.515 93.0091 230.21 92.0057C229.967 91.1667 229.581 90.3752 229.07 89.6656ZM226.639 96.8147C226.532 97.3372 226.35 97.8417 226.099 98.3129C225.872 98.7331 225.548 99.0944 225.155 99.3675C224.745 99.6473 224.255 99.789 223.758 99.772L223.782 99.6702C223.325 99.6887 222.871 99.5753 222.477 99.3436C222.127 99.1233 221.821 98.8421 221.572 98.5136C221.272 98.0049 221.053 97.453 220.923 96.8776C220.794 96.2869 220.726 95.6844 220.721 95.0799C220.718 94.4452 220.786 93.8121 220.923 93.1922C221.026 92.6351 221.24 92.1042 221.554 91.6312C221.797 91.3043 222.105 91.0301 222.458 90.8252C222.868 90.6132 223.327 90.51 223.788 90.5255C224.22 90.5172 224.646 90.6205 225.025 90.8252C225.357 91.0183 225.653 91.2654 225.903 91.5563C226.25 92.0667 226.494 92.6398 226.621 93.2432C226.755 93.8798 226.824 94.5283 226.826 95.1787C226.815 95.7287 226.752 96.2763 226.639 96.8147Z" fill="white"/>
<path d="M243.828 94.8755C243.583 94.6779 243.311 94.5165 243.019 94.3961V94.2463C243.438 93.9778 243.766 93.5919 243.963 93.1377C244.177 92.6283 244.279 92.0801 244.265 91.5287C244.284 90.8928 244.145 90.262 243.861 89.692C243.603 89.205 243.237 88.7829 242.79 88.4575C242.471 88.2292 242.123 88.0428 241.756 87.9032C241.373 87.7558 240.982 87.6297 240.585 87.5257C240.189 87.4367 239.785 87.3786 239.379 87.3519C238.869 87.3159 238.507 87.301 238.299 87.301C237.209 87.2956 236.121 87.4132 235.057 87.6515C234.052 87.8926 233.079 88.2475 232.156 88.7092L232.234 92.3826L235.069 92.5864L235.407 90.7497C235.887 90.6478 236.339 90.5729 236.758 90.522C237.183 90.4712 237.612 90.4462 238.04 90.447C239.059 90.447 239.734 90.6058 240.064 90.9235C240.204 91.0554 240.313 91.2164 240.384 91.3951C240.454 91.5738 240.484 91.7657 240.471 91.9572C240.494 92.2797 240.398 92.5995 240.199 92.856C240.092 92.9741 239.96 93.0671 239.813 93.1282C239.665 93.1894 239.506 93.2172 239.346 93.2096H234.581V96.2299H239.822C240.034 96.2103 240.247 96.2366 240.447 96.3069C240.647 96.3773 240.829 96.4901 240.981 96.6374C241.098 96.7616 241.188 96.9084 241.246 97.0686C241.304 97.2288 241.329 97.3992 241.318 97.5692C241.328 97.8264 241.283 98.0827 241.185 98.3213C241.088 98.5599 240.941 98.7753 240.754 98.9535C240.477 99.2012 240.146 99.3817 239.786 99.4808C239.29 99.6236 238.774 99.6913 238.257 99.6816C237.375 99.6791 236.494 99.604 235.624 99.4568C234.598 99.275 233.601 98.9618 232.656 98.525L231.664 101.419C232.663 101.977 233.741 102.381 234.861 102.618C235.978 102.852 237.116 102.97 238.257 102.971C239.226 102.984 240.192 102.883 241.137 102.672C241.933 102.497 242.681 102.156 243.333 101.671C243.911 101.227 244.381 100.659 244.705 100.008C245.04 99.3017 245.203 98.5266 245.179 97.746C245.192 97.1964 245.077 96.6513 244.842 96.1533C244.608 95.6553 244.261 95.218 243.828 94.8755Z" fill="white"/>
<path d="M261.806 87.6035H258.25L252.131 96.7392V87.6035H246.91V90.3451L248.373 90.5968V102.702H251.884L258.048 93.5661V102.702H263.266V99.9602L261.806 99.7085V87.6035Z" fill="white"/>
<path d="M279.963 87.6035H276.407L270.287 96.7392V87.6035H265.066V90.3451L266.529 90.5968V102.702H270.04L276.205 93.5661V102.702H281.422V99.9602L279.963 99.7085V87.6035Z" fill="white"/>
</g>
<defs>
<clipPath id="clip0_204_8165">
<rect width="300.43" height="125.613" fill="white" transform="translate(0 -2)"/>
</clipPath>
</defs>
</svg>
