<svg width="28" height="29" viewBox="0 0 28 29" fill="none" xmlns="http://www.w3.org/2000/svg">
<path fill-rule="evenodd" clip-rule="evenodd" d="M0.455612 0.471884C-0.151871 1.10106 -0.151871 2.12116 0.455612 2.75034L11.8001 14.5L0.455611 26.2497C-0.151872 26.8788 -0.151872 27.8989 0.45561 28.5281C1.06309 29.1573 2.04802 29.1573 2.6555 28.5281L15.0999 15.6392C15.7074 15.01 15.7074 13.9899 15.0999 13.3608L2.6555 0.471884C2.04802 -0.157294 1.06309 -0.157294 0.455612 0.471884ZM12.9001 0.471884C12.2926 1.10106 12.2926 2.12116 12.9001 2.75034L24.2446 14.5L12.9001 26.2497C12.2926 26.8788 12.2926 27.8989 12.9001 28.5281C13.5075 29.1573 14.4925 29.1573 15.0999 28.5281L27.5444 15.6392C28.1519 15.01 28.1519 13.9899 27.5444 13.3608L15.0999 0.471884C14.4925 -0.157294 13.5075 -0.157294 12.9001 0.471884Z" fill="white"/>
</svg>
