<svg width="19" height="19" viewBox="0 0 19 19" fill="none" xmlns="http://www.w3.org/2000/svg">
<path fill-rule="evenodd" clip-rule="evenodd" d="M13.6968 0.833374C16.7193 0.833374 18.7502 2.95504 18.7502 6.11254V13.4709C18.7502 16.6284 16.7193 18.75 13.6968 18.75H5.88683C2.86433 18.75 0.833496 16.6284 0.833496 13.4709V6.11254C0.833496 2.95504 2.86433 0.833374 5.88683 0.833374H13.6968ZM13.6968 2.08337H5.88683C3.57683 2.08337 2.0835 3.66421 2.0835 6.11254V13.4709C2.0835 15.9192 3.57683 17.5 5.88683 17.5H13.6968C16.0077 17.5 17.5002 15.9192 17.5002 13.4709V6.11254C17.5002 3.66421 16.0077 2.08337 13.6968 2.08337ZM9.79183 6.10612C10.1368 6.10612 10.4168 6.38612 10.4168 6.73112V9.15837L12.8472 9.15854C13.1922 9.15854 13.4722 9.43854 13.4722 9.78354C13.4722 10.1285 13.1922 10.4085 12.8472 10.4085L10.4168 10.4084V12.837C10.4168 13.182 10.1368 13.462 9.79183 13.462C9.44683 13.462 9.16683 13.182 9.16683 12.837V10.4084L6.73641 10.4085C6.39058 10.4085 6.11141 10.1285 6.11141 9.78354C6.11141 9.43854 6.39058 9.15854 6.73641 9.15854L9.16683 9.15837V6.73112C9.16683 6.38612 9.44683 6.10612 9.79183 6.10612Z" fill="white" fill-opacity="0.33"/>
</svg>
