<svg width="12" height="12" viewBox="0 0 12 12" fill="none" xmlns="http://www.w3.org/2000/svg">
<path d="M9.22133 6.90489L9.22131 6.90487L9.21708 6.90897C8.94432 7.1733 8.8197 7.55467 8.88158 7.92809L8.88153 7.9281L8.88282 7.93524L9.41277 10.8681C9.41279 10.8682 9.41281 10.8683 9.41282 10.8684C9.42261 10.9234 9.39951 10.9796 9.35247 11.0121L9.35237 11.012L9.34152 11.0199C9.29411 11.0545 9.22955 11.0597 9.17531 11.0306L9.17532 11.0305L9.17026 11.0279L6.5313 9.65153C6.36971 9.56592 6.19266 9.5212 6.01465 9.51611L6.00751 9.51591H6.00037H5.8388H5.80176L5.76514 9.52136C5.65537 9.53771 5.54544 9.57276 5.44241 9.62844L2.80957 11.0079C2.77498 11.0246 2.73696 11.0308 2.69971 11.0263C2.618 11.0073 2.56359 10.9284 2.57579 10.8445L3.10537 7.91686L3.10544 7.91687L3.10674 7.90894C3.16825 7.53468 3.04419 7.15394 2.77396 6.88788L2.77397 6.88787L2.77116 6.88515L0.61846 4.79862C0.618431 4.79859 0.618403 4.79856 0.618374 4.79853C0.577439 4.75876 0.563996 4.7003 0.582197 4.64794L0.583536 4.64404C0.603763 4.58426 0.654642 4.54122 0.715696 4.53087L3.66605 4.10286C4.05704 4.05853 4.39902 3.81908 4.57492 3.46728L4.57494 3.4673L4.5771 3.46287L5.87902 0.793637C5.88266 0.787057 5.88632 0.781536 5.88976 0.776978L5.91325 0.75871L5.94784 0.73181L5.95181 0.727417L5.95763 0.72502L5.96752 0.720947H6.08522C6.13419 0.731115 6.17551 0.762159 6.19859 0.805377L7.51884 3.46492C7.68695 3.80726 8.01211 4.04366 8.38636 4.101L8.38635 4.10101L8.39029 4.10158L11.3534 4.53145L11.3545 4.5316C11.4177 4.54063 11.4712 4.58358 11.4938 4.64336C11.5093 4.69641 11.494 4.7541 11.4527 4.79285L11.4511 4.79435L9.22133 6.90489Z" stroke="#FFCA0D"/>
</svg>
