<!-- Generated by IcoMoon.io -->
<svg version="1.1" xmlns="http://www.w3.org/2000/svg" width="32" height="32" viewBox="0 0 32 32">
<title>clear</title>
<path d="M12.19 0c-0.422 0-0.762 0.34-0.762 0.762s0.34 0.762 0.762 0.762h7.619c0.422 0 0.762-0.34 0.762-0.762s-0.34-0.762-0.762-0.762h-7.619zM5.841 3.556c-1.821 0-3.302 1.481-3.302 3.302s1.481 3.302 3.302 3.302h19.556v16c0 2.38-1.938 4.317-4.317 4.317h-10.159c-2.38 0-4.317-1.938-4.317-4.317v-13.206c0-0.422-0.34-0.762-0.762-0.762s-0.762 0.34-0.762 0.762v13.206c0 3.22 2.621 5.841 5.841 5.841h10.159c3.22 0 5.841-2.621 5.841-5.841v-16.091c1.453-0.345 2.54-1.651 2.54-3.21 0-1.821-1.481-3.302-3.302-3.302h-20.317zM5.841 5.079h20.317c0.98 0 1.778 0.797 1.778 1.778s-0.797 1.778-1.778 1.778h-20.317c-0.98 0-1.778-0.797-1.778-1.778s0.797-1.778 1.778-1.778zM12.444 13.714c-0.422 0-0.762 0.34-0.762 0.762v11.683c0 0.422 0.34 0.762 0.762 0.762s0.762-0.34 0.762-0.762v-11.683c0-0.422-0.34-0.762-0.762-0.762zM19.556 13.714c-0.422 0-0.762 0.34-0.762 0.762v11.683c0 0.422 0.34 0.762 0.762 0.762s0.762-0.34 0.762-0.762v-11.683c0-0.422-0.34-0.762-0.762-0.762z"></path>
</svg>
