<svg width="20" height="20" viewBox="0 0 20 20" fill="none" xmlns="http://www.w3.org/2000/svg">
<path fill-rule="evenodd" clip-rule="evenodd" d="M4.0656 0.697979L9.99841 6.62929L15.928 0.704648C16.8589 -0.225991 18.3647 -0.225991 19.2955 0.704648C20.2263 1.63529 20.2263 3.14083 19.2955 4.07146L13.3659 9.99611L19.3019 15.9344C20.2327 16.8651 20.2327 18.3706 19.3019 19.3012C18.8381 19.7681 18.2249 20 17.6181 20C17.0082 20 16.3982 19.7681 15.9344 19.3012L9.99841 13.3629L4.07195 19.292C3.60813 19.7589 2.99817 19.9908 2.38821 19.9908C1.77825 19.9908 1.16829 19.7589 0.704471 19.292C-0.226352 18.3614 -0.226352 16.8558 0.704471 15.9252L6.63092 9.99611L0.698118 4.0648C-0.232706 3.13416 -0.232706 1.62862 0.698118 0.697979C1.63212 -0.23266 3.13795 -0.23266 4.0656 0.697979Z" fill="white"/>
</svg>
