<svg width="9" height="9" viewBox="0 0 9 9" fill="none" xmlns="http://www.w3.org/2000/svg">
<path fill-rule="evenodd" clip-rule="evenodd" d="M1.82952 0.314091L4.49929 2.98318L7.16762 0.317092C7.58649 -0.101696 8.26412 -0.101696 8.68299 0.317092C9.10186 0.735879 9.10186 1.41337 8.68299 1.83216L6.01465 4.49825L8.68585 7.17049C9.10472 7.58927 9.10472 8.26676 8.68585 8.68555C8.47713 8.89566 8.20121 9 7.92816 9C7.65368 9 7.3792 8.89566 7.17048 8.68555L4.49929 6.01332L1.83238 8.68141C1.62366 8.89152 1.34918 8.99585 1.0747 8.99585C0.800215 8.99585 0.525733 8.89152 0.317012 8.68141C-0.101858 8.26262 -0.101858 7.58513 0.317012 7.16634L2.98392 4.49825L0.314153 1.82916C-0.104718 1.41037 -0.104718 0.732878 0.314153 0.314091C0.734453 -0.104697 1.41208 -0.104697 1.82952 0.314091Z" fill="white" fill-opacity="0.5"/>
</svg>
