<svg width="36" height="37" viewBox="0 0 36 37" fill="none" xmlns="http://www.w3.org/2000/svg">
<path fill-rule="evenodd" clip-rule="evenodd" d="M20.1839 21.7707C20.4495 22.1073 20.7683 22.488 20.7683 22.488C22.7254 22.4261 23.4781 21.142 23.4781 21.142C23.4781 18.2906 22.2029 15.9793 22.2029 15.9793C20.9277 15.0229 19.7145 15.0495 19.7145 15.0495L19.5905 15.1912C21.096 15.6516 21.7955 16.3158 21.7955 16.3158C20.8746 15.811 19.9713 15.5631 19.1301 15.4657C18.4925 15.3948 17.8814 15.4125 17.3413 15.4834C17.2949 15.4834 17.2552 15.4901 17.2106 15.4977L17.1907 15.5011C16.8808 15.5277 16.1281 15.6428 15.1805 16.059C14.8529 16.2095 14.6581 16.3158 14.6581 16.3158C14.6581 16.3158 15.3931 15.6162 16.987 15.1557L16.8985 15.0495C16.8985 15.0495 15.6853 15.0229 14.4101 15.9793C14.4101 15.9793 13.1349 18.2906 13.1349 21.142C13.1349 21.142 13.8788 22.4261 15.8358 22.488C15.8358 22.488 16.1635 22.0895 16.4292 21.753C15.3045 21.4165 14.8794 20.7081 14.8794 20.7081C14.8794 20.7081 14.968 20.7701 15.1274 20.8586C15.1363 20.8675 15.1451 20.8763 15.1628 20.8852C15.1761 20.8941 15.1894 20.9007 15.2027 20.9073C15.216 20.914 15.2292 20.9206 15.2425 20.9295C15.4639 21.0535 15.6853 21.1509 15.889 21.2306C16.252 21.3722 16.686 21.5139 17.1907 21.6113C17.8549 21.7353 18.6342 21.7796 19.4843 21.6202C19.9005 21.5494 20.3255 21.4254 20.7683 21.2394C21.0783 21.1243 21.4236 20.956 21.7867 20.7169C21.7867 20.7169 21.3439 21.4431 20.1839 21.7707ZM15.7473 19.3355C15.7473 18.7953 16.1458 18.3525 16.6505 18.3525C17.1553 18.3525 17.5626 18.7953 17.5538 19.3355C17.5538 19.8757 17.1553 20.3185 16.6505 20.3185C16.1546 20.3185 15.7473 19.8757 15.7473 19.3355ZM18.9795 19.3355C18.9795 18.7953 19.378 18.3525 19.8828 18.3525C20.3875 18.3525 20.786 18.7953 20.786 19.3355C20.786 19.8757 20.3875 20.3185 19.8828 20.3185C19.3869 20.3185 18.9795 19.8757 18.9795 19.3355Z" fill="white" fill-opacity="0.5"/>
<path fill-rule="evenodd" clip-rule="evenodd" d="M18.2534 0.960449C28.0348 0.960449 35.9643 8.88989 35.9643 18.6713C35.9643 28.4528 28.0348 36.3822 18.2534 36.3822C8.47192 36.3822 0.54248 28.4528 0.54248 18.6713C0.54248 8.88989 8.47192 0.960449 18.2534 0.960449ZM10.5049 12.747C10.5049 11.7375 11.3196 10.9228 12.3202 10.9228H24.1865C25.1872 10.9228 26.0019 11.7375 26.0019 12.747V28.6337L24.098 26.9512L23.0265 25.9594L21.893 24.9056L22.3623 26.5438H12.3202C11.3196 26.5438 10.5049 25.7291 10.5049 24.7196V12.747Z" fill="white" fill-opacity="0.5"/>
</svg>
