<svg width="14" height="17" viewBox="0 0 14 17" fill="none" xmlns="http://www.w3.org/2000/svg">
<path fill-rule="evenodd" clip-rule="evenodd" d="M9.39878 0C12.1234 0 13.6865 1.34865 13.6865 3.69814V15.3741C13.6865 15.8641 13.4343 16.3051 13.0102 16.5517C12.5877 16.7991 12.0784 16.8039 11.6511 16.5629L6.86374 13.8584L2.03221 16.5686C1.82337 16.6858 1.59444 16.7453 1.36471 16.7453C1.12776 16.7453 0.8908 16.6818 0.67553 16.5549C0.252219 16.3083 0 15.8673 0 15.3781V3.55115C0 1.29403 1.56392 0 4.29094 0H9.39878ZM9.39878 1.20487H4.29094C2.24347 1.20487 1.20487 1.99366 1.20487 3.55115V15.3781C1.20487 15.4537 1.24824 15.4946 1.28439 15.5155C1.32054 15.538 1.37757 15.5541 1.44343 15.5171L6.56975 12.6415C6.75289 12.5395 6.97699 12.5387 7.16094 12.6423L12.2431 15.5131C12.3097 15.5516 12.3668 15.534 12.4029 15.5123C12.4391 15.4906 12.4816 15.4496 12.4816 15.3741L12.4814 3.60661C12.4753 2.91528 12.3415 1.20487 9.39878 1.20487ZM9.75125 5.40464C10.0838 5.40464 10.3537 5.67453 10.3537 6.00708C10.3537 6.33962 10.0838 6.60951 9.75125 6.60951H3.87309C3.54055 6.60951 3.27066 6.33962 3.27066 6.00708C3.27066 5.67453 3.54055 5.40464 3.87309 5.40464H9.75125Z" fill="white"/>
</svg>
