<svg width="37" height="37" viewBox="0 0 37 37" fill="none" xmlns="http://www.w3.org/2000/svg">
<path fill-rule="evenodd" clip-rule="evenodd" d="M18.297 0.960449C28.0784 0.960449 36.0078 8.88989 36.0078 18.6713C36.0078 28.4528 28.0784 36.3822 18.297 36.3822C8.5155 36.3822 0.58606 28.4528 0.58606 18.6713C0.58606 8.88989 8.5155 0.960449 18.297 0.960449ZM21.8477 14.6622C20.93 13.7848 19.7627 13.338 18.4625 13.338C16.1561 13.338 14.2042 14.8956 13.5079 16.9888C13.3308 17.5201 13.2301 18.0876 13.2301 18.6713C13.2301 19.255 13.3304 19.8225 13.5075 20.3538C14.2039 22.4469 16.1561 24.0047 18.4625 24.0047C19.654 24.0047 20.6687 23.6908 21.4617 23.1595C22.3995 22.5315 23.0234 21.5937 23.2287 20.4867H18.4629V17.0613H26.8031C26.9078 17.6409 26.9641 18.2447 26.9641 18.8726C26.9641 21.5695 25.9981 23.8397 24.3236 25.3814C22.8584 26.7339 20.8535 27.5268 18.4625 27.5268C15.0009 27.5268 12.0061 25.5423 10.549 22.6482C9.94922 21.4527 9.60744 20.1002 9.60744 18.6713C9.60744 17.2423 9.94958 15.8899 10.5493 14.6944C12.0065 11.8003 15.0009 9.8159 18.4625 9.8159C20.8495 9.8159 22.854 10.6934 24.3877 12.1223L21.8477 14.6622Z" fill="white" fill-opacity="0.5"/>
</svg>
