<svg width="16" height="16" viewBox="0 0 16 16" fill="none" xmlns="http://www.w3.org/2000/svg">
<path fill-rule="evenodd" clip-rule="evenodd" d="M3.5032 8.92858C6.61785 8.92858 6.75639 9.98492 6.75639 12.1818C6.75639 13.2825 6.75639 14.0656 6.29406 14.6389C5.76206 15.2995 4.79376 15.435 3.5032 15.435C2.21263 15.435 1.24433 15.2995 0.712337 14.6389C0.25 14.0656 0.25 13.2833 0.25 12.2009L0.824094 12.1818H0.25C0.25 9.98492 0.388548 8.92858 3.5032 8.92858ZM11.9232 8.92858C15.0379 8.92858 15.1764 9.98492 15.1764 12.1818C15.1764 13.2825 15.1764 14.0656 14.7141 14.6389C14.1821 15.2995 13.2138 15.435 11.9232 15.435C10.6327 15.435 9.66437 15.2995 9.13238 14.6389C8.67004 14.0656 8.67004 13.2833 8.67004 12.2009L9.24413 12.1818H8.67004C8.67004 9.98492 8.80859 8.92858 11.9232 8.92858ZM3.661 10.0771L3.5032 10.0768C1.50614 10.0768 1.40372 10.2201 1.39847 11.8963L1.39879 12.5493C1.40242 13.216 1.42782 13.6976 1.60563 13.9194C1.80847 14.1704 2.41089 14.2868 3.5032 14.2868C4.59551 14.2868 5.19792 14.1697 5.40077 13.9186C5.60821 13.6606 5.60821 13.0483 5.60821 12.2002C5.60821 10.2864 5.60821 10.0861 3.661 10.0771ZM12.081 10.0771L11.9232 10.0768C9.92618 10.0768 9.82376 10.2201 9.81851 11.8963L9.81883 12.5493C9.82246 13.216 9.84786 13.6976 10.0257 13.9194C10.2285 14.1704 10.8309 14.2868 11.9232 14.2868C13.0155 14.2868 13.618 14.1697 13.8208 13.9186C14.0282 13.6606 14.0282 13.0483 14.0282 12.2002C14.0282 10.2864 14.0282 10.0861 12.081 10.0771ZM3.5032 0.508545C6.61785 0.508545 6.75639 1.56488 6.75639 3.76174C6.75639 4.86247 6.75639 5.64553 6.29406 6.21886C5.76206 6.87945 4.79376 7.01494 3.5032 7.01494C2.21263 7.01494 1.24433 6.87945 0.712337 6.21886C0.25 5.64553 0.25 4.86324 0.25 3.78088L0.824094 3.76174H0.25C0.25 1.56488 0.388548 0.508545 3.5032 0.508545ZM11.9232 0.508545C15.0379 0.508545 15.1764 1.56488 15.1764 3.76174C15.1764 4.86247 15.1764 5.64553 14.7141 6.21886C14.1821 6.87945 13.2138 7.01494 11.9232 7.01494C10.6327 7.01494 9.66437 6.87945 9.13238 6.21886C8.67004 5.64553 8.67004 4.86324 8.67004 3.78088L9.24413 3.76174H8.67004C8.67004 1.56488 8.80859 0.508545 11.9232 0.508545ZM3.661 1.65707L3.5032 1.65673C1.50614 1.65673 1.40372 1.80004 1.39847 3.47626L1.39879 4.1293C1.40242 4.79599 1.42782 5.27757 1.60563 5.49933C1.80847 5.7504 2.41089 5.86675 3.5032 5.86675C4.59551 5.86675 5.19792 5.74964 5.40077 5.49857C5.60821 5.24061 5.60821 4.62824 5.60821 3.78011C5.60821 1.86631 5.60821 1.66608 3.661 1.65707ZM12.081 1.65707L11.9232 1.65673C9.92618 1.65673 9.82376 1.80004 9.81851 3.47626L9.81883 4.1293C9.82246 4.79599 9.84786 5.27757 10.0257 5.49933C10.2285 5.7504 10.8309 5.86675 11.9232 5.86675C13.0155 5.86675 13.618 5.74964 13.8208 5.49857C14.0282 5.24061 14.0282 4.62824 14.0282 3.78011C14.0282 1.86631 14.0282 1.66608 12.081 1.65707Z" fill="white"/>
</svg>
