<svg width="16" height="16" viewBox="0 0 16 16" fill="none" xmlns="http://www.w3.org/2000/svg">
<path fill-rule="evenodd" clip-rule="evenodd" d="M11.2862 0C13.9382 0 15.72 1.86154 15.72 4.63192V11.0881C15.72 13.8585 13.9382 15.72 11.2862 15.72H4.43377C1.78184 15.72 0 13.8585 0 11.0881V4.63192C0 1.86154 1.78184 0 4.43377 0H11.2862ZM11.2862 1.09674H4.43377C2.40699 1.09674 1.09674 2.48376 1.09674 4.63192V11.0881C1.09674 13.2362 2.40699 14.6233 4.43377 14.6233H11.2862C13.3137 14.6233 14.6233 13.2362 14.6233 11.0881V4.63192C14.6233 2.48376 13.3137 1.09674 11.2862 1.09674ZM7.86 4.62629C8.1627 4.62629 8.40837 4.87196 8.40837 5.17466V7.30432L10.5408 7.30446C10.8435 7.30446 11.0892 7.55013 11.0892 7.85283C11.0892 8.15554 10.8435 8.40121 10.5408 8.40121L8.40837 8.40106V10.5319C8.40837 10.8346 8.1627 11.0803 7.86 11.0803C7.5573 11.0803 7.31163 10.8346 7.31163 10.5319V8.40106L5.17919 8.40121C4.87576 8.40121 4.63082 8.15554 4.63082 7.85283C4.63082 7.55013 4.87576 7.30446 5.17919 7.30446L7.31163 7.30432V5.17466C7.31163 4.87196 7.5573 4.62629 7.86 4.62629Z" fill="#FFCA0D"/>
</svg>
