<svg width="16" height="16" viewBox="0 0 16 16" fill="none" xmlns="http://www.w3.org/2000/svg">
<path fill-rule="evenodd" clip-rule="evenodd" d="M7.37488 0.690796C9.2472 0.690796 10.7705 2.21406 10.7705 4.08637V4.79978C10.7705 5.11667 10.5133 5.37387 10.1964 5.37387C9.87946 5.37387 9.62227 5.11667 9.62227 4.79978V4.08637C9.62227 2.84633 8.61416 1.83898 7.37488 1.83898H3.64328C2.40553 1.83898 1.39819 2.84633 1.39819 4.08637V12.6052C1.39819 13.8444 2.40553 14.8518 3.64328 14.8518H7.3833C8.61722 14.8518 9.62227 13.8475 9.62227 12.6136V11.8917C9.62227 11.5748 9.87946 11.3177 10.1964 11.3177C10.5133 11.3177 10.7705 11.5748 10.7705 11.8917V12.6136C10.7705 14.4813 9.25026 16 7.3833 16H3.64328C1.7725 16 0.25 14.4775 0.25 12.6052V4.08637C0.25 2.21406 1.7725 0.690796 3.64328 0.690796H7.37488ZM13.5599 5.70761L15.8011 7.93892C15.8211 7.95876 15.839 7.97939 15.8554 8.00122L15.8011 7.93892C15.8282 7.96566 15.8524 7.99487 15.8733 8.02603C15.8825 8.04015 15.8914 8.05475 15.8996 8.06975C15.9063 8.08147 15.9124 8.09371 15.9181 8.10614C15.923 8.11713 15.9276 8.12813 15.9319 8.13929C15.9377 8.15384 15.9427 8.1688 15.9472 8.18395C15.9505 8.19588 15.9536 8.20779 15.9563 8.21984C15.9597 8.23446 15.9624 8.24917 15.9645 8.264C15.9657 8.27363 15.9669 8.28373 15.9678 8.29391C15.9695 8.31137 15.9703 8.32834 15.9703 8.34538L15.9664 8.39284L15.9648 8.42324C15.9646 8.42454 15.9645 8.42584 15.9643 8.42714L15.9703 8.34538C15.9703 8.38787 15.9656 8.42994 15.9564 8.47085C15.9536 8.48296 15.9505 8.49487 15.9471 8.50662C15.9427 8.52196 15.9377 8.53691 15.932 8.55163C15.9276 8.56263 15.923 8.57362 15.918 8.58444C15.9124 8.59705 15.9063 8.60928 15.8997 8.62129C15.8914 8.63601 15.8825 8.65061 15.873 8.66476C15.8676 8.67315 15.8617 8.68144 15.8556 8.68957C15.8374 8.71355 15.8175 8.7361 15.796 8.75699L13.5599 10.9839C13.4481 11.0957 13.3011 11.1515 13.1549 11.1515C13.008 11.1515 12.8602 11.0957 12.7485 10.9824C12.525 10.7573 12.5257 10.3945 12.75 10.171L14.0053 8.91947H6.17909C5.86219 8.91947 5.60499 8.66228 5.60499 8.34538C5.60499 8.02848 5.86219 7.77128 6.17909 7.77128H14.0068L12.75 6.52053C12.5257 6.29701 12.5242 5.93418 12.7485 5.70914C12.972 5.4841 13.3348 5.4841 13.5599 5.70761Z" fill="white"/>
</svg>
