<svg width="17" height="16" viewBox="0 0 17 16" fill="none" xmlns="http://www.w3.org/2000/svg">
<path fill-rule="evenodd" clip-rule="evenodd" d="M12.4707 0.436646C15.0197 0.436646 16.9417 2.5164 16.9417 5.27434V10.5315C16.9417 11.943 16.4426 13.2183 15.5356 14.123C14.7219 14.9337 13.6663 15.3631 12.4829 15.3631H4.94087C3.75977 15.3631 2.70497 14.9344 1.89052 14.123C0.983454 13.2183 0.484375 11.943 0.484375 10.5315V5.27434C0.484375 2.5164 2.40644 0.436646 4.95542 0.436646H12.4707ZM12.4707 1.58483H4.95542C3.03029 1.58483 1.63256 3.13642 1.63256 5.27434V10.5315C1.63256 11.6361 2.01223 12.6227 2.70114 13.3094C3.29514 13.9026 4.07055 14.2149 4.94317 14.2149H12.4707C12.4722 14.2134 12.4783 14.2149 12.4829 14.2149C13.3563 14.2149 14.131 13.9026 14.725 13.3094C15.4146 12.6227 15.7935 11.6361 15.7935 10.5315V5.27434C15.7935 3.13642 14.3958 1.58483 12.4707 1.58483ZM13.677 5.12799C13.8768 5.3737 13.8393 5.73499 13.5936 5.93554L10.1919 8.70038C9.76173 9.04177 9.24734 9.21247 8.73372 9.21247C8.22163 9.21247 7.71107 9.0433 7.28394 8.70497L3.85086 5.93707C3.60362 5.73805 3.56534 5.37599 3.7636 5.12952C3.96338 4.8838 4.32468 4.84477 4.57116 5.04302L8.00117 7.80785C8.43213 8.14925 9.03913 8.14925 9.47315 7.80479L12.8687 5.04455C13.1152 4.84324 13.4765 4.88151 13.677 5.12799Z" fill="white"/>
</svg>
