<svg width="13" height="16" viewBox="0 0 13 16" fill="none" xmlns="http://www.w3.org/2000/svg">
<path fill-rule="evenodd" clip-rule="evenodd" d="M12.5741 12.3954C12.5741 14.9183 9.11421 15.21 6.51241 15.21L6.32623 15.2098C4.66858 15.2058 0.449219 15.1011 0.449219 12.3801C0.449219 9.9086 3.77005 9.5783 6.35204 9.56585L6.69859 9.56563C8.35613 9.56966 12.5741 9.67431 12.5741 12.3954ZM6.51241 10.7137C3.2508 10.7137 1.59741 11.274 1.59741 12.3801C1.59741 13.4961 3.2508 14.0618 6.51241 14.0618C9.77326 14.0618 11.4259 13.5015 11.4259 12.3954C11.4259 11.2793 9.77326 10.7137 6.51241 10.7137ZM6.51241 0C8.75367 0 10.5762 1.82332 10.5762 4.06458C10.5762 6.30584 8.75367 8.1284 6.51241 8.1284H6.48792C4.25125 8.12151 2.43941 6.29742 2.44704 4.06229C2.44704 1.82332 4.27039 0 6.51241 0ZM6.51241 1.09307C4.87357 1.09307 3.54012 2.42574 3.54012 4.06458C3.53478 5.69807 4.85826 7.02997 6.49021 7.03609L6.51241 7.58263V7.03609C8.15049 7.03609 9.48316 5.70266 9.48316 4.06458C9.48316 2.42574 8.15049 1.09307 6.51241 1.09307Z" fill="white"/>
</svg>
