<svg width="16" height="15" viewBox="0 0 16 15" fill="none" xmlns="http://www.w3.org/2000/svg">
<path d="M14.8167 10.8333C14.7417 10.8333 13.0583 10.5333 13.0583 5.625C13.0583 2.15833 11.0417 0 7.70833 0C4.375 0 2.35833 2.15833 2.35833 5.625C2.35833 10.625 0.616667 10.8333 0.625 10.8333C0.45924 10.8333 0.300268 10.8992 0.183058 11.0164C0.0658479 11.1336 0 11.2926 0 11.4583C0 11.6241 0.0658479 11.7831 0.183058 11.9003C0.300268 12.0175 0.45924 12.0833 0.625 12.0833H4.65C4.78912 12.7922 5.17019 13.4308 5.72805 13.8898C6.28591 14.3489 6.9859 14.5998 7.70833 14.5998C8.43077 14.5998 9.13076 14.3489 9.68862 13.8898C10.2465 13.4308 10.6275 12.7922 10.7667 12.0833H14.8C14.9658 12.0833 15.1247 12.0175 15.2419 11.9003C15.3592 11.7831 15.425 11.6241 15.425 11.4583C15.425 11.2926 15.3592 11.1336 15.2419 11.0164C15.1247 10.8992 14.9658 10.8333 14.8 10.8333H14.8167ZM7.70833 13.3333C7.32191 13.3326 6.94525 13.212 6.6303 12.9881C6.31535 12.7642 6.07766 12.4481 5.95 12.0833H9.46667C9.33901 12.4481 9.10131 12.7642 8.78637 12.9881C8.47142 13.212 8.09475 13.3326 7.70833 13.3333ZM2.50833 10.8333C3.10833 9.925 3.60833 8.33333 3.60833 5.625C3.60833 2.91667 5.10833 1.25 7.70833 1.25C10.3083 1.25 11.8083 2.84167 11.8083 5.625C11.8083 8.40833 12.3083 9.925 12.9083 10.8333H2.50833Z" fill="white" fill-opacity="0.5"/>
</svg>
