<svg width="16" height="15" viewBox="0 0 16 15" fill="none" xmlns="http://www.w3.org/2000/svg">
<path d="M12.3142 8.75648L12.3142 8.75646L12.3099 8.76056C11.9933 9.06738 11.8486 9.51019 11.9204 9.94386L11.9204 9.94387L11.9217 9.95101L12.6021 13.7167C12.6247 13.8424 12.5718 13.9701 12.4656 14.0434L12.4655 14.0433L12.4547 14.0512C12.3494 14.1282 12.2078 14.1384 12.0904 14.0754L12.0904 14.0754L12.0854 14.0728L8.69694 12.3055C8.50924 12.2059 8.30318 12.1537 8.09549 12.1478L8.08836 12.1476H8.08122H7.87378H7.83675L7.80012 12.1531C7.67441 12.1718 7.54887 12.2119 7.43158 12.2754L4.04863 14.0479C3.97698 14.0831 3.89712 14.0958 3.81887 14.0847C3.63721 14.0467 3.51607 13.8727 3.54434 13.6882L4.22466 9.92738L4.22473 9.92739L4.22603 9.91946C4.29752 9.48444 4.15333 9.04192 3.83926 8.7327L3.83646 8.72997L1.07256 6.05103C0.980444 5.96166 0.949197 5.82869 0.990769 5.70909L0.992108 5.70519C1.03498 5.57849 1.14359 5.48659 1.27439 5.46513L5.06605 4.91507C5.52113 4.8642 5.91941 4.5858 6.12413 4.17638L6.12415 4.17639L6.12631 4.17196L7.79923 0.742087C7.81168 0.718953 7.82555 0.699334 7.83988 0.683217L7.88222 0.650284L7.9168 0.623384L7.93682 0.601243L7.95417 0.594873L7.9633 0.591523L7.9723 0.587821L8.01096 0.571899H8.20291C8.31429 0.589809 8.4101 0.658591 8.46204 0.757501L10.1573 4.17253C10.1576 4.173 10.1578 4.17348 10.158 4.17396C10.3532 4.57167 10.731 4.84652 11.1661 4.91317L11.1661 4.91319L11.17 4.91376L14.9743 5.46565L14.9754 5.46581C15.1097 5.48499 15.2226 5.57706 15.2688 5.70457C15.3065 5.82549 15.272 5.9576 15.1786 6.04527L15.177 6.04676L12.3142 8.75648Z" stroke="white"/>
</svg>
