<svg width="17" height="15" viewBox="0 0 17 15" fill="none" xmlns="http://www.w3.org/2000/svg">
<path fill-rule="evenodd" clip-rule="evenodd" d="M11.4578 0.254272C13.9892 0.254272 16.0483 2.31335 16.0483 4.84549V10.3392C16.0483 12.8706 13.9892 14.9304 11.4578 14.9304H4.84122C2.30985 14.9304 0.25 12.8706 0.25 10.3392V4.84549C0.25 2.31335 2.30985 0.254272 4.84122 0.254272H11.4578ZM11.4578 1.40246H4.84122C2.94288 1.40246 1.39819 2.94715 1.39819 4.84549V10.3392C1.39819 12.2375 2.94288 13.7822 4.84122 13.7822H11.4578C13.3562 13.7822 14.9001 12.2375 14.9001 10.3392V10.1249L12.3757 10.1253C10.9236 10.1253 9.74176 8.94421 9.74099 7.4929C9.74099 6.04006 10.9229 4.8582 12.3757 4.85743L14.9001 4.85697V4.84549C14.9001 2.94715 13.3562 1.40246 11.4578 1.40246ZM14.9001 6.00516L12.3757 6.00562C11.5559 6.00638 10.8892 6.6731 10.8892 7.49214C10.8892 8.31041 11.5567 8.97713 12.3757 8.97713L14.9001 8.97667V6.00516ZM12.726 6.87059C13.0429 6.87059 13.3001 7.12778 13.3001 7.44468C13.3001 7.76158 13.0429 8.01877 12.726 8.01877H12.4871C12.1702 8.01877 11.9131 7.76158 11.9131 7.44468C11.9131 7.12778 12.1702 6.87059 12.4871 6.87059H12.726ZM8.42892 3.728C8.74582 3.728 9.00301 3.98519 9.00301 4.30209C9.00301 4.61899 8.74582 4.87619 8.42892 4.87619H4.29621C3.97931 4.87619 3.72212 4.61899 3.72212 4.30209C3.72212 3.98519 3.97931 3.728 4.29621 3.728H8.42892Z" fill="white"/>
</svg>
