<svg width="40" height="40" viewBox="0 0 40 40" fill="none" xmlns="http://www.w3.org/2000/svg">
<path fill-rule="evenodd" clip-rule="evenodd" d="M28.6 0C35.37 0 39.92 4.742 39.92 11.798V28.102C39.92 35.158 35.37 39.9 28.6 39.9H11.3C4.54 39.9 0 35.158 0 28.102V11.798C0 4.742 4.54 0 11.3 0H28.6ZM28.6 3H11.3C6.258 3 3 6.454 3 11.798V28.102C3 33.448 6.258 36.9 11.3 36.9H28.6C33.654 36.9 36.92 33.448 36.92 28.102V11.798C36.92 6.454 33.654 3 28.6 3ZM29.878 20.1988C29.8906 20.2091 29.9031 20.2193 29.9292 20.2437L29.9678 20.2806C29.9756 20.2881 29.9842 20.2965 29.9937 20.3058L30.1053 20.4166C30.466 20.7777 31.4629 21.7959 34.434 24.8468C35.012 25.4388 35.002 26.3888 34.408 26.9668C33.816 27.5488 32.864 27.5308 32.286 26.9388C32.286 26.9388 28.188 22.7328 27.896 22.4488C27.586 22.1948 27.088 22.0468 26.598 22.0948C26.1 22.1448 25.652 22.3828 25.334 22.7688C20.686 28.4068 20.63 28.4608 20.554 28.5348C18.838 30.2188 16.068 30.1908 14.382 28.4708C14.382 28.4708 12.522 26.5828 12.49 26.5448C12.028 26.1168 11.204 26.1448 10.71 26.6668L7.65 29.8928C7.354 30.2048 6.958 30.3608 6.562 30.3608C6.19 30.3608 5.82 30.2248 5.53 29.9488C4.928 29.3808 4.904 28.4288 5.474 27.8308L8.53 24.6048C10.148 22.8868 12.878 22.8028 14.604 24.4228L16.52 26.3668C17.054 26.9068 17.922 26.9168 18.458 26.3888C18.66 26.1508 23.016 20.8608 23.016 20.8608C23.844 19.8568 25.012 19.2368 26.31 19.1088C27.61 18.9948 28.872 19.3728 29.878 20.1988ZM13.1164 9.2578C15.8804 9.2598 18.1264 11.5078 18.1264 14.2658C18.1264 17.0278 15.8784 19.2758 13.1164 19.2758C10.3544 19.2758 8.1084 17.0278 8.1084 14.2658C8.1084 11.5038 10.3544 9.2578 13.1164 9.2578ZM13.1144 12.2578C12.0084 12.2578 11.1084 13.1578 11.1084 14.2658C11.1084 15.3738 12.0084 16.2758 13.1164 16.2758C14.2244 16.2758 15.1264 15.3738 15.1264 14.2658C15.1264 13.1598 14.2244 12.2598 13.1144 12.2578Z" fill="#FFCA0D" fill-opacity="0.3"/>
</svg>
