<svg width="151" height="18" viewBox="0 0 151 18" fill="none" xmlns="http://www.w3.org/2000/svg">
<path d="M8.86671 17.198C13.7287 17.198 17.4027 14.492 17.4027 9.608V8.574H8.60271V10.378H14.7627C14.5867 13.282 12.4087 15.064 8.88871 15.064C5.17071 15.064 2.79471 12.776 2.79471 8.97C2.79471 5.296 5.10471 2.942 8.95471 2.942C11.7707 2.942 13.9047 4.196 14.4107 6.352H17.0727C16.5667 2.986 13.4427 0.785999 8.95471 0.785999C3.54271 0.785999 0.154711 4.042 0.154711 8.992C0.154711 13.92 3.49871 17.198 8.86671 17.198ZM23.0775 17H25.7175V3.118H31.5255V0.961999H17.3135V3.118H23.0775V17ZM28.7795 17H31.6395L33.2895 13.326H42.2875L43.9595 17H46.8195L39.4935 0.961999H36.0835L28.7795 17ZM34.0815 11.302L36.9195 5.12L37.7555 3.162H37.8435L38.6795 5.098L41.5175 11.302H34.0815Z" fill="white"/>
<path d="M48.3816 17H50.8676V9.52L50.8236 3.624H50.9776L56.5216 17H58.8096L64.3096 3.624H64.4856L64.4416 9.498V17H66.9276V0.961999H62.9236L57.7096 13.766H57.5996L52.3636 0.961999H48.3816V17ZM68.4611 17H71.3211L72.9711 13.326H81.9691L83.6411 17H86.5011L79.1751 0.961999H75.7651L68.4611 17ZM73.7631 11.302L76.6011 5.12L77.4371 3.162H77.5251L78.3611 5.098L81.1991 11.302H73.7631ZM88.0633 17H90.7033V10.598H96.9073C99.1733 10.598 99.7673 11.478 99.7673 13.106V15.196C99.7673 16.01 99.8113 16.56 100.009 17H102.649C102.407 16.384 102.407 15.79 102.407 15.218V12.732C102.407 10.884 101.659 9.828 99.8773 9.542V9.388C101.769 8.882 102.781 7.408 102.781 5.45C102.781 2.326 100.493 0.961999 97.2153 0.961999H88.0633V17ZM90.7033 8.64V3.03H96.7093C98.7553 3.03 100.097 3.8 100.097 5.736C100.097 7.452 99.2173 8.64 96.7093 8.64H90.7033ZM104.714 17H107.31V13.018L110.874 9.564L116.836 17H120.158L112.766 7.782L119.85 0.961999H116.462L107.31 9.938V0.961999H104.714V17ZM121.729 17H134.885V14.844H124.369V9.85H133.785V7.848H124.369V3.096H134.863V0.961999H121.729V17ZM141.736 17H144.376V3.118H150.184V0.961999H135.972V3.118H141.736V17Z" fill="#FFCA0D"/>
</svg>
