<!-- Generated by IcoMoon.io -->
<svg version="1.1" xmlns="http://www.w3.org/2000/svg" width="32" height="32" viewBox="0 0 32 32">
<title>more_chat</title>
<path d="M16 0c8.822 0 16 7.178 16 16s-7.178 16-16 16c-8.822 0-16-7.178-16-16s7.178-16 16-16zM16 2.4c-7.499 0-13.6 6.101-13.6 13.6s6.101 13.6 13.6 13.6c7.499 0 13.6-6.101 13.6-13.6s-6.101-13.6-13.6-13.6zM16.006 20.474c0.885 0 1.6 0.715 1.6 1.6s-0.715 1.6-1.6 1.6-1.608-0.715-1.608-1.6c0-0.885 0.709-1.6 1.592-1.6h0.016zM15.991 8.726c0.662 0 1.2 0.538 1.2 1.2v7.070c0 0.662-0.538 1.2-1.2 1.2s-1.2-0.538-1.2-1.2v-7.070c0-0.662 0.538-1.2 1.2-1.2z"></path>
</svg>
