<svg width="18" height="22" viewBox="0 0 18 22" fill="none" xmlns="http://www.w3.org/2000/svg">
<path fill-rule="evenodd" clip-rule="evenodd" d="M17.5376 17.9289C17.5376 21.5782 12.5332 22 8.76993 22L8.50063 21.9998C6.10297 21.9939 0 21.8426 0 17.9068C0 14.332 4.80331 13.8543 8.53796 13.8362L9.03923 13.8359C11.4367 13.8418 17.5376 13.9931 17.5376 17.9289ZM8.76993 15.4965C4.05226 15.4965 1.66076 16.3069 1.66076 17.9068C1.66076 19.521 4.05226 20.3392 8.76993 20.3392C13.4865 20.3392 15.8769 19.5288 15.8769 17.9289C15.8769 16.3147 13.4865 15.4965 8.76993 15.4965ZM8.76993 0C12.0117 0 14.6479 2.63729 14.6479 5.8791C14.6479 9.1209 12.0117 11.7571 8.76993 11.7571H8.7345C5.49934 11.7471 2.87865 9.10872 2.88969 5.87578C2.88969 2.63729 5.52702 0 8.76993 0ZM8.76993 1.58105C6.39947 1.58105 4.47075 3.50864 4.47075 5.8791C4.46302 8.24181 6.37733 10.1683 8.73782 10.1771L8.76993 10.9677V10.1771C11.1393 10.1771 13.0669 8.24845 13.0669 5.8791C13.0669 3.50864 11.1393 1.58105 8.76993 1.58105Z" fill="white"/>
</svg>
