<svg width="33" height="32" viewBox="0 0 33 32" fill="none" xmlns="http://www.w3.org/2000/svg">
<path d="M25.6395 19.4466L25.6394 19.4466L25.631 19.4548C24.971 20.0943 24.6692 21.0174 24.8191 21.9215L24.8203 21.9286L24.8216 21.9358L26.2741 29.9747C26.3271 30.2691 26.2031 30.5681 25.9548 30.7397L25.9437 30.7473L25.9328 30.7552C25.687 30.935 25.3569 30.9585 25.0836 30.8119L25.0837 30.8119L25.0735 30.8066L17.8396 27.0336C17.4483 26.8261 17.0186 26.7172 16.5852 26.7048L16.5709 26.7044H16.5567H16.1138H16.0397L15.9665 26.7153C15.7054 26.7542 15.4448 26.8376 15.2015 26.9694L7.97848 30.7537C7.81259 30.8355 7.62731 30.865 7.44576 30.8387C7.02144 30.7511 6.73846 30.3451 6.8049 29.9148L8.2574 21.8853L8.25883 21.8774L8.26013 21.8695C8.4092 20.9624 8.10854 20.0397 7.45367 19.3949L7.45369 19.3949L7.44807 19.3895L1.54771 13.6705C1.54764 13.6704 1.54756 13.6703 1.54749 13.6703C1.54745 13.6702 1.5474 13.6702 1.54736 13.6701C1.33223 13.4612 1.25904 13.15 1.35637 12.87L1.3564 12.87L1.35905 12.8622C1.45861 12.568 1.71107 12.3544 2.01523 12.3047L10.1113 11.1302C11.0605 11.0245 11.8914 10.4439 12.3184 9.58998L12.3184 9.59L12.3228 9.58115L15.8947 2.25788C15.9249 2.20143 15.9593 2.1532 15.9953 2.11344L16.0905 2.03944L16.1596 1.98564L16.2095 1.93041L16.2622 1.91108L16.2805 1.90438L16.2985 1.89697L16.3933 1.85791H16.8217C17.0828 1.89815 17.3081 2.0588 17.4297 2.29087L21.0493 9.58227C21.0498 9.58325 21.0502 9.58423 21.0507 9.58521C21.4576 10.4143 22.2453 10.9874 23.1524 11.1264L23.1524 11.1264L23.1603 11.1276L31.2817 12.3058L31.2838 12.3061C31.5958 12.3506 31.8579 12.5647 31.9645 12.861C32.0534 13.1442 31.9728 13.4538 31.7541 13.659L31.751 13.6619L25.6395 19.4466Z" stroke="#FFCA0D" stroke-width="2"/>
</svg>
