<svg width="33" height="32" viewBox="0 0 33 32" fill="none" xmlns="http://www.w3.org/2000/svg">
<path d="M26.0129 20.1729C25.5897 20.5831 25.3952 21.1762 25.4917 21.758L26.9444 29.7977C27.0669 30.4791 26.7793 31.1687 26.209 31.5625C25.6502 31.9711 24.9066 32.0201 24.2971 31.6933L17.0597 27.9185C16.8081 27.7845 16.5287 27.7126 16.2427 27.7044H15.7998C15.6462 27.7273 15.4959 27.7763 15.3586 27.8515L8.11961 31.6442C7.76174 31.824 7.35649 31.8877 6.9594 31.824C5.99202 31.641 5.34655 30.7193 5.50506 29.747L6.9594 21.7073C7.05581 21.1207 6.86136 20.5242 6.43813 20.1075L0.537414 14.3882C0.0439176 13.9094 -0.127662 13.1904 0.0978427 12.5417C0.316811 11.8946 0.875671 11.4223 1.55055 11.3161L9.672 10.1379C10.2897 10.0742 10.8322 9.69836 11.11 9.14276L14.6887 1.80568C14.7736 1.64227 14.8831 1.49194 15.0155 1.36448L15.1625 1.25009C15.2394 1.16512 15.3276 1.09485 15.4256 1.03766L15.6038 0.972297L15.8816 0.85791H16.5695C17.1839 0.92164 17.7248 1.28931 18.0075 1.83837L21.6336 9.14276C21.895 9.67711 22.4032 10.0481 22.9899 10.1379L31.1113 11.3161C31.7976 11.4142 32.3712 11.888 32.5983 12.5417C32.8124 13.1969 32.6277 13.9159 32.1244 14.3882L26.0129 20.1729Z" fill="#FFCA0D"/>
</svg>
