<!-- Generated by IcoMoon.io -->
<svg version="1.1" xmlns="http://www.w3.org/2000/svg" width="32" height="32" viewBox="0 0 32 32">
<title>telegram</title>
<path d="M16 32c-8.837 0-16-7.163-16-16s7.163-16 16-16c8.837 0 16 7.163 16 16s-7.163 16-16 16zM16.692 12.007c-1.433 0.596-4.297 1.83-8.592 3.701-0.697 0.277-1.063 0.549-1.096 0.814-0.056 0.448 0.505 0.625 1.27 0.865 0.104 0.033 0.212 0.067 0.322 0.102 0.752 0.244 1.764 0.531 2.29 0.542 0.477 0.010 1.010-0.186 1.598-0.59 4.013-2.709 6.084-4.078 6.214-4.107 0.092-0.021 0.219-0.047 0.305 0.030s0.078 0.222 0.069 0.261c-0.056 0.237-2.26 2.286-3.4 3.347-0.356 0.331-0.608 0.565-0.659 0.619-0.116 0.12-0.233 0.233-0.346 0.343-0.699 0.674-1.223 1.179 0.029 2.004 0.602 0.396 1.083 0.724 1.563 1.051 0.524 0.357 1.048 0.713 1.724 1.157 0.172 0.113 0.337 0.23 0.498 0.345 0.61 0.435 1.159 0.826 1.836 0.764 0.394-0.036 0.8-0.406 1.007-1.511 0.488-2.609 1.448-8.263 1.669-10.592 0.019-0.204-0.005-0.465-0.025-0.58s-0.061-0.278-0.21-0.399c-0.177-0.143-0.449-0.173-0.571-0.171-0.554 0.010-1.404 0.306-5.496 2.007z"></path>
</svg>
