<svg width="8" height="7" viewBox="0 0 8 7" fill="none" xmlns="http://www.w3.org/2000/svg">
<path d="M4.2786 0.90428C4.3134 0.938108 4.4622 1.06584 4.5846 1.18482C5.3544 1.88239 6.6144 3.70213 6.999 4.65458C7.0608 4.79923 7.1916 5.16493 7.2 5.36032C7.2 5.54754 7.1568 5.72601 7.0692 5.89632C6.9468 6.10863 6.7542 6.27893 6.5268 6.37226C6.369 6.43233 5.8968 6.52565 5.8884 6.52565C5.3718 6.61897 4.5324 6.6703 3.6048 6.6703C2.721 6.6703 1.9158 6.61897 1.3914 6.54256C1.383 6.53382 0.7962 6.4405 0.5952 6.33843C0.228 6.1512 0 5.7855 0 5.39414V5.36032C0.009 5.10543 0.237 4.56943 0.2454 4.56943C0.6306 3.6683 1.8288 1.89056 2.625 1.17607C2.625 1.17607 2.8296 0.974853 2.9574 0.887365C3.141 0.750885 3.3684 0.683228 3.5958 0.683228C3.8496 0.683228 4.086 0.759633 4.2786 0.90428Z" fill="#3B88C3"/>
</svg>
