<svg width="19" height="9" viewBox="0 0 19 9" fill="none" xmlns="http://www.w3.org/2000/svg">
<mask id="path-1-inside-1_16_1314" fill="white">
<path d="M9.5 0.657349L18.5933 8.88957H0.406738L9.5 0.657349Z"/>
</mask>
<path d="M9.5 0.657349L18.5933 8.88957H0.406738L9.5 0.657349Z" fill="#25231F"/>
<path d="M9.5 0.657349L10.1711 -0.0839851L9.5 -0.691571L8.82887 -0.0839852L9.5 0.657349ZM18.5933 8.88957V9.88957H21.1879L19.2644 8.14823L18.5933 8.88957ZM0.406738 8.88957L-0.264398 8.14823L-2.18787 9.88957H0.406738V8.88957ZM8.82887 1.39868L17.9221 9.6309L19.2644 8.14823L10.1711 -0.0839851L8.82887 1.39868ZM18.5933 7.88957H0.406738V9.88957H18.5933V7.88957ZM1.07787 9.6309L10.1711 1.39868L8.82887 -0.0839852L-0.264398 8.14823L1.07787 9.6309Z" fill="#737373" fill-opacity="0.13" mask="url(#path-1-inside-1_16_1314)"/>
</svg>
