<svg width="18" height="18" viewBox="0 0 18 18" fill="none" xmlns="http://www.w3.org/2000/svg">
<path fill-rule="evenodd" clip-rule="evenodd" d="M10.8432 0.707998C11.1913 0.707998 11.4738 0.990492 11.4738 1.33856C11.4738 1.68664 11.1913 1.96913 10.8432 1.96913H4.7326C2.62399 1.96913 1.26113 3.41859 1.26113 5.6634V12.4584C1.26113 14.7326 2.5912 16.1451 4.7326 16.1451H11.9664C14.0751 16.1451 15.4379 14.6981 15.4379 12.4584V6.5403C15.4379 6.19223 15.7204 5.90974 16.0685 5.90974C16.4165 5.90974 16.699 6.19223 16.699 6.5403V12.4584C16.699 15.4178 14.7973 17.4062 11.9664 17.4062H4.7326C1.90178 17.4062 0 15.4178 0 12.4584V5.6634C0 2.69974 1.90178 0.707998 4.7326 0.707998H10.8432ZM12.6217 6.45018C12.8975 6.66373 12.9479 7.05972 12.7344 7.33465L10.271 10.5127C10.1684 10.6455 10.0171 10.7321 9.8506 10.7523C9.68245 10.775 9.51598 10.7262 9.38314 10.6228L7.0139 8.76141L4.88595 11.5266C4.76152 11.6881 4.57488 11.773 4.38571 11.773C4.25119 11.773 4.11582 11.7301 4.00148 11.6427C3.72571 11.43 3.67359 11.034 3.8863 10.7582L6.40267 7.48767C6.50525 7.35399 6.65742 7.26739 6.82389 7.24637C6.99372 7.22451 7.16019 7.27159 7.29219 7.37669L9.66312 9.23895L11.7373 6.56284C11.9508 6.28623 12.346 6.23494 12.6217 6.45018ZM15.1062 0C16.3454 0 17.3526 1.00722 17.3526 2.24649C17.3526 3.48576 16.3454 4.49383 15.1062 4.49383C13.8677 4.49383 12.8597 3.48576 12.8597 2.24649C12.8597 1.00722 13.8677 0 15.1062 0ZM15.1062 1.26113C14.563 1.26113 14.1208 1.70253 14.1208 2.24649C14.1208 2.78962 14.563 3.2327 15.1062 3.2327C15.6493 3.2327 16.0915 2.78962 16.0915 2.24649C16.0915 1.70253 15.6493 1.26113 15.1062 1.26113Z" fill="#FFCA0D"/>
</svg>
