<svg width="24" height="26" viewBox="0 0 24 26" fill="none" xmlns="http://www.w3.org/2000/svg">
<path d="M1.33319 13C1.33319 10.512 1.34434 9.48702 1.6314 8.58383C1.9092 7.70976 2.3731 6.90625 2.99117 6.22863C3.62983 5.52844 4.51192 5.00629 6.66658 3.7623C8.82123 2.51831 9.71447 2.01547 10.6402 1.81247C11.5361 1.61602 12.4639 1.61602 13.3597 1.81247C14.2854 2.01547 15.1787 2.51831 17.3333 3.7623C19.488 5.00629 20.3701 5.52844 21.0087 6.22863C21.6268 6.90625 22.0907 7.70976 22.3685 8.58383C22.6556 9.48702 22.6667 10.512 22.6667 13C22.6667 15.488 22.6556 16.513 22.3685 17.4161C22.0907 18.2902 21.6268 19.0937 21.0087 19.7714C20.3701 20.4715 19.488 20.9937 17.3333 22.2377C15.1787 23.4817 14.2854 23.9845 13.3597 24.1875C12.4639 24.384 11.5361 24.384 10.6402 24.1875C9.71447 23.9845 8.82123 23.4817 6.66658 22.2377C4.51192 20.9937 3.62983 20.4715 2.99117 19.7714C2.3731 19.0937 1.9092 18.2902 1.6314 17.4161C1.34434 16.513 1.33319 15.488 1.33319 13Z" stroke="white" stroke-width="2"/>
<path d="M12 8.33333L12 13" stroke="white" stroke-width="2.33333" stroke-linecap="round"/>
<circle cx="12" cy="16.5" r="1.16667" fill="white"/>
</svg>
