<!-- Generated by IcoMoon.io -->
<svg version="1.1" xmlns="http://www.w3.org/2000/svg" width="32" height="32" viewBox="0 0 32 32">
<title>vk</title>
<path d="M10.699 12.869c0.085 4.16 2.165 6.656 5.813 6.656h0.213v-2.379c1.339 0.133 2.352 1.115 2.757 2.379h1.893c-0.194-0.718-0.538-1.387-1.010-1.963s-1.060-1.044-1.726-1.376c0.597-0.363 1.112-0.846 1.514-1.418s0.682-1.22 0.822-1.905h-1.717c-0.373 1.323-1.483 2.523-2.533 2.635v-2.629h-1.723v4.608c-1.067-0.267-2.411-1.557-2.469-4.608h-1.835z"></path>
<path d="M16 0c-8.837 0-16 7.163-16 16s7.163 16 16 16c8.837 0 16-7.163 16-16s-7.163-16-16-16zM8 15.68c0-3.621 0-5.429 1.12-6.56 1.136-1.12 2.944-1.12 6.56-1.12h0.64c3.621 0 5.429 0 6.56 1.12 1.12 1.136 1.12 2.944 1.12 6.56v0.64c0 3.621 0 5.429-1.12 6.56-1.136 1.12-2.944 1.12-6.56 1.12h-0.64c-3.621 0-5.429 0-6.56-1.12-1.12-1.136-1.12-2.944-1.12-6.56v-0.64z"></path>
</svg>
