<svg width="16" height="16" viewBox="0 0 16 16" fill="none" xmlns="http://www.w3.org/2000/svg">
<path fill-rule="evenodd" clip-rule="evenodd" d="M3.16983 3.28739C1.34738 5.10983 1.34738 8.0646 3.16983 9.88705C4.99227 11.7095 7.94704 11.7095 9.76949 9.88705C11.5919 8.0646 11.5919 5.10983 9.76949 3.28739C7.94704 1.46494 4.99227 1.46494 3.16983 3.28739ZM2.22702 10.8299C-0.11613 8.48671 -0.11613 4.68772 2.22702 2.34458C4.57016 0.00143293 8.36915 0.00143327 10.7123 2.34458C12.8961 4.52839 13.0446 7.97677 11.1578 10.3326L14.9411 14.1158C15.2014 14.3762 15.2014 14.7983 14.9411 15.0586C14.6807 15.319 14.2586 15.319 13.9983 15.0586L10.215 11.2754C7.85921 13.1622 4.41082 13.0137 2.22702 10.8299Z" fill="#8088AB"/>
</svg>
