<svg width="214" height="39" viewBox="0 0 214 39" fill="none" xmlns="http://www.w3.org/2000/svg">
<path d="M48.546 10.634C48.546 11.684 49.092 13.182 51.5 13.182C53.908 13.182 54.454 11.684 54.454 10.634V6.42C54.454 5.37 53.908 3.872 51.5 3.872C49.092 3.872 48.546 5.37 48.546 6.42V10.634ZM52.046 10.802C52.046 11.11 52.046 11.53 51.5 11.53C50.954 11.53 50.954 11.11 50.954 10.802V6.252C50.954 5.944 50.954 5.524 51.5 5.524C52.046 5.524 52.046 5.944 52.046 6.252V10.802ZM60.894 14.54H63.302V11.096H62.938V4.04H60.53V11.096H59.354V4.054H56.946V13H60.894V14.54ZM65.428 10.634C65.428 11.684 65.974 13.182 68.382 13.182C70.79 13.182 71.336 11.684 71.336 10.634V9.682H68.928V10.802C68.928 11.11 68.928 11.53 68.382 11.53C67.836 11.53 67.836 11.11 67.836 10.802V8.884H71.336V6.42C71.336 5.37 70.79 3.872 68.382 3.872C65.974 3.872 65.428 5.37 65.428 6.42V10.634ZM67.836 6.252C67.836 5.944 67.836 5.524 68.382 5.524C68.928 5.524 68.928 5.944 68.928 6.252V7.232H67.836V6.252ZM77.412 13H79.82V4.054H77.412V7.358H76.236V4.054H73.828V13H76.236V9.22H77.412V13ZM82.3101 13H84.8021V8.562H84.8301L86.2301 13H88.7221L87.1541 7.974L88.7221 4.054H86.2301L84.8301 7.778H84.8021V4.054H82.3101V13ZM94.5701 13H96.7821V6.672C96.7821 4.74 96.0401 3.872 93.8701 3.872C92.2181 3.872 91.0421 4.74 91.0421 6.056V6.868H93.2821V6.14C93.2821 5.762 93.4641 5.524 93.8981 5.524C94.3461 5.524 94.4581 5.79 94.4581 6.266C94.4581 7.232 93.5901 7.442 92.6941 7.82C91.8121 8.212 90.8741 8.772 90.8741 10.452C90.8741 11.894 91.0701 13.182 92.8341 13.182C93.5061 13.182 94.1781 12.86 94.5421 12.314H94.5701V13ZM94.4581 10.9C94.4581 11.334 94.2761 11.684 93.8981 11.684C93.5621 11.684 93.3661 11.474 93.3661 10.97V9.78C93.3661 9.43 93.5061 9.192 93.7861 8.982L94.4581 8.52V10.9ZM104.174 13H106.666V8.562H106.694L108.094 13H110.586L109.018 7.974L110.586 4.054H108.094L106.694 7.778H106.666V4.054H104.174V13ZM116.434 13H118.646V6.672C118.646 4.74 117.904 3.872 115.734 3.872C114.082 3.872 112.906 4.74 112.906 6.056V6.868H115.146V6.14C115.146 5.762 115.328 5.524 115.762 5.524C116.21 5.524 116.322 5.79 116.322 6.266C116.322 7.232 115.454 7.442 114.558 7.82C113.676 8.212 112.738 8.772 112.738 10.452C112.738 11.894 112.934 13.182 114.698 13.182C115.37 13.182 116.042 12.86 116.406 12.314H116.434V13ZM116.322 10.9C116.322 11.334 116.14 11.684 115.762 11.684C115.426 11.684 115.23 11.474 115.23 10.97V9.78C115.23 9.43 115.37 9.192 115.65 8.982L116.322 8.52V10.9ZM124.806 13H127.214V4.054H124.806V7.918C124.708 7.96 124.498 8.058 124.106 8.058C123.672 8.058 123.546 7.792 123.546 7.204V4.054H121.138V7.61C121.138 9.304 121.922 9.794 123.406 9.794C123.91 9.794 124.428 9.766 124.806 9.654V13ZM129.702 10.634C129.702 11.684 130.248 13.182 132.656 13.182C135.064 13.182 135.61 11.684 135.61 10.634V9.682H133.202V10.802C133.202 11.11 133.202 11.53 132.656 11.53C132.11 11.53 132.11 11.11 132.11 10.802V8.884H135.61V6.42C135.61 5.37 135.064 3.872 132.656 3.872C130.248 3.872 129.702 5.37 129.702 6.42V10.634ZM132.11 6.252C132.11 5.944 132.11 5.524 132.656 5.524C133.202 5.524 133.202 5.944 133.202 6.252V7.232H132.11V6.252ZM138.102 10.634C138.102 11.684 138.648 13.182 141.056 13.182C143.506 13.182 144.01 11.684 144.01 10.634V9.192H141.602V10.802C141.602 11.11 141.602 11.53 141.056 11.53C140.51 11.53 140.51 11.11 140.51 10.802V6.252C140.51 5.944 140.51 5.524 141.056 5.524C141.602 5.524 141.602 5.944 141.602 6.252V7.372H144.01V6.42C144.01 5.314 143.506 3.872 141.056 3.872C138.648 3.872 138.102 5.37 138.102 6.42V10.634ZM147.86 5.958V13H150.268V5.958H151.948V4.054H146.18V5.958H147.86ZM154.123 13H157.511C159.275 13 160.171 12.384 160.171 10.396C160.171 9.024 159.555 8.394 158.281 8.296V8.268C159.135 8.198 159.891 7.694 159.891 6.308C159.891 4.418 158.813 4.054 157.273 4.054H154.123V13ZM156.447 9.178H156.923C157.399 9.178 157.763 9.388 157.763 10.2C157.763 10.83 157.427 11.264 156.923 11.264H156.447V9.178ZM156.447 5.79H156.895C157.371 5.79 157.609 6.084 157.609 6.658C157.609 7.302 157.301 7.61 156.853 7.61H156.447V5.79ZM166.219 13H168.431V6.672C168.431 4.74 167.689 3.872 165.519 3.872C163.867 3.872 162.691 4.74 162.691 6.056V6.868H164.931V6.14C164.931 5.762 165.113 5.524 165.547 5.524C165.995 5.524 166.107 5.79 166.107 6.266C166.107 7.232 165.239 7.442 164.343 7.82C163.461 8.212 162.523 8.772 162.523 10.452C162.523 11.894 162.719 13.182 164.483 13.182C165.155 13.182 165.827 12.86 166.191 12.314H166.219V13ZM166.107 10.9C166.107 11.334 165.925 11.684 165.547 11.684C165.211 11.684 165.015 11.474 165.015 10.97V9.78C165.015 9.43 165.155 9.192 165.435 8.982L166.107 8.52V10.9ZM176.019 14.54H177.139C179.029 14.54 179.477 14.106 179.855 12.16L181.423 4.054H179.057L178.441 10.34H178.413L177.839 4.054H175.347L176.901 11.894C176.971 12.272 176.971 12.398 176.971 12.524C176.971 12.762 176.831 12.804 176.551 12.804H176.019V14.54ZM183.444 10.634C183.444 11.684 183.99 13.182 186.398 13.182C188.848 13.182 189.352 11.684 189.352 10.634V9.192H186.944V10.802C186.944 11.11 186.944 11.53 186.398 11.53C185.852 11.53 185.852 11.11 185.852 10.802V6.252C185.852 5.944 185.852 5.524 186.398 5.524C186.944 5.524 186.944 5.944 186.944 6.252V7.372H189.352V6.42C189.352 5.314 188.848 3.872 186.398 3.872C183.99 3.872 183.444 5.37 183.444 6.42V10.634ZM196.352 13H198.76V4.054H192.754V9.612C192.754 11.124 192.558 11.278 192.068 11.278C191.942 11.278 191.746 11.25 191.578 11.18V13C191.83 13.07 192.348 13.182 192.796 13.182C194.448 13.182 195.162 12.342 195.162 9.976V5.958H196.352V13ZM201.451 14.54H202.571C204.461 14.54 204.909 14.106 205.287 12.16L206.855 4.054H204.489L203.873 10.34H203.845L203.271 4.054H200.779L202.333 11.894C202.403 12.272 202.403 12.398 202.403 12.524C202.403 12.762 202.263 12.804 201.983 12.804H201.451V14.54ZM208.876 13H211.284V5.958H213.594V4.054H208.876V13ZM48.742 31.54H49.862C51.752 31.54 52.2 31.106 52.578 29.16L54.146 21.054H51.78L51.164 27.34H51.136L50.562 21.054H48.07L49.624 28.894C49.694 29.272 49.694 29.398 49.694 29.524C49.694 29.762 49.554 29.804 49.274 29.804H48.742V31.54ZM60.0447 30H62.4527V21.054H60.0447V24.918C59.9467 24.96 59.7367 25.058 59.3447 25.058C58.9107 25.058 58.7847 24.792 58.7847 24.204V21.054H56.3767V24.61C56.3767 26.304 57.1607 26.794 58.6447 26.794C59.1487 26.794 59.6667 26.766 60.0447 26.654V30ZM65.1508 31.54H67.5588V29.104H67.5868C67.8808 29.79 68.4828 30.182 69.2668 30.182C70.4008 30.182 71.0588 29.188 71.0588 27.508V23.14C71.0588 21.712 70.4848 20.872 69.3088 20.872C68.4408 20.872 67.9508 21.18 67.5868 21.866H67.5588V21.054H65.1508V31.54ZM68.6508 27.788C68.6508 28.25 68.4128 28.376 68.1748 28.376C67.5588 28.376 67.5588 27.788 67.5588 27.144V23.84C67.5588 23.294 67.6708 22.706 68.1748 22.706C68.3988 22.706 68.6508 22.888 68.6508 23.252V27.788ZM73.7608 27.634C73.7608 28.684 74.3068 30.182 76.7148 30.182C79.1228 30.182 79.6688 28.684 79.6688 27.634V26.682H77.2608V27.802C77.2608 28.11 77.2608 28.53 76.7148 28.53C76.1688 28.53 76.1688 28.11 76.1688 27.802V25.884H79.6688V23.42C79.6688 22.37 79.1228 20.872 76.7148 20.872C74.3068 20.872 73.7608 22.37 73.7608 23.42V27.634ZM76.1688 23.252C76.1688 22.944 76.1688 22.524 76.7148 22.524C77.2608 22.524 77.2608 22.944 77.2608 23.252V24.232H76.1688V23.252ZM85.7448 30H88.1528V25.576H88.1808L89.5248 30H92.1008L90.2948 24.974L92.0168 21.054H89.6088L88.1808 24.82H88.1528V21.054H85.7448V24.722H85.7168L84.3588 21.054H81.9088L83.6448 24.974L81.8248 30H84.3168L85.7168 25.576H85.7448V30ZM98.504 28.096H96.67C97.118 27.074 97.44 25.576 97.44 24.26V22.916H98.504V28.096ZM98.756 31.54H101.248V28.096H100.828V21.054H95.2V23.252C95.2 25.044 95.06 27.046 94.388 28.096H93.968V31.54H96.376V30H98.756V31.54ZM103.651 27.634C103.651 28.684 104.197 30.182 106.605 30.182C109.013 30.182 109.559 28.684 109.559 27.634V26.682H107.151V27.802C107.151 28.11 107.151 28.53 106.605 28.53C106.059 28.53 106.059 28.11 106.059 27.802V25.884H109.559V23.42C109.559 22.37 109.013 20.872 106.605 20.872C104.197 20.872 103.651 22.37 103.651 23.42V27.634ZM106.059 23.252C106.059 22.944 106.059 22.524 106.605 22.524C107.151 22.524 107.151 22.944 107.151 23.252V24.232H106.059V23.252ZM115.845 30H118.253V21.054H115.845V24.358H114.669V21.054H112.261V30H114.669V26.22H115.845V30ZM120.953 30H123.697L125.545 24.204H125.573V30H127.981V21.054H125.237L123.389 26.668H123.361V21.054H120.953V30ZM132.098 18.24C132.098 19.57 132.896 20.172 134.198 20.172C135.402 20.172 136.298 19.556 136.298 18.24H135.234C135.15 18.884 134.828 19.108 134.198 19.108C133.61 19.108 133.176 18.87 133.162 18.24H132.098ZM130.684 30H133.428L135.276 24.204H135.304V30H137.712V21.054H134.968L133.12 26.668H133.092V21.054H130.684V30ZM145.526 30H148.018V25.562H148.046L149.446 30H151.938L150.37 24.974L151.938 21.054H149.446L148.046 24.778H148.018V21.054H145.526V30ZM154.496 31.54H155.616C157.506 31.54 157.954 31.106 158.332 29.16L159.9 21.054H157.534L156.918 27.34H156.89L156.316 21.054H153.824L155.378 28.894C155.448 29.272 155.448 29.398 155.448 29.524C155.448 29.762 155.308 29.804 155.028 29.804H154.496V31.54ZM166.638 30H169.046V21.054H163.04V26.612C163.04 28.124 162.844 28.278 162.354 28.278C162.228 28.278 162.032 28.25 161.864 28.18V30C162.116 30.07 162.634 30.182 163.082 30.182C164.734 30.182 165.448 29.342 165.448 26.976V22.958H166.638V30ZM171.752 30H174.888C176.974 30 177.604 29.188 177.604 27.116C177.604 25.24 177.086 24.358 175.112 24.358H174.16V21.054H171.752V30ZM174.16 28.264V26.094H174.594C175.168 26.094 175.28 26.64 175.28 27.186C175.28 27.732 175.168 28.264 174.594 28.264H174.16ZM181.529 22.958V30H183.937V22.958H185.617V21.054H179.849V22.958H181.529ZM188.197 31.54H189.317C191.207 31.54 191.655 31.106 192.033 29.16L193.601 21.054H191.235L190.619 27.34H190.591L190.017 21.054H187.525L189.079 28.894C189.149 29.272 189.149 29.398 189.149 29.524C189.149 29.762 189.009 29.804 188.729 29.804H188.197V31.54ZM195.832 31.54H198.24V29.104H198.268C198.562 29.79 199.164 30.182 199.948 30.182C201.082 30.182 201.74 29.188 201.74 27.508V23.14C201.74 21.712 201.166 20.872 199.99 20.872C199.122 20.872 198.632 21.18 198.268 21.866H198.24V21.054H195.832V31.54ZM199.332 27.788C199.332 28.25 199.094 28.376 198.856 28.376C198.24 28.376 198.24 27.788 198.24 27.144V23.84C198.24 23.294 198.352 22.706 198.856 22.706C199.08 22.706 199.332 22.888 199.332 23.252V27.788ZM211.022 30H213.43V21.054H211.022V30ZM204.442 30H207.578C209.664 30 210.294 29.188 210.294 27.116C210.294 25.24 209.776 24.358 207.802 24.358H206.85V21.054H204.442V30ZM206.85 28.264V26.094H207.284C207.858 26.094 207.97 26.64 207.97 27.186C207.97 27.732 207.858 28.264 207.284 28.264H206.85Z" fill="white"/>
<path d="M48 14.4H213.776V15.1H48V14.4Z" fill="white"/>
<path d="M48 31.4H213.976V32.1H48V31.4Z" fill="white"/>
<g clip-path="url(#clip0_204_7430)">
<path d="M21.0243 34.9928H2.82433C2.57758 34.9928 2.32941 34.9928 2.08124 34.9928C1.593 34.9856 1.12296 34.7981 0.754392 34.4635C0.385822 34.129 0.142502 33.669 0.0675326 33.165C0.0238989 32.9112 0.000656911 32.6541 -0.00195312 32.3963C-0.00195312 23.0992 -0.00195312 13.8021 -0.00195312 4.50498C-0.00195312 3.24743 0.650377 2.34685 1.76359 2.07579C2.02372 2.02331 2.28872 2.00194 2.55347 2.0121H36.5001C37.5608 2.0121 38.6272 2.02247 39.6823 2.0121C40.7374 2.00173 41.3982 2.63717 41.8307 3.52886C42.0023 3.88287 41.9796 4.35834 41.9824 4.77753C41.9952 7.52666 41.9824 10.2743 41.9909 13.0234C41.9909 19.5349 41.9909 26.0463 41.9909 32.5577C41.9909 33.4953 41.6293 34.2004 40.8891 34.6818C40.6192 34.85 40.316 34.9513 40.0028 34.978C39.4582 35.0269 38.908 34.9988 38.3606 34.9988H21.0243V34.9928ZM21.0101 3.31557H5.41095C4.36722 3.31557 3.3235 3.31557 2.28119 3.31557C2.05067 3.30572 1.82418 3.38091 1.64139 3.52796C1.45861 3.67501 1.33118 3.88455 1.28143 4.11987C1.25745 4.26658 1.24794 4.41548 1.25307 4.56423C1.25307 6.64978 1.25307 8.73434 1.25307 10.8179C1.25307 10.9112 1.25306 11.0031 1.26015 11.0949C1.27292 11.3541 1.40197 11.5274 1.65155 11.5215C2.21879 11.5067 2.79455 11.5452 3.33626 11.4163C4.03822 11.2504 4.70899 10.9394 5.39535 10.6979C6.51849 10.3025 7.64589 9.944 8.85411 9.95733C10.9775 9.97412 13.0994 9.97412 15.22 9.95733C15.9811 9.94467 16.7366 10.0959 17.4393 10.4017C18.6348 10.9231 19.0616 11.6415 18.9056 12.982C18.8787 13.1456 18.8904 13.3135 18.9398 13.4713C18.9893 13.629 19.0749 13.7717 19.1893 13.887C19.3996 14.111 19.5895 14.355 19.7565 14.6158C19.999 14.9979 20.1139 15.426 19.9692 15.8792C19.8822 16.1393 19.7711 16.3898 19.6374 16.6272C19.3892 17.0835 19.392 17.2034 19.6799 17.6256C19.7934 17.7649 19.8758 17.9288 19.921 18.1055C20.0188 18.8535 20.0259 19.6015 19.436 20.1629C19.0418 20.5377 18.9269 20.9776 18.9737 21.5049C19.0152 21.8738 18.94 22.2468 18.7596 22.5669C18.1838 23.5756 17.2479 23.9296 16.2297 23.8659C14.9534 23.786 13.6771 23.5179 12.4008 23.3312C12.1926 23.2927 11.9823 23.2679 11.7712 23.2572C11.2294 23.2572 10.943 23.6008 11.0621 24.1533C11.1572 24.5833 11.296 25.0014 11.4762 25.4005C11.9257 26.3825 12.3171 27.3794 12.4589 28.4666C12.5469 29.1435 12.3171 29.7464 12.0264 30.3078C11.7357 30.8691 11.2209 31.1772 10.6934 31.4483C10.0964 31.7549 9.63265 31.6497 9.16893 31.1343C8.75363 30.6973 8.51328 30.1115 8.49675 29.496C8.48115 28.6236 8.07132 27.9215 7.67425 27.2016C7.22187 26.3796 6.51991 25.8152 5.83071 25.242C4.76997 24.3533 3.84537 23.3594 3.315 22.0337C3.09065 21.4903 2.73904 21.0145 2.29254 20.6502C2.05572 20.4488 1.7962 20.1466 1.4516 20.3288C1.14529 20.4917 1.26015 20.8561 1.26015 21.1375C1.25448 24.9196 1.25448 28.7016 1.26015 32.4837C1.25685 32.5943 1.25922 32.7051 1.26725 32.8154C1.28206 33.0287 1.36326 33.2309 1.49846 33.3914C1.63366 33.5519 1.81543 33.6617 2.01601 33.7042C2.20645 33.7437 2.40049 33.7611 2.5946 33.756C14.8848 33.756 27.1751 33.756 39.4653 33.756C40.3162 33.756 40.7416 33.3205 40.7416 32.4348C40.7416 31.3091 40.7416 30.1833 40.7416 29.0591C40.7416 28.357 40.7416 27.6564 40.7416 26.9558C40.7416 26.4714 40.6381 26.3633 40.1744 26.3633C39.9094 26.3427 39.6431 26.3612 39.3831 26.4181C38.6499 26.6225 37.9238 26.8624 37.1978 27.092C36.4405 27.335 35.6917 27.6149 34.9288 27.8326C34.5194 27.9473 34.0976 28.007 33.6738 28.0104C31.4048 28.0311 29.1472 28.0104 26.8839 28.0341C26.2285 28.0327 25.5784 27.9103 24.9638 27.6727C23.9881 27.3098 23.0125 26.4877 23.2337 25.0539C23.3074 24.5754 23.1217 24.2185 22.8083 23.8689C22.0198 22.9802 21.9702 22.3877 22.5502 21.339C22.7444 20.9909 22.692 20.6932 22.5218 20.354C22.3604 20.0537 22.2469 19.7281 22.1857 19.3897C22.0864 18.7572 22.3445 18.221 22.7841 17.8093C22.9535 17.6621 23.0835 17.4717 23.1616 17.2565C23.2396 17.0414 23.263 16.8087 23.2294 16.5813C23.204 16.3981 23.204 16.212 23.2294 16.0288C23.252 15.8103 23.3141 15.5982 23.4124 15.4038C23.9796 14.4632 24.856 14.044 25.887 14.1018C26.8881 14.1581 27.8851 14.3314 28.882 14.4706C29.3727 14.5387 29.8548 14.6735 30.3455 14.7209C30.9042 14.7757 31.2431 14.3462 31.1283 13.7729C31.0875 13.5558 31.0247 13.3438 30.9411 13.1405C30.6986 12.5687 30.4022 12.0177 30.1937 11.4341C29.8293 10.4136 29.5074 9.39003 29.8917 8.27023C30.2037 7.36521 30.8135 6.8142 31.6204 6.45574C32.1139 6.23652 32.5535 6.37724 32.9335 6.75199C33.1769 6.99588 33.3709 7.28829 33.5042 7.61192C33.6374 7.93555 33.7072 8.28381 33.7092 8.63609C33.7348 9.40928 34.0453 10.0714 34.4367 10.6787C34.9318 11.4215 35.5248 12.0877 36.198 12.6576C36.8067 13.1586 37.3757 13.7099 37.8997 14.3062C38.2854 14.7713 38.5407 15.3593 38.8243 15.9089C39.1079 16.4584 39.3717 16.9324 39.9234 17.2049C40.5757 17.5293 40.7373 17.439 40.7373 16.6717C40.7373 12.6872 40.7373 8.70274 40.7373 4.71827C40.7424 4.55217 40.7367 4.3859 40.7203 4.22059C40.6956 3.98002 40.5878 3.75711 40.4171 3.59355C40.2464 3.42998 40.0245 3.33695 39.7929 3.33186C39.5461 3.31853 39.298 3.33186 39.0512 3.33186L21.0101 3.31557ZM1.2474 15.9059C1.2474 16.6628 1.2474 17.4182 1.2474 18.1751C1.2474 18.6195 1.42466 18.8876 1.83307 19.0505C2.19691 19.1923 2.54081 19.3846 2.85552 19.6223C3.52912 20.1377 4.11906 20.7495 4.44948 21.5715C4.80664 22.4578 5.36956 23.2372 6.08739 23.8393C6.87869 24.5162 7.67708 25.1798 8.32799 26.0211C9.03874 26.9186 9.5155 27.9926 9.71206 29.1391C9.74326 29.3198 9.72766 29.5094 9.76169 29.6886C9.85954 30.2159 10.1871 30.3626 10.6126 30.0589C11.1557 29.6649 11.2663 29.0843 11.2067 28.4459C11.1075 27.3972 10.6154 26.4981 10.2141 25.5575C9.98575 25.0109 9.75886 24.3992 9.76737 23.8215C9.78722 22.4884 10.9685 21.7478 12.0165 21.9478C13.3183 22.1892 14.6286 22.3758 15.939 22.561C16.3602 22.6427 16.7953 22.5873 17.1855 22.4025C17.6293 22.1685 17.8591 21.8293 17.7527 21.3331C17.5868 20.5273 17.7527 19.877 18.3951 19.3779C18.436 19.3416 18.4735 19.3015 18.5071 19.2579C18.8404 18.8639 18.8461 18.4743 18.5071 18.0729C18.3441 17.8804 18.1484 17.7159 17.9867 17.5219C17.9243 17.456 17.8755 17.3774 17.8434 17.291C17.8113 17.2046 17.7965 17.1122 17.7999 17.0196C17.8034 16.9269 17.825 16.836 17.8635 16.7525C17.902 16.669 17.9564 16.5946 18.0236 16.5339C18.1356 16.4169 18.2746 16.3295 18.3909 16.2169C18.8475 15.7726 18.8603 15.346 18.4178 14.8839C18.2552 14.7156 18.0776 14.5638 17.8874 14.4306C17.401 14.087 17.3202 13.7981 17.5598 13.2664C17.9612 12.4028 17.7981 11.9525 16.9444 11.5719C16.848 11.5289 16.7444 11.5008 16.6466 11.4578C15.6667 11.0416 14.623 11.1438 13.609 11.1023C12.2533 11.046 10.8905 11.1823 9.53196 11.1586C8.10393 11.1334 6.78226 11.5585 5.45917 12.0266C4.34312 12.4221 3.24976 12.9035 2.02593 12.8442C1.42891 12.8161 1.24172 13.059 1.23605 13.6856C1.24314 14.4321 1.2474 15.1697 1.2474 15.9074V15.9059ZM40.7359 21.8856C40.7359 21.0561 40.7274 20.2251 40.7359 19.3956C40.7359 19.0579 40.6338 18.8357 40.3105 18.7246C40.0425 18.6328 39.7901 18.4965 39.5235 18.3973C38.9897 18.1959 38.5388 17.8082 38.2472 17.2997C37.9494 16.8005 37.6799 16.2821 37.4105 15.7637C37.0251 15.0356 36.4899 14.4058 35.8435 13.9196C34.9968 13.2834 34.2455 12.5191 33.6142 11.6518C33.012 10.8288 32.6171 9.86121 32.4656 8.83753C32.4342 8.59981 32.3868 8.3647 32.3237 8.13396C32.2131 7.73551 31.9182 7.61998 31.592 7.84956C31.4041 7.97481 31.2471 8.14456 31.1338 8.34504C31.0204 8.54552 30.9539 8.77108 30.9397 9.00343C30.9299 9.723 31.0717 10.436 31.3552 11.0919C31.6856 11.9199 32.0642 12.7213 32.3478 13.5789C32.7563 14.8424 31.5268 16.2184 30.3327 16.0214C29.5655 15.8955 28.8012 15.7563 28.0326 15.6526C27.2667 15.5251 26.4944 15.4445 25.7196 15.4112C24.6631 15.4008 24.3313 15.8555 24.4603 16.9309L24.4731 17.0405C24.5369 17.5323 24.4221 17.9515 24.0307 18.2684C23.8934 18.3849 23.7662 18.5138 23.6506 18.6536C23.3131 19.0387 23.2833 19.3942 23.5797 19.797C23.7351 19.9955 23.9059 20.1803 24.0902 20.3495C24.4717 20.7228 24.4674 21.1168 24.0704 21.4767C23.918 21.6011 23.7757 21.7383 23.6449 21.887C23.574 21.9634 23.5188 22.054 23.4827 22.1535C23.4465 22.2529 23.4302 22.359 23.4347 22.4652C23.4392 22.5715 23.4645 22.6756 23.5089 22.7713C23.5534 22.867 23.6161 22.9522 23.6932 23.0217C23.876 23.2216 24.0753 23.4045 24.2888 23.5682C24.8461 23.9904 24.8773 24.0896 24.5724 24.7532C24.5288 24.8336 24.49 24.9167 24.4561 25.002C24.3143 25.4123 24.4561 25.99 24.8319 26.1678C25.3566 26.4196 25.9111 26.698 26.4712 26.7469C27.8071 26.8654 29.1514 26.8758 30.493 26.895C31.3438 26.895 32.1862 26.7988 33.0328 26.8091C34.1673 26.8239 35.2422 26.4729 36.2831 26.0981C37.5367 25.6538 38.7704 25.1813 40.1006 25.0435C40.6679 24.9843 40.7246 24.9102 40.7303 24.3281C40.7416 23.509 40.7359 22.6987 40.7359 21.887V21.8856Z" fill="white"/>
</g>
<defs>
<clipPath id="clip0_204_7430">
<rect width="42" height="34" fill="white" transform="translate(0 1)"/>
</clipPath>
</defs>
</svg>
